<svg xmlns="http://www.w3.org/2000/svg" xmlns:xlink="http://www.w3.org/1999/xlink" width="45.5" height="64" viewBox="0 0 45.5 64">
  <metadata><?xpacket begin="﻿" id="W5M0MpCehiHzreSzNTczkc9d"?>
<x:xmpmeta xmlns:x="adobe:ns:meta/" x:xmptk="Adobe XMP Core 5.6-c142 79.160924, 2017/07/13-01:06:39        ">
   <rdf:RDF xmlns:rdf="http://www.w3.org/1999/02/22-rdf-syntax-ns#">
      <rdf:Description rdf:about=""/>
   </rdf:RDF>
</x:xmpmeta>
                                                                                                    
                                                                                                    
                                                                                                    
                                                                                                    
                                                                                                    
                                                                                                    
                                                                                                    
                                                                                                    
                                                                                                    
                                                                                                    
                                                                                                    
                                                                                                    
                                                                                                    
                                                                                                    
                                                                                                    
                                                                                                    
                                                                                                    
                                                                                                    
                                                                                                    
                                                                                                    
                           
<?xpacket end="w"?></metadata>
<defs>
    <style>
      .cls-1 {
        fill-rule: evenodd;
        filter: url(#filter);
      }
    </style>
    <filter id="filter" x="1068" y="475" width="45.5" height="64" filterUnits="userSpaceOnUse">
      <feFlood result="flood" flood-color="#fff"/>
      <feComposite result="composite" operator="in" in2="SourceGraphic"/>
      <feBlend result="blend" in2="SourceGraphic"/>
    </filter>
  </defs>
  <path class="cls-1" d="M1108.22,519.425h0a9.937,9.937,0,0,0-1.94-1.022l-5.66-2.411-3.99-2.691a1.215,1.215,0,0,0-.12-0.068V511.49a10.641,10.641,0,0,0,5.67-8.068,4.794,4.794,0,0,0,4.34-4.818,4.871,4.871,0,0,0-1.24-3.258v-6.188A14.018,14.018,0,0,0,1091.44,475h-1.08a14.018,14.018,0,0,0-13.84,14.157v6.12a4.851,4.851,0,0,0-1.3,3.326,4.8,4.8,0,0,0,4.34,4.819,10.638,10.638,0,0,0,5.67,8.067v1.631l-4.16,2.8a1.013,1.013,0,0,0-.17.054l-5.69,2.423a11.15,11.15,0,0,0-3.61,2.364,12.1,12.1,0,0,0-3.61,9.032v8.185a1.011,1.011,0,0,0,1,1.017h11.74a1.017,1.017,0,0,0,0-2.033h-3.06v-7.542a1,1,0,1,0-1.99,0v7.542h-5.7V529.8c0-7.32,5.67-9.4,5.91-9.483l0.06-.025,4.74-2.02,5.12,18.7h-1.97a1.017,1.017,0,0,0,0,2.033h28.66a1.011,1.011,0,0,0,1-1.018V529.8A11.923,11.923,0,0,0,1108.22,519.425Zm-9.21-2.081-2.99,6.291-3.71-2.794,3.92-4.167a1.013,1.013,0,0,0,.27-0.836,0.553,0.553,0,0,0,.01-0.129v-0.053Zm-6.04,6.523-0.78,2.126h-2.67l-0.88-2.144,2.15-1.623Zm-5.77-7.988a0.952,0.952,0,0,0,.02-0.17v-3.454a10.059,10.059,0,0,0,2.63.348h2.04a10.1,10.1,0,0,0,2.63-.347v3.3l-3.7,3.927Zm17.33-17.275a2.782,2.782,0,0,1-2.26,2.757v-5.515A2.783,2.783,0,0,1,1104.53,498.6Zm-25.07,2.757a2.813,2.813,0,0,1,0-5.516v5.516Zm1-8.571h0a0.726,0.726,0,0,0-.1.006l-0.03,0a0.652,0.652,0,0,0-.07.011,0.21,0.21,0,0,0-.04.011c-0.02,0-.04.008-0.06,0.014s-0.03.012-.04,0.018-0.03.01-.05,0.016-0.03.017-.05,0.026a0.158,0.158,0,0,1-.04.017,0.262,0.262,0,0,1-.05.03l-0.03.02c-0.01.011-.03,0.023-0.04,0.035s-0.02.015-.03,0.024a0.13,0.13,0,0,0-.04.036l-0.03.029a0.134,0.134,0,0,0-.04.038l-0.03.034-0.03.04-0.03.038a0.076,0.076,0,0,1-.02.04l-0.03.044a0.082,0.082,0,0,1-.02.041,0.1,0.1,0,0,1-.02.048c0,0.013-.01.027-0.01,0.04a0.116,0.116,0,0,0-.02.053,0.064,0.064,0,0,0-.01.042c-0.01.018-.01,0.036-0.02,0.055v0.045a0.108,0.108,0,0,0-.01.055v0.048c0,0.015-.01.029-0.01,0.044a4.4,4.4,0,0,0-.95.205v-4.84a12.007,12.007,0,0,1,11.85-12.125h1.08a12.009,12.009,0,0,1,11.86,12.125v4.863a4.612,4.612,0,0,0-1.03-.228v-0.079a0.059,0.059,0,0,0-.01-0.04v-0.058c-0.01-.016-0.01-0.032-0.02-0.048a0.08,0.08,0,0,0-.01-0.047c0-.018-0.01-0.035-0.01-0.053s-0.01-.026-0.02-0.038-0.01-.037-0.02-0.055-0.01-.023-0.02-0.034l-0.03-.052a0.059,0.059,0,0,0-.02-0.033l-0.03-.046c-0.01-.012-0.01-0.024-0.02-0.035a0.149,0.149,0,0,0-.04-0.039l-0.03-.036-0.03-.032a0.129,0.129,0,0,0-.04-0.035l-0.03-.028a0.159,0.159,0,0,1-.04-0.032,0.164,0.164,0,0,1-.04-0.025,0.138,0.138,0,0,1-.04-0.027c-0.02-.008-0.03-0.016-0.05-0.023s-0.03-.014-0.04-0.02a0.3,0.3,0,0,1-.05-0.023,0.186,0.186,0,0,1-.04-0.013l-0.06-.018-0.03-.008c-3.89-.9-5.06-5.913-5.07-5.961a1.011,1.011,0,0,0-.77-0.771,0.985,0.985,0,0,0-1.01.4c-4.42,6.247-14.03,6.307-14.19,6.307h0Zm0.99,9.195v-7.2c2.54-.159,9.29-1.024,13.64-5.671a9.368,9.368,0,0,0,5.2,5.455v7.414a8.506,8.506,0,0,1-8.4,8.586h-2.04A8.506,8.506,0,0,1,1081.45,501.985Zm3.78,13.57v0.154a5.88,5.88,0,0,0,.3,1.342l3.78,3.768-3.74,2.816-2.99-6.291Zm1.63,17.707-1.95-7.114c0.02,0,.03.011,0.05,0.015a1.036,1.036,0,0,0,.24.029,1,1,0,0,0,.59-0.2l1.2-.906,0.84,2.046Zm1.43,3.706,1.41-8.943h2.34l1.41,8.943h-5.16Zm5.62-9.854,0.73-2,1.16,0.876a1,1,0,0,0,.59.2,1.036,1.036,0,0,0,.24-0.029,0.967,0.967,0,0,0,.23-0.094l-1.98,7.232Zm17.6,9.854h-5.7v-7.542a1,1,0,1,0-1.99,0v7.542h-7.88l5.1-18.6,4.5,1.918c0.02,0.008.04,0.017,0.06,0.024a7.749,7.749,0,0,1,1.54.816h0a9.826,9.826,0,0,1,4.37,8.668v7.17Zm-19.48-34.055a1.016,1.016,0,0,0,0-2.032h-0.73v-2.353a1,1,0,1,0-1.99,0V501.9a1.008,1.008,0,0,0,.99,1.016h1.73Z" transform="translate(-1068 -475)"/>
</svg>
