<svg xmlns="http://www.w3.org/2000/svg" xmlns:xlink="http://www.w3.org/1999/xlink" width="46.44" height="64" viewBox="0 0 46.44 64">
  <metadata><?xpacket begin="﻿" id="W5M0MpCehiHzreSzNTczkc9d"?>
<x:xmpmeta xmlns:x="adobe:ns:meta/" x:xmptk="Adobe XMP Core 5.6-c142 79.160924, 2017/07/13-01:06:39        ">
   <rdf:RDF xmlns:rdf="http://www.w3.org/1999/02/22-rdf-syntax-ns#">
      <rdf:Description rdf:about=""/>
   </rdf:RDF>
</x:xmpmeta>
                                                                                                    
                                                                                                    
                                                                                                    
                                                                                                    
                                                                                                    
                                                                                                    
                                                                                                    
                                                                                                    
                                                                                                    
                                                                                                    
                                                                                                    
                                                                                                    
                                                                                                    
                                                                                                    
                                                                                                    
                                                                                                    
                                                                                                    
                                                                                                    
                                                                                                    
                                                                                                    
                           
<?xpacket end="w"?></metadata>
<defs>
    <style>
      .cls-1 {
        fill-rule: evenodd;
        filter: url(#filter);
      }
    </style>
    <filter id="filter" x="1130.56" y="475" width="46.44" height="64" filterUnits="userSpaceOnUse">
      <feFlood result="flood" flood-color="#fff"/>
      <feComposite result="composite" operator="in" in2="SourceGraphic"/>
      <feBlend result="blend" in2="SourceGraphic"/>
    </filter>
  </defs>
  <path class="cls-1" d="M1173.31,520.9a11.293,11.293,0,0,0-3.69-2.346l-5.8-2.4c-0.05-.019-0.1-0.035-0.14-0.047l-4.02-1.007v-3.387c0.06-.029.12-0.059,0.17-0.089a1.049,1.049,0,0,0,.41.159,26.979,26.979,0,0,1,6.71,1.886,1.022,1.022,0,0,0,1.3-.418c0.04-.037.07-0.077,0.11-0.121a24.964,24.964,0,0,0,5.08-15.338A24.3,24.3,0,0,0,1166.12,480h0a17.923,17.923,0,0,0-12.21-5c-10.77,0-19.53,10.224-19.53,22.791a24.857,24.857,0,0,0,5.28,15.587,0.044,0.044,0,0,0,.02.025c0.01,0.007.01,0.015,0.02,0.022,0.03,0.029.05,0.056,0.08,0.081,0.01,0,.01.009,0.02,0.013a0.993,0.993,0,0,0,.36.2c0.01,0,.01,0,0.01,0,0.05,0.012.09,0.021,0.13,0.028h0.01a0.943,0.943,0,0,0,.14.011l0.03,0a1.019,1.019,0,0,0,.11-0.009l0.05-.009a1.052,1.052,0,0,0,.12-0.03c0.02-.006.04-0.014,0.06-0.022s0.03-.011.05-0.018a27.124,27.124,0,0,1,6.8-1.9,0.955,0.955,0,0,0,.35-0.126l0.12,0.061v3.387l-4.26,1.013a0.977,0.977,0,0,0-.15.05l-5.81,2.4a11.42,11.42,0,0,0-3.69,2.346,11.9,11.9,0,0,0-3.67,8.963v8.122a1.008,1.008,0,0,0,1.01,1.01h12.23a1.011,1.011,0,0,0,0-2.021h-3.37V529.5a1.015,1.015,0,0,0-2.03,0v7.481h-5.81v-7.111a9.625,9.625,0,0,1,6.02-9.408,0.652,0.652,0,0,0,.07-0.025l4.83-2,0.66,2.325v0l4.57,16.22h-2.01a1.011,1.011,0,1,0,0,2.021h29.24a1.013,1.013,0,0,0,1.02-1.013v-8.12A11.864,11.864,0,0,0,1173.31,520.9Zm-32.53-9.394a23.025,23.025,0,0,1-4.37-13.719c0-11.453,7.85-20.77,17.5-20.77a15.672,15.672,0,0,1,10.82,4.45,22.292,22.292,0,0,1,6.68,16.32,23.047,23.047,0,0,1-4.37,13.719,28.872,28.872,0,0,0-4.96-1.449,10.459,10.459,0,0,0,3.37-6.358,4.8,4.8,0,0,0,.1-9.559,1.02,1.02,0,0,0-.81-0.974c-6.93-1.4-9.97-5.5-10-5.543a1.023,1.023,0,0,0-1.56-.119c-3.95,4.032-10.09,5.658-10.15,5.674a1.016,1.016,0,0,0-.76.961,4.8,4.8,0,0,0,.1,9.56,10.5,10.5,0,0,0,3.36,6.359A28.929,28.929,0,0,0,1140.78,511.51Zm24.77-9.856v-5.468A2.775,2.775,0,0,1,1165.55,501.654Zm-23.28-5.468v5.468A2.775,2.775,0,0,1,1142.27,496.186Zm2.03,6.089v-7.358a27.121,27.121,0,0,0,9.54-5.233,19.51,19.51,0,0,0,9.68,5.287v7.3a8.557,8.557,0,0,1-8.57,8.517h-2.08A8.557,8.557,0,0,1,1144.3,502.275Zm1.15,15.533,3.95-.938a1.012,1.012,0,0,0,.77-0.983v-3.42a10.744,10.744,0,0,0,2.7.346h2.08a10.722,10.722,0,0,0,2.68-.341v3.415a1.006,1.006,0,0,0,.76.98l3.97,0.992-0.56,1.974a15.1,15.1,0,0,1-11.11,1.839,15.781,15.781,0,0,1-4.67-1.822Zm11.52,19.17h-6.12l-4.08-14.467a18.453,18.453,0,0,0,3.4,1.116,17.119,17.119,0,0,0,10.88-1.136Zm17.99,0h-5.81V529.5a1.015,1.015,0,0,0-2.03,0v7.481h-8.04l5.2-18.446,4.59,1.9,0.06,0.024a9.616,9.616,0,0,1,6.03,9.409v7.111h0Zm-21.24-33.257h1.73a1.011,1.011,0,1,0,0-2.021h-0.71v-2.273a1.015,1.015,0,0,0-2.03,0v3.283A1.009,1.009,0,0,0,1153.72,503.721Z" transform="translate(-1130.56 -475)"/>
</svg>
