<svg xmlns="http://www.w3.org/2000/svg">
<defs>
<font id="GTWalsheimPro-UltraBold" horiz-adv-x="680" >
  <font-face 
    font-family="GT Walsheim Pro"
    font-weight="700"
    font-stretch="normal"
    units-per-em="1000"
    panose-1="2 0 8 5 4 0 0 2 0 4"
    ascent="800"
    descent="-200"
    x-height="513"
    cap-height="700"
    bbox="-150 -358 1300 1053"
    underline-thickness="50"
    underline-position="-200"
    unicode-range="U+000D-FB04"
  />
<missing-glyph horiz-adv-x="800" 
d="M400 717q162 0 262 -109t100 -258t-100 -258t-262 -109t-262 109t-100 258t100 258t262 109zM400 695q-74 0 -143 -29q-60 -27 -106 -76q-44 -48 -67 -110q-24 -63 -24 -130q0 -68 24 -129q23 -63 67 -110q48 -52 106 -76q69 -29 143 -29q75 0 142 29q58 24 106 76
q44 47 67 110q24 61 24 129q0 67 -24 130q-23 62 -67 110q-46 49 -106 76q-67 29 -142 29zM168 228q82 -49 116 -60q35 -11 72 -11q148 0 220 37q1 0 3 2q-26 -57 -107 -99q-56 -31 -106 -31q-102 0 -198 162zM219 259l179 268l-110 -243h178v-25h-247zM230 169
q27 -39 67.5 -58t68.5 -19q30 0 70 15.5t59 27t32 20.5q-119 -23 -169 -23q-91 0 -128 37zM498 500q0 18 12.5 30.5t29.5 12.5q18 0 30.5 -12.5t12.5 -30.5q0 -17 -12.5 -30t-30.5 -13q-17 0 -29.5 13t-12.5 30zM201 500q0 18 12.5 30.5t29.5 12.5q18 0 30.5 -12.5
t12.5 -30.5q0 -17 -12.5 -30t-30.5 -13q-17 0 -29.5 13t-12.5 30zM600 161q2 5 2 18q0 2 -4 13l-3 5q-1 0 -3 2q-2 0 -4 2l-14 5q-22 10 -33 19q-11 8 -18 20l-4 11q0 1 -1.5 6t-1.5 8q-4 15 -4 31q3 18 3 19l15 -5q0 -1 -0.5 -4.5t-0.5 -5.5v-13q3 -23 4 -27q1 -2 2 -6
t3 -6q3 -6 19 -20q4 -2 8.5 -4.5t9.5 -5t8 -3.5l15 -6q4 -2 7 -5q5 -4 7 -9q5 -9 6 -19q0 -19 -2 -24zM213 331q0 -6 2 -20t2 -20q0 -10 -7 -20q-8 -9 -14 -13h-2l-2 -1q-14 -6 -21 -10q-6 -2 -10 -5l-6 -5q-3 -5 -5 -13q-2 -14 -2 -17h-16q0 6 2 20q8 19 9 20l9 8l11 7
q5 3 24 10l1 1q5 2 9 8q4 5 4 10q0 4 -2 18l-3 20z" />
    <glyph glyph-name="fi" unicode="fi" horiz-adv-x="779" 
d="M409 559q-21 5 -45 5q-48 0 -48 -38v-13h93v-160h-92v-353h-240v353h-70v160h70v11q0 61 15 101t45.5 60t65 27.5t84.5 7.5q75 0 122 -15v-146zM479 513h240v-513h-240v513zM465 662q0 54 38 88t95 34q59 0 97 -34t38 -88q0 -59 -37 -90t-98 -31q-57 0 -95 34t-38 87z
" />
    <glyph glyph-name="fl" unicode="fl" horiz-adv-x="759" 
d="M409 559q-21 5 -45 5q-48 0 -48 -38v-13h93v-160h-92v-353h-240v353h-70v160h70v11q0 61 15 101t45.5 60t65 27.5t84.5 7.5q75 0 122 -15v-146zM469 700h240v-700h-240v700z" />
    <glyph glyph-name=".notdef" horiz-adv-x="800" 
d="M400 717q162 0 262 -109t100 -258t-100 -258t-262 -109t-262 109t-100 258t100 258t262 109zM400 695q-74 0 -143 -29q-60 -27 -106 -76q-44 -48 -67 -110q-24 -63 -24 -130q0 -68 24 -129q23 -63 67 -110q48 -52 106 -76q69 -29 143 -29q75 0 142 29q58 24 106 76
q44 47 67 110q24 61 24 129q0 67 -24 130q-23 62 -67 110q-46 49 -106 76q-67 29 -142 29zM168 228q82 -49 116 -60q35 -11 72 -11q148 0 220 37q1 0 3 2q-26 -57 -107 -99q-56 -31 -106 -31q-102 0 -198 162zM219 259l179 268l-110 -243h178v-25h-247zM230 169
q27 -39 67.5 -58t68.5 -19q30 0 70 15.5t59 27t32 20.5q-119 -23 -169 -23q-91 0 -128 37zM498 500q0 18 12.5 30.5t29.5 12.5q18 0 30.5 -12.5t12.5 -30.5q0 -17 -12.5 -30t-30.5 -13q-17 0 -29.5 13t-12.5 30zM201 500q0 18 12.5 30.5t29.5 12.5q18 0 30.5 -12.5
t12.5 -30.5q0 -17 -12.5 -30t-30.5 -13q-17 0 -29.5 13t-12.5 30zM600 161q2 5 2 18q0 2 -4 13l-3 5q-1 0 -3 2q-2 0 -4 2l-14 5q-22 10 -33 19q-11 8 -18 20l-4 11q0 1 -1.5 6t-1.5 8q-4 15 -4 31q3 18 3 19l15 -5q0 -1 -0.5 -4.5t-0.5 -5.5v-13q3 -23 4 -27q1 -2 2 -6
t3 -6q3 -6 19 -20q4 -2 8.5 -4.5t9.5 -5t8 -3.5l15 -6q4 -2 7 -5q5 -4 7 -9q5 -9 6 -19q0 -19 -2 -24zM213 331q0 -6 2 -20t2 -20q0 -10 -7 -20q-8 -9 -14 -13h-2l-2 -1q-14 -6 -21 -10q-6 -2 -10 -5l-6 -5q-3 -5 -5 -13q-2 -14 -2 -17h-16q0 6 2 20q8 19 9 20l9 8l11 7
q5 3 24 10l1 1q5 2 9 8q4 5 4 10q0 4 -2 18l-3 20z" />
    <glyph glyph-name=".null" horiz-adv-x="0" 
 />
    <glyph glyph-name="nonmarkingreturn" horiz-adv-x="333" 
 />
    <glyph glyph-name="NULL" horiz-adv-x="0" 
 />
    <glyph glyph-name="NULL" horiz-adv-x="0" 
 />
    <glyph glyph-name="CR" unicode="&#xd;" horiz-adv-x="250" 
 />
    <glyph glyph-name="space" unicode=" " horiz-adv-x="228" 
 />
    <glyph glyph-name="exclam" unicode="!" horiz-adv-x="395" 
d="M70 700h255v-421h-255v421zM55 115q0 55 41 94.5t100 39.5q61 0 102.5 -39.5t41.5 -94.5t-41.5 -93.5t-102.5 -38.5q-59 0 -100 39t-41 93z" />
    <glyph glyph-name="quotedbl" unicode="&#x22;" horiz-adv-x="475" 
d="M26 524v176h180v-176l-46 -161h-88zM269 524v176h180v-176l-46 -161h-88z" />
    <glyph glyph-name="numbersign" unicode="#" horiz-adv-x="672" 
d="M361 133h-104l-18 -133h-157l18 133h-81v155h103l17 124h-90v155h111l19 133h157l-19 -133h104l19 133h157l-19 -133h75v-155h-96l-17 -124h83v-155h-105l-18 -133h-157zM279 288h104l17 124h-104z" />
    <glyph glyph-name="dollar" unicode="$" horiz-adv-x="681" 
d="M391 718q74 -6 127 -29t79.5 -58t37.5 -69.5t11 -73.5h-255q0 39 -11 55.5t-40 16.5q-44 0 -44 -38q0 -19 21 -35t73 -34q34 -12 43 -15.5t40 -15.5t41.5 -18t35.5 -19.5t34.5 -24t25.5 -27.5t22.5 -34t12 -39t5.5 -47q0 -101 -66 -160.5t-193 -70.5v-107h-102v107
q-126 11 -192.5 77t-66.5 180h255q0 -36 17 -56.5t47 -20.5q46 0 46 38q0 18 -20 32t-84 39q-36 14 -55.5 22t-50.5 22.5t-48 26.5t-38 30.5t-32 38t-18.5 45.5t-7.5 56q0 96 69 145t179 60v108h102v-107z" />
    <glyph glyph-name="percent" unicode="%" horiz-adv-x="965" 
d="M910 132q0 -60 -47.5 -101.5t-124.5 -41.5q-79 0 -125.5 41.5t-46.5 101.5v121q0 60 46.5 101.5t125.5 41.5q77 0 124.5 -41.5t47.5 -101.5v-121zM711 132q0 -12 7.5 -20.5t19.5 -8.5t19.5 8.5t7.5 20.5v121q0 12 -7.5 20.5t-19.5 8.5t-19.5 -8.5t-7.5 -20.5v-121z
M54 447v121q0 60 46.5 101.5t125.5 41.5q77 0 124.5 -41.5t47.5 -101.5v-121q0 -60 -47.5 -101.5t-124.5 -41.5q-79 0 -125.5 41.5t-46.5 101.5zM253 568q0 12 -7.5 20.5t-19.5 8.5t-19.5 -8.5t-7.5 -20.5v-121q0 -12 7.5 -20.5t19.5 -8.5t19.5 8.5t7.5 20.5v121zM571 759
l142 -61l-325 -756l-142 61z" />
    <glyph glyph-name="ampersand" unicode="&#x26;" horiz-adv-x="702" 
d="M361 401h316v-173h-33q-1 -53 -15.5 -94t-48 -77.5t-98 -56.5t-157.5 -20q-75 0 -139 20t-109 67.5t-45 116.5q0 64 35.5 113.5t84.5 61.5q-44 9 -82 55.5t-38 102.5q0 58 23.5 99t66 63t91 31.5t108.5 9.5q303 0 303 -232h-255q0 38 -8.5 55.5t-36.5 17.5q-42 0 -42 -56
q0 -53 64 -53v-173q-30 0 -44.5 -13.5t-14.5 -43.5q0 -25 14 -42.5t41 -17.5q52 0 57 66h-38v173z" />
    <glyph glyph-name="quotesingle" unicode="'" horiz-adv-x="226" 
d="M23 524v176h180v-176l-46 -161h-88z" />
    <glyph glyph-name="parenleft" unicode="(" horiz-adv-x="416" 
d="M387 530q-60 0 -94.5 -38t-34.5 -94v-262q0 -56 34.5 -94t94.5 -38v-206q-170 0 -269.5 96.5t-99.5 241.5v262q0 145 99.5 241.5t269.5 96.5v-206z" />
    <glyph glyph-name="parenright" unicode=")" horiz-adv-x="416" 
d="M29 736q170 0 269.5 -96.5t99.5 -241.5v-262q0 -145 -99.5 -241.5t-269.5 -96.5v206q60 0 94.5 38t34.5 94v262q0 56 -34.5 94t-94.5 38v206z" />
    <glyph glyph-name="asterisk" unicode="*" horiz-adv-x="474" 
d="M55 367l76 105l-121 36l41 118l129 -48l-5 139h125l-5 -139l128 48l41 -118l-121 -36l76 -105l-101 -73l-81 123l-81 -123z" />
    <glyph glyph-name="plus" unicode="+" 
d="M254 47v151h-151v173h151v150h173v-150h150v-173h-150v-151h-173z" />
    <glyph glyph-name="comma" unicode="," horiz-adv-x="345" 
d="M19 123q0 59 40 100t98 41q70 0 114 -49.5t44 -129.5q0 -153 -73.5 -221t-215.5 -68v86q80 0 126 36q37 31 42 79q-10 -12 -37 -12q-62 0 -100 40t-38 98z" />
    <glyph glyph-name="hyphen" unicode="-" horiz-adv-x="362" 
d="M327 236h-292v173h292v-173z" />
    <glyph glyph-name="period" unicode="." horiz-adv-x="345" 
d="M30 125q0 57 41 98t101 41q61 0 102 -40.5t41 -98.5t-41 -99t-102 -41q-60 0 -101 41t-41 99z" />
    <glyph glyph-name="slash" unicode="/" horiz-adv-x="567" 
d="M351 751l171 -73l-325 -756l-171 73z" />
    <glyph glyph-name="zero" unicode="0" horiz-adv-x="688" 
d="M35 460q0 109 84 184.5t225 75.5q138 0 223.5 -76t85.5 -184v-220q0 -108 -85.5 -184t-223.5 -76q-141 0 -225 75.5t-84 184.5v220zM398 460q0 24 -15 40.5t-39 16.5q-25 0 -39.5 -16.5t-14.5 -40.5v-220q0 -24 14.5 -40.5t39.5 -16.5q24 0 39 16.5t15 40.5v220z" />
    <glyph glyph-name="one" unicode="1" horiz-adv-x="482" 
d="M28 564q108 0 148.5 34t40.5 102h210v-700h-255v404h-144v160z" />
    <glyph glyph-name="two" unicode="2" horiz-adv-x="678" 
d="M42 0q0 114 23.5 190.5t59.5 115t97 74.5q104 60 134.5 84t30.5 53q0 22 -11 33t-27 11q-24 0 -36 -16.5t-12 -56.5h-255q0 41 13.5 78t44 73.5t93 58.5t148.5 22q57 0 106 -11t91 -34.5t66.5 -67t24.5 -102.5q0 -72 -41.5 -125.5t-130.5 -99.5q-14 -8 -33 -17.5
l-29 -14.5t-22 -12t-18.5 -12t-12.5 -11t-8 -12t-2 -13h292v-188h-586z" />
    <glyph glyph-name="three" unicode="3" horiz-adv-x="666" 
d="M285 238q0 -39 10 -57.5t38 -18.5q44 0 44 60q0 30 -13.5 43.5t-43.5 13.5h-95v173h93q37 0 50.5 12.5t13.5 40.5q0 56 -42 56q-28 0 -36.5 -17.5t-8.5 -55.5h-255q0 232 303 232q60 0 108.5 -9.5t91 -31.5t66 -63t23.5 -99q0 -56 -38 -102.5t-82 -55.5
q49 -12 84.5 -61.5t35.5 -113.5q0 -69 -42.5 -116.5t-104 -67.5t-136.5 -20q-95 0 -161 21t-99 59t-46 80.5t-13 97.5h255z" />
    <glyph glyph-name="four" unicode="4" horiz-adv-x="715" 
d="M370 160h-328v540h255v-337h73v160h255v-160h62v-203h-62v-160h-255v160z" />
    <glyph glyph-name="five" unicode="5" horiz-adv-x="692" 
d="M55 700h570v-173h-330v-80q46 44 127 44q59 0 105.5 -22t73 -58t40 -76.5t13.5 -81.5q0 -119 -81.5 -196t-229.5 -77q-147 0 -229 76t-82 192h240q0 -31 19.5 -52t51.5 -21t51.5 22t19.5 56q0 30 -18.5 52t-49.5 22q-48 0 -69 -38h-222v411z" />
    <glyph glyph-name="six" unicode="6" horiz-adv-x="662" 
d="M330 -17q-147 0 -229 77t-82 194q0 87 40 146l206 300h281l-126 -183q54 -12 96 -36q125 -73 125 -227q0 -117 -82 -194t-229 -77zM330 181q32 0 51.5 20.5t19.5 52.5t-19.5 52.5t-51.5 20.5t-51.5 -20.5t-19.5 -52.5t19.5 -52.5t51.5 -20.5z" />
    <glyph glyph-name="seven" unicode="7" horiz-adv-x="635" 
d="M645 700l-298 -700h-274l212 497h-257v203h617z" />
    <glyph glyph-name="eight" unicode="8" horiz-adv-x="671" 
d="M336 -20q-145 0 -228 61t-83 154q0 64 43.5 110.5t91.5 53.5q-44 11 -80 55t-36 101q0 89 77.5 147t214.5 58t214.5 -58t77.5 -147q0 -57 -36 -101t-80 -55q50 -11 92 -56t42 -109q0 -93 -82 -153.5t-228 -60.5zM336 446q28 0 44 16.5t16 40.5t-16 40.5t-44 16.5
t-44.5 -16.5t-16.5 -40.5t16.5 -40.5t44.5 -16.5zM336 140q32 0 51 19.5t19 46.5t-19 46.5t-51 19.5q-33 0 -52 -19t-19 -47t19.5 -47t51.5 -19z" />
    <glyph glyph-name="nine" unicode="9" horiz-adv-x="662" 
d="M332 717q147 0 229 -77t82 -194q0 -87 -40 -146l-206 -300h-281l125 183q-103 20 -161.5 93.5t-58.5 169.5q0 117 82 194t229 77zM332 519q-32 0 -51.5 -20.5t-19.5 -52.5t19.5 -52.5t51.5 -20.5t51.5 20.5t19.5 52.5t-19.5 52.5t-51.5 20.5z" />
    <glyph glyph-name="colon" unicode=":" horiz-adv-x="346" 
d="M30 429q0 57 41 98t101 41q61 0 102 -40.5t41 -98.5t-41 -99t-102 -41q-60 0 -101 41t-41 99zM31 125q0 57 41 98t101 41q61 0 102 -40.5t41 -98.5t-41 -99t-102 -41q-60 0 -101 41t-41 99z" />
    <glyph glyph-name="semicolon" unicode=";" horiz-adv-x="345" 
d="M30 123q0 59 40 100t98 41q70 0 114 -49.5t44 -129.5q0 -153 -73.5 -221t-215.5 -68v86q80 0 126 36q37 31 42 79q-10 -12 -37 -12q-62 0 -100 40t-38 98zM30 429q0 57 41 98t101 41q61 0 102 -40.5t41 -98.5t-41 -99t-102 -41q-60 0 -101 41t-41 99z" />
    <glyph glyph-name="less" unicode="&#x3c;" 
d="M50 181v206l559 181v-210l-279 -74l279 -74v-210z" />
    <glyph glyph-name="equal" unicode="=" 
d="M103 313v173h474v-173h-474zM103 81v173h474v-173h-474z" />
    <glyph glyph-name="greater" unicode="&#x3e;" 
d="M71 0v210l279 74l-279 74v210l559 -181v-206z" />
    <glyph glyph-name="question" unicode="?" horiz-adv-x="604" 
d="M180 279q0 62 23 96.5t84 69.5q32 18 46.5 33.5t14.5 43.5q0 39 -41 39q-47 0 -47 -73h-250q0 32 7.5 61.5t28 61.5t52.5 55.5t85.5 38.5t122.5 15q77 0 139 -18t105.5 -65t43.5 -117q0 -28 -6.5 -52t-14.5 -39.5t-23 -31.5t-23.5 -23t-24.5 -18t-19 -13q-1 -1 -6 -5
t-6.5 -5.5l-6 -6t-6.5 -7t-5.5 -7t-5 -7.5t-3.5 -7.5t-3 -9t-1 -9.5h-260zM168 117q0 55 41 94.5t100 39.5q61 0 102.5 -39.5t41.5 -94.5t-41.5 -93.5t-102.5 -38.5q-59 0 -100 39t-41 93z" />
    <glyph glyph-name="at" unicode="@" horiz-adv-x="956" 
d="M513 136q-7 -24 -41.5 -48t-76.5 -24q-77 0 -129 54.5t-52 142.5q0 87 53.5 142t127.5 55q41 0 76 -24t42 -47v62h167v-185q0 -61 11 -83t36 -22q24 0 35.5 37.5t11.5 123.5q0 110 -83.5 171t-226.5 61q-125 0 -203 -76t-78 -215q0 -128 80.5 -215t236.5 -87
q163 0 267 58l64 -126q-73 -40 -164 -58.5t-167 -18.5q-111 0 -203 36t-152 97.5t-92.5 142.5t-32.5 171q0 99 36.5 183t98 139.5t141.5 86t168 30.5q205 0 339 -104t134 -285q0 -157 -65.5 -225.5t-172.5 -68.5q-68 0 -118.5 31.5t-67.5 87.5zM455 198q26 0 43.5 18.5
t17.5 44.5t-17.5 44.5t-43.5 18.5t-43 -18t-17 -45t17 -45t43 -18z" />
    <glyph glyph-name="A" unicode="A" horiz-adv-x="837" 
d="M545 0l-21 77h-221l-21 -77h-277l266 700h286l275 -700h-287zM414 481l-63 -229h125z" />
    <glyph glyph-name="B" unicode="B" horiz-adv-x="703" 
d="M42 700h394q55 0 97.5 -13t67 -32.5t40 -46t20.5 -50t5 -47.5q0 -59 -38.5 -103.5t-82.5 -53.5q42 -5 84 -48.5t42 -112.5q0 -32 -9.5 -62t-32.5 -61.5t-71 -50.5t-116 -19h-400v700zM297 282v-115h42q35 0 53.5 16t18.5 43q0 56 -72 56h-42zM339 434q35 0 53.5 16
t18.5 44q0 56 -72 56h-42v-116h42z" />
    <glyph glyph-name="C" unicode="C" horiz-adv-x="814" 
d="M796 302q-15 -138 -115.5 -230t-269.5 -92q-120 0 -210.5 52.5t-135.5 135.5t-45 182q0 153 105.5 261.5t282.5 108.5q169 0 270.5 -92.5t114.5 -232.5h-266q-20 93 -118 93q-63 0 -96 -40t-33 -98q0 -62 35 -100t94 -38q54 0 84 25.5t37 64.5h266z" />
    <glyph glyph-name="D" unicode="D" horiz-adv-x="758" 
d="M371 700q167 0 267 -102.5t100 -247.5t-99 -247.5t-268 -102.5h-316v700h316zM310 487v-274h38q58 0 94 40t36 97t-36 97t-94 40h-38z" />
    <glyph glyph-name="E" unicode="E" horiz-adv-x="576" 
d="M310 517v-83h219v-173h-219v-78h219v-183h-474v700h474v-183h-219z" />
    <glyph glyph-name="F" unicode="F" horiz-adv-x="573" 
d="M310 497v-122h219v-194h-219v-181h-255v700h474v-203h-219z" />
    <glyph glyph-name="G" unicode="G" horiz-adv-x="828" 
d="M398 407h424v-155h-62q-19 -125 -111 -198.5t-248 -73.5q-178 0 -279 104t-101 266q0 98 43 181t131 136t205 53q160 0 261.5 -81t111.5 -199h-287q-5 25 -26.5 45t-62.5 20q-116 0 -116 -159q0 -75 32 -118t96 -43q41 0 65.5 18t29.5 49h-106v155z" />
    <glyph glyph-name="H" unicode="H" horiz-adv-x="768" 
d="M458 243h-148v-243h-255v700h255v-248h148v248h255v-700h-255v243z" />
    <glyph glyph-name="I" unicode="I" horiz-adv-x="365" 
d="M55 700h255v-700h-255v700z" />
    <glyph glyph-name="J" unicode="J" horiz-adv-x="676" 
d="M634 268q0 -82 -21.5 -139t-64.5 -88.5t-97 -44.5t-128 -13q-157 0 -234 78t-77 208h255q0 -32 14.5 -54t41.5 -22q56 0 56 75v432h255v-432z" />
    <glyph glyph-name="K" unicode="K" horiz-adv-x="762" 
d="M310 274v-274h-255v700h255v-275l160 275h295l-238 -350l238 -350h-295z" />
    <glyph glyph-name="L" unicode="L" horiz-adv-x="501" 
d="M476 215v-215h-421v700h255v-485h166z" />
    <glyph glyph-name="M" unicode="M" horiz-adv-x="1006" 
d="M951 0h-245v435l-103 -435h-187l-116 435v-435h-245v700h342l111 -418l111 418h332v-700z" />
    <glyph glyph-name="N" unicode="N" horiz-adv-x="824" 
d="M514 327v373h255v-700h-255l-204 353v-353h-255v700h255z" />
    <glyph glyph-name="O" unicode="O" horiz-adv-x="816" 
d="M408 -20q-179 0 -283.5 108t-104.5 262t104.5 262t283.5 108q119 0 209 -52.5t134.5 -135.5t44.5 -182t-44.5 -182t-134.5 -135.5t-209 -52.5zM408 213q61 0 97 40t36 97t-36 97t-97 40t-97 -40t-36 -97t36 -97t97 -40z" />
    <glyph glyph-name="P" unicode="P" horiz-adv-x="712" 
d="M55 700h378q121 0 196 -78.5t75 -190.5q0 -111 -75.5 -189.5t-195.5 -78.5h-123v-163h-255v700zM371 353q32 0 52.5 22.5t20.5 55.5t-20 55.5t-52 22.5h-62v-156h61z" />
    <glyph glyph-name="Q" unicode="Q" horiz-adv-x="816" 
d="M796 350q0 -88 -36 -164t-104 -129l60 -75l-112 -57q-16 -8 -42.5 -21.5t-35.5 -17.5q-16 -9 -35 -18l-83 112q-179 0 -283.5 108t-104.5 262t104.5 262t283.5 108q119 0 209 -52.5t134.5 -135.5t44.5 -182zM408 213q61 0 97 40t36 97t-36 97t-97 40t-97 -40t-36 -97
t36 -97t97 -40z" />
    <glyph glyph-name="R" unicode="R" horiz-adv-x="743" 
d="M55 700h379q121 0 196 -78.5t75 -190.5q0 -70 -31 -129.5t-88 -95.5l141 -206h-302l-115 163v-163h-255v700zM371 353q32 0 52.5 22.5t20.5 55.5t-20 55.5t-52 22.5h-62v-156h61z" />
    <glyph glyph-name="S" unicode="S" horiz-adv-x="681" 
d="M285 239q0 -36 17 -56.5t47 -20.5q46 0 46 38q0 18 -20 32t-84 39q-36 14 -55.5 22t-50.5 22.5t-48 26.5t-38 30.5t-32 38t-18.5 45.5t-7.5 56q0 56 26 98t71 65t97 34t112 11q70 0 124.5 -15t86.5 -38t52.5 -55t28 -62t7.5 -62h-255q0 39 -11 55.5t-40 16.5
q-44 0 -44 -38q0 -19 21 -35t73 -34q34 -12 43 -15.5t40 -15.5t41.5 -18t35.5 -19.5t34.5 -24t25.5 -27.5t22.5 -34t12 -39t5.5 -47q0 -110 -79.5 -171.5t-229.5 -61.5t-230.5 66.5t-80.5 192.5h255z" />
    <glyph glyph-name="T" unicode="T" horiz-adv-x="563" 
d="M154 485h-129v215h513v-215h-129v-485h-255v485z" />
    <glyph glyph-name="U" unicode="U" horiz-adv-x="690" 
d="M32 700h255v-449q0 -24 17 -41t41 -17t41 17t17 41v449h255v-452q0 -122 -83.5 -195t-229.5 -73t-229.5 73t-83.5 195v452z" />
    <glyph glyph-name="V" unicode="V" horiz-adv-x="795" 
d="M536 0h-286l-266 700h277l132 -464l131 464h287z" />
    <glyph glyph-name="W" unicode="W" horiz-adv-x="1140" 
d="M570 322l-94 -322h-231l-257 700h270l106 -378l103 378h206l103 -378l106 378h270l-257 -700h-231z" />
    <glyph glyph-name="X" unicode="X" horiz-adv-x="702" 
d="M431 700h276l-208 -350l208 -350h-276l-80 175l-80 -175h-276l208 350l-208 350h276l80 -175z" />
    <glyph glyph-name="Y" unicode="Y" horiz-adv-x="718" 
d="M387 0h-287l111 230l-221 470h300l75 -223l84 223h285z" />
    <glyph glyph-name="Z" unicode="Z" horiz-adv-x="742" 
d="M67 700h650l-302 -497h274v-203h-665l302 497h-259v203z" />
    <glyph glyph-name="bracketleft" unicode="[" horiz-adv-x="445" 
d="M55 -202v938h370v-206h-130v-526h130v-206h-370z" />
    <glyph glyph-name="backslash" unicode="\" horiz-adv-x="567" 
d="M522 -5l-171 -73l-325 756l171 73z" />
    <glyph glyph-name="bracketright" unicode="]" horiz-adv-x="445" 
d="M20 -202v206h130v526h-130v206h370v-938h-370z" />
    <glyph glyph-name="asciicircum" unicode="^" horiz-adv-x="611" 
d="M405 254l-98 235l-100 -235h-202l248 496h109l244 -496h-201z" />
    <glyph glyph-name="underscore" unicode="_" horiz-adv-x="630" 
d="M5 -145v125h620v-125h-620z" />
    <glyph glyph-name="grave" unicode="`" horiz-adv-x="394" 
d="M11 589l41 147l330 -110l-41 -147z" />
    <glyph glyph-name="a" unicode="a" horiz-adv-x="700" 
d="M650 513v-513h-240v79q-12 -33 -56 -62.5t-99 -29.5q-101 0 -164 72.5t-63 196.5t63 196.5t164 72.5q55 0 99 -29.5t56 -62.5v80h240zM339 183q30 0 50.5 21.5t20.5 51.5t-20.5 51.5t-50.5 21.5t-50.5 -21.5t-20.5 -51.5t20.5 -51.5t50.5 -21.5z" />
    <glyph glyph-name="b" unicode="b" horiz-adv-x="700" 
d="M290 0h-240v700h240v-267q9 32 54.5 62t100.5 30q101 0 164 -72.5t63 -196.5t-63 -196.5t-164 -72.5q-55 0 -100.5 30t-54.5 62v-79zM361 183q30 0 50.5 21.5t20.5 51.5t-20.5 51.5t-50.5 21.5t-50.5 -21.5t-20.5 -51.5t20.5 -51.5t50.5 -21.5z" />
    <glyph glyph-name="c" unicode="c" horiz-adv-x="658" 
d="M397 287q-12 46 -65 46q-36 0 -54 -22t-18 -55q0 -32 19 -54t55 -22q48 0 62 42h241q-10 -103 -90.5 -170t-215.5 -67q-147 0 -229 77t-82 194t82 194.5t229 77.5q135 0 214 -67.5t92 -173.5h-240z" />
    <glyph glyph-name="d" unicode="d" horiz-adv-x="700" 
d="M410 79q-12 -33 -56 -62.5t-99 -29.5q-101 0 -164 72.5t-63 196.5t63 196.5t164 72.5q55 0 99 -29.5t56 -62.5v267h240v-700h-240v79zM339 183q30 0 50.5 21.5t20.5 51.5t-20.5 51.5t-50.5 21.5t-50.5 -21.5t-20.5 -51.5t20.5 -51.5t50.5 -21.5z" />
    <glyph glyph-name="e" unicode="e" horiz-adv-x="669" 
d="M332 386q-33 0 -52 -19.5t-19 -53.5h142q0 34 -19 53.5t-52 19.5zM261 211q0 -78 73 -78q27 0 46 12t23 32h230q-15 -87 -92 -139.5t-205 -52.5q-145 0 -230 72t-85 199q0 116 80.5 194t229.5 78q148 0 230 -72t82 -168q0 -43 -6 -77h-376z" />
    <glyph glyph-name="f" unicode="f" horiz-adv-x="423" 
d="M411 559q-21 5 -45 5q-48 0 -48 -38v-13h93v-160h-92v-353h-240v353h-70v160h70v11q0 61 15 101t45.5 60t65 27.5t84.5 7.5q75 0 122 -15v-146z" />
    <glyph glyph-name="g" unicode="g" horiz-adv-x="699" 
d="M341 329q-30 0 -50.5 -21.5t-20.5 -51.5t20.5 -51.5t50.5 -21.5t50.5 21.5t20.5 51.5t-20.5 51.5t-50.5 21.5zM652 54q0 -77 -22.5 -126t-70.5 -79q-80 -51 -221 -51q-155 0 -221 48q-87 63 -87 148h240q0 -19 19.5 -35t48.5 -16q33 0 53.5 19.5t20.5 55.5v72
q-17 -32 -57 -53.5t-96 -21.5q-104 0 -166.5 61t-62.5 180q0 126 59 197.5t163 71.5q58 0 100 -24t60 -68v80h240v-459z" />
    <glyph glyph-name="h" unicode="h" horiz-adv-x="654" 
d="M50 700h225v-265q19 40 61 65t102 25q73 0 115 -37q55 -51 55 -188v-300h-225v258q0 70 -52 70q-28 0 -42 -19t-14 -65v-244h-225v700z" />
    <glyph glyph-name="i" unicode="i" horiz-adv-x="340" 
d="M50 513h240v-513h-240v513zM36 662q0 54 38 88t95 34q59 0 97 -34t38 -88q0 -59 -37 -90t-98 -31q-57 0 -95 34t-38 87z" />
    <glyph glyph-name="j" unicode="j" horiz-adv-x="340" 
d="M290 -6q0 -61 -13 -101t-40.5 -60t-59.5 -27.5t-79 -7.5q-90 0 -141 15v160q17 -4 42 -4q51 0 51 49v495h240v-519zM36 662q0 54 38 88t95 34q59 0 97 -34t38 -88q0 -59 -37 -90t-98 -31q-57 0 -95 34t-38 87z" />
    <glyph glyph-name="k" unicode="k" horiz-adv-x="665" 
d="M494 256l173 -256h-275l-102 196v-196h-240v700h240v-385l104 198h274z" />
    <glyph glyph-name="l" unicode="l" horiz-adv-x="340" 
d="M50 700h240v-700h-240v700z" />
    <glyph glyph-name="m" unicode="m" horiz-adv-x="962" 
d="M690 0v258q0 70 -46 70q-49 0 -49 -75v-253h-225v258q0 70 -46 70q-49 0 -49 -84v-244h-225v513h225v-78q18 39 59 64.5t98 25.5q111 0 145 -94q52 94 166 94q99 0 135.5 -57.5t36.5 -167.5v-300h-225z" />
    <glyph glyph-name="n" unicode="n" horiz-adv-x="684" 
d="M50 513h240v-78q18 42 62 66t108 24q81 0 125 -39q53 -49 53 -183v-303h-240v258q0 70 -52 70q-28 0 -42 -19t-14 -65v-244h-240v513z" />
    <glyph glyph-name="o" unicode="o" horiz-adv-x="662" 
d="M331 -15q-147 0 -229 77t-82 194q0 118 82 195t229 77t229 -77t82 -195q0 -117 -82 -194t-229 -77zM331 183q32 0 51.5 20.5t19.5 52.5t-19.5 52.5t-51.5 20.5t-51.5 -20.5t-19.5 -52.5t19.5 -52.5t51.5 -20.5z" />
    <glyph glyph-name="p" unicode="p" horiz-adv-x="700" 
d="M290 434q9 31 55 61t100 30q101 0 164 -72.5t63 -195.5q0 -124 -63 -196.5t-164 -72.5q-55 0 -100.5 30t-54.5 62v-267h-240v700h240v-79zM361 330q-30 0 -50.5 -21.5t-20.5 -51.5t20.5 -51.5t50.5 -21.5t50.5 21.5t20.5 51.5t-20.5 51.5t-50.5 21.5z" />
    <glyph glyph-name="q" unicode="q" horiz-adv-x="700" 
d="M410 513h240v-700h-240v267q-12 -33 -56 -62.5t-99 -29.5q-101 0 -164 72.5t-63 196.5q0 123 63 195.5t164 72.5q55 0 99.5 -29.5t55.5 -61.5v79zM339 330q-30 0 -50.5 -21.5t-20.5 -51.5t20.5 -51.5t50.5 -21.5t50.5 21.5t20.5 51.5t-20.5 51.5t-50.5 21.5z" />
    <glyph glyph-name="r" unicode="r" horiz-adv-x="496" 
d="M496 299q-43 11 -78 11q-58 0 -93 -32t-35 -116v-162h-240v513h240v-82q19 39 58.5 66.5t93.5 27.5q32 0 54 -8v-218z" />
    <glyph glyph-name="s" unicode="s" horiz-adv-x="622" 
d="M385 326q54 -11 86.5 -20.5t64 -27t45.5 -45t14 -68.5q0 -53 -21.5 -89.5t-62 -55.5t-87.5 -27t-110 -8q-153 0 -220.5 47.5t-67.5 137.5h240q0 -48 51 -48q37 0 37 27q0 16 -20 25.5t-78 21.5q-113 25 -151 45q-73 38 -73 117q0 92 68 131t220 39q80 0 134.5 -13
t82.5 -38t39.5 -53.5t11.5 -66.5h-240q0 22 -11.5 33t-28.5 11q-36 0 -36 -27q0 -17 24.5 -26t88.5 -22z" />
    <glyph glyph-name="t" unicode="t" horiz-adv-x="447" 
d="M435 0q-57 -12 -143 -12q-39 0 -65 2.5t-56.5 13t-48.5 29.5t-30 53.5t-12 83.5v183h-70v160h70v147h240v-147h115v-160h-115v-130q0 -36 18 -51t44 -15q34 0 53 3v-160z" />
    <glyph glyph-name="u" unicode="u" horiz-adv-x="684" 
d="M634 513v-513h-240v78q-18 -42 -62 -66t-108 -24q-81 0 -125 39q-53 49 -53 183v303h240v-258q0 -70 52 -70q28 0 42 19t14 65v244h240z" />
    <glyph glyph-name="v" unicode="v" horiz-adv-x="666" 
d="M239 513l93 -289l95 289h247l-232 -513h-221l-229 513h247z" />
    <glyph glyph-name="w" unicode="w" horiz-adv-x="903" 
d="M451 226l-51 -226h-226l-177 513h239l67 -269l44 269h209l44 -269l67 269h239l-177 -513h-226z" />
    <glyph glyph-name="x" unicode="x" horiz-adv-x="651" 
d="M663 0h-278l-60 121l-59 -121h-278l192 259l-189 254h278l56 -116l57 116h278l-189 -254z" />
    <glyph glyph-name="y" unicode="y" horiz-adv-x="689" 
d="M342 -202q-84 0 -135 11.5t-88 40.5q-73 58 -73 144h240q0 -22 15 -36.5t43 -14.5q31 0 43.5 17.5t12.5 57.5v82q-38 -88 -158 -88q-84 0 -137 47q-31 29 -42 68.5t-11 104.5v281h240v-258q0 -70 52 -70q28 0 42 19t14 65v244h240v-464q0 -66 -23 -117t-60 -79
q-40 -31 -87 -43t-128 -12z" />
    <glyph glyph-name="z" unicode="z" horiz-adv-x="565" 
d="M552 513l-194 -318h174v-195h-522l196 318h-170v195h516z" />
    <glyph glyph-name="braceleft" unicode="{" horiz-adv-x="510" 
d="M470 736v-206h-37q-46 0 -71 -27t-25 -67v-55q0 -30 -11 -53t-28 -35t-32 -18.5t-28 -7.5q13 -1 28 -7.5t32 -18.5t28 -35t11 -53v-55q0 -40 25 -67t71 -27h37v-206h-161q-106 0 -159 52.5t-53 147.5v87q0 69 -77 69v226q77 0 77 69v87q0 95 53 147.5t159 52.5h161z" />
    <glyph glyph-name="bar" unicode="|" horiz-adv-x="350" 
d="M79 -202v938h192v-938h-192z" />
    <glyph glyph-name="braceright" unicode="}" horiz-adv-x="510" 
d="M201 736q106 0 159 -52.5t53 -147.5v-87q0 -69 77 -69v-226q-77 0 -77 -69v-87q0 -95 -53 -147.5t-159 -52.5h-161v206h37q46 0 71 27t25 67v55q0 56 33 83.5t66 30.5q-33 3 -66 30.5t-33 83.5v55q0 40 -25 67t-71 27h-37v206h161z" />
    <glyph glyph-name="asciitilde" unicode="~" horiz-adv-x="631" 
d="M26 366q58 59 144 59q53 0 153 -32q8 -2 36.5 -11.5t40.5 -13t31 -7.5t32 -4q71 0 142 55v-173q-58 -59 -144 -59q-58 0 -140 33q-81 35 -158 35q-66 0 -137 -55v173z" />
    <glyph glyph-name="exclamdown" unicode="&#xa1;" horiz-adv-x="395" 
d="M70 234h255v-421h-255v421zM55 394q0 55 41 94.5t100 39.5q61 0 102.5 -39.5t41.5 -94.5t-41.5 -93.5t-102.5 -38.5q-59 0 -100 39t-41 93z" />
    <glyph glyph-name="cent" unicode="&#xa2;" horiz-adv-x="658" 
d="M397 287q-12 46 -65 46q-36 0 -54 -22t-18 -55q0 -32 19 -54t55 -22q48 0 62 42h241q-10 -94 -76 -158t-179 -76v-113h-102v113q-124 14 -192 88t-68 180t68 180.5t192 88.5v116h102v-116q112 -14 178.5 -79t76.5 -159h-240z" />
    <glyph glyph-name="sterling" unicode="&#xa3;" horiz-adv-x="724" 
d="M348 386h149v-102h-149v-22q0 -47 -13 -74h348v-188h-633v160q43 46 43 102v22h-73v102h73v74q0 109 84 184.5t225 75.5q138 0 223.5 -76t85.5 -184h-255q0 24 -15 40.5t-39 16.5q-25 0 -39.5 -16.5t-14.5 -40.5v-74z" />
    <glyph glyph-name="currency" unicode="&#xa4;" horiz-adv-x="833" 
d="M510 135q-68 -38 -151 -38q-81 0 -151 40l-93 -93l-72 72l88 88q-58 74 -58 166q0 94 57 168l-87 88l72 72l91 -92q68 42 153 42q77 0 149 -43l93 93l72 -72l-89 -89q61 -74 61 -167q0 -98 -57 -169l85 -85l-72 -72zM359 297q32 0 51.5 20.5t19.5 52.5t-19.5 52.5
t-51.5 20.5t-51.5 -20.5t-19.5 -52.5t19.5 -52.5t51.5 -20.5z" />
    <glyph glyph-name="yen" unicode="&#xa5;" horiz-adv-x="730" 
d="M290 700l75 -223l75 223h300l-220 -388h87v-100h-110v-44h110v-100h-110v-68h-255v68h-110v100h110v44h-110v100h77l-219 388h300z" />
    <glyph glyph-name="brokenbar" unicode="&#xa6;" horiz-adv-x="350" 
d="M79 355v381h192v-381h-192zM271 200v-402h-192v402h192z" />
    <glyph glyph-name="section" unicode="&#xa7;" horiz-adv-x="565" 
d="M248 55q-103 38 -156.5 82.5t-53.5 122.5q0 56 23 88.5t81 58.5q-45 28 -67 63t-22 90q0 90 69 135t171 45q124 0 181 -59t57 -143h-181q0 78 -61 78q-25 0 -41 -12.5t-16 -36.5q0 -23 20.5 -39t64.5 -32q43 -15 65.5 -23.5t58.5 -27.5t54.5 -38t33 -49.5t14.5 -67.5
q0 -116 -109 -148q94 -55 94 -150q0 -96 -66.5 -149.5t-184.5 -53.5t-186.5 59.5t-68.5 166.5h185q0 -41 21 -64.5t57 -23.5q27 0 44 14.5t17 38.5q0 25 -20 38t-78 37zM386 267q0 35 -33 53q-4 2 -80 29q-81 0 -81 -60q0 -37 33 -58q9 -7 20 -12t29 -11t26 -9q30 0 58 20
t28 48z" />
    <glyph glyph-name="dieresis" unicode="&#xa8;" horiz-adv-x="557" 
d="M310 579q0 51 35 86t87 35t87.5 -35.5t35.5 -85.5q0 -48 -36 -83.5t-87 -35.5q-52 0 -87 35t-35 84zM46 579q0 50 35.5 85.5t86.5 35.5q53 0 88.5 -35t35.5 -86q0 -49 -35.5 -84t-88.5 -35q-51 0 -86.5 35.5t-35.5 83.5z" />
    <glyph glyph-name="copyright" unicode="&#xa9;" horiz-adv-x="816" 
d="M408 -20q-179 0 -283.5 108t-104.5 262t104.5 262t283.5 108q119 0 209 -52.5t134.5 -135.5t44.5 -182t-44.5 -182t-134.5 -135.5t-209 -52.5zM603 326q-9 -71 -59 -117t-136 -46q-90 0 -144 54.5t-54 132.5t53.5 132.5t143.5 54.5q86 0 137 -47t57 -117h-134
q-12 47 -59 47q-33 0 -49.5 -20t-16.5 -50q0 -31 18 -50.5t48 -19.5q52 0 60 46h135zM408 90q123 0 195.5 76.5t72.5 183.5t-72.5 183.5t-195.5 76.5t-195.5 -76.5t-72.5 -183.5t72.5 -183.5t195.5 -76.5z" />
    <glyph glyph-name="ordfeminine" unicode="&#xaa;" horiz-adv-x="700" 
d="M650 513v-513h-240v79q-12 -33 -56 -62.5t-99 -29.5q-101 0 -164 72.5t-63 196.5t63 196.5t164 72.5q55 0 99 -29.5t56 -62.5v80h240zM339 183q30 0 50.5 21.5t20.5 51.5t-20.5 51.5t-50.5 21.5t-50.5 -21.5t-20.5 -51.5t20.5 -51.5t50.5 -21.5z" />
    <glyph glyph-name="guillemotleft" unicode="&#xab;" horiz-adv-x="591" 
d="M546 43l-248 193v110l248 193v-190l-90 -58l90 -58v-190zM278 43l-248 193v110l248 193v-190l-90 -58l90 -58v-190z" />
    <glyph glyph-name="logicalnot" unicode="&#xac;" 
d="M404 313h-301v173h474v-405h-173v232z" />
    <glyph glyph-name="uni00AD" unicode="&#xad;" horiz-adv-x="362" 
d="M327 236h-292v173h292v-173z" />
    <glyph glyph-name="registered" unicode="&#xae;" horiz-adv-x="816" 
d="M408 -20q-179 0 -283.5 108t-104.5 262t104.5 262t283.5 108q119 0 209 -52.5t134.5 -135.5t44.5 -182t-44.5 -182t-134.5 -135.5t-209 -52.5zM408 90q123 0 195.5 76.5t72.5 183.5t-72.5 183.5t-195.5 76.5t-195.5 -76.5t-72.5 -183.5t72.5 -183.5t195.5 -76.5zM249 177
v364h197q62 0 101.5 -41t39.5 -99q0 -78 -62 -116l72 -108h-155l-61 85v-85h-132zM414 360q16 0 26 12t10 29q0 18 -9.5 29.5t-26.5 11.5h-33v-82h33z" />
    <glyph glyph-name="overscore" unicode="&#xaf;" horiz-adv-x="446" 
d="M417 670h-388v150h388v-150z" />
    <glyph glyph-name="degree" unicode="&#xb0;" horiz-adv-x="380" 
d="M360 574q0 -72 -49 -121t-121 -49t-121 49t-49 121t49 121t121 49t121 -49t49 -121zM231 574q0 17 -12 29.5t-29 12.5t-29 -12.5t-12 -29.5t12 -29t29 -12t29 12t12 29z" />
    <glyph glyph-name="plusminus" unicode="&#xb1;" 
d="M180 226v151h-151v173h151v150h173v-150h150v-173h-150v-151h-173zM29 0v173h474v-173h-474z" />
    <glyph glyph-name="twosuperior" unicode="&#xb2;" horiz-adv-x="438" 
d="M53 315q0 92 24 136.5t75 73.5q55 31 73 45t18 29q0 23 -19 23q-13 0 -18.5 -8.5t-5.5 -30.5h-145q0 50 38 89t129 39q68 0 114.5 -28t46.5 -90q0 -40 -21.5 -69t-72.5 -55q-8 -4 -18.5 -9t-16 -7.5t-12.5 -6t-10 -6t-6.5 -5.5t-4.5 -6.5t-1 -7.5h160v-106h-327z" />
    <glyph glyph-name="threesuperior" unicode="&#xb3;" horiz-adv-x="429" 
d="M191 446q0 -21 4.5 -30.5t18.5 -9.5q22 0 22 32q0 17 -7 23t-22 6h-54v98h53q20 0 27 6t7 21q0 30 -22 30q-14 0 -18 -9t-4 -30h-145q0 128 169 128q161 0 161 -112q0 -31 -21 -56.5t-45 -30.5q27 -7 46.5 -33.5t19.5 -62.5q0 -57 -46 -84.5t-111 -27.5q-102 0 -140 39
t-38 103h145z" />
    <glyph glyph-name="acute" unicode="&#xb4;" horiz-adv-x="393" 
d="M52 479l-41 147l330 110l41 -147z" />
    <glyph glyph-name="mu" unicode="&#xb5;" 
d="M46 513h240v-265q2 -63 52 -63q28 0 42 19t14 65v244h240v-513h-240v78q-30 -64 -108 -83v-181h-240v699z" />
    <glyph glyph-name="paragraph" unicode="&#xb6;" horiz-adv-x="702" 
d="M253 236q-99 0 -169.5 70.5t-70.5 169.5q0 100 70.5 170.5t169.5 70.5h425v-140h-60v-779h-155v779h-55v-779h-155v438z" />
    <glyph glyph-name="middot" unicode="&#xb7;" horiz-adv-x="325" 
d="M20 312q0 57 41 98t101 41q61 0 102 -40.5t41 -98.5t-41 -99t-102 -41q-60 0 -101 41t-41 99z" />
    <glyph glyph-name="cedilla" unicode="&#xb8;" horiz-adv-x="309" 
d="M45 35h95v-72q13 20 52 20q42 0 66 -30t24 -65q0 -48 -32.5 -78.5t-90.5 -30.5t-90.5 30t-32.5 76h94q0 -12 8 -20.5t21 -8.5t20.5 9t7.5 23q0 12 -7.5 20t-19.5 8q-21 0 -27 -14h-88v133z" />
    <glyph glyph-name="onesuperior" unicode="&#xb9;" horiz-adv-x="329" 
d="M45 625q60 0 82.5 18.5t22.5 56.5h119v-385h-145v219h-79v91z" />
    <glyph glyph-name="ordmasculine" unicode="&#xba;" horiz-adv-x="662" 
d="M331 -15q-147 0 -229 77t-82 194q0 118 82 195t229 77t229 -77t82 -195q0 -117 -82 -194t-229 -77zM331 183q32 0 51.5 20.5t19.5 52.5t-19.5 52.5t-51.5 20.5t-51.5 -20.5t-19.5 -52.5t19.5 -52.5t51.5 -20.5z" />
    <glyph glyph-name="guillemotright" unicode="&#xbb;" horiz-adv-x="591" 
d="M45 233l90 58l-90 58v190l248 -193v-110l-248 -193v190zM313 233l90 58l-90 58v190l248 -193v-110l-248 -193v190z" />
    <glyph glyph-name="onequarter" unicode="&#xbc;" horiz-adv-x="965" 
d="M25 625q60 0 82.5 18.5t22.5 56.5h119v-385h-145v219h-79v91zM763 86h-183v299h145v-184h38v87h144v-87h33v-115h-33v-86h-144v86zM511 759l142 -61l-325 -756l-142 61z" />
    <glyph glyph-name="onehalf" unicode="&#xbd;" horiz-adv-x="965" 
d="M42 625q60 0 82.5 18.5t22.5 56.5h119v-385h-145v219h-79v91zM593 0q0 92 24 136.5t75 73.5q55 31 73 45t18 29q0 23 -19 23q-13 0 -18.5 -8.5t-5.5 -30.5h-145q0 50 38 89t129 39q68 0 114.5 -28t46.5 -90q0 -40 -21.5 -69t-72.5 -55q-8 -4 -18.5 -9t-16 -7.5t-12.5 -6
t-10 -6t-6.5 -5.5t-4.5 -6.5t-1 -7.5h160v-106h-327zM528 759l142 -61l-325 -756l-142 61z" />
    <glyph glyph-name="threequarters" unicode="&#xbe;" horiz-adv-x="965" 
d="M154 446q0 -21 4.5 -30.5t18.5 -9.5q22 0 22 32q0 17 -7 23t-22 6h-54v98h53q20 0 27 6t7 21q0 30 -22 30q-14 0 -18 -9t-4 -30h-145q0 128 169 128q161 0 161 -112q0 -31 -21 -56.5t-45 -30.5q27 -7 46.5 -33.5t19.5 -62.5q0 -57 -46 -84.5t-111 -27.5q-102 0 -140 39
t-38 103h145zM779 86h-183v299h145v-184h38v87h144v-87h33v-115h-33v-86h-144v86zM549 759l142 -61l-325 -756l-142 61z" />
    <glyph glyph-name="questiondown" unicode="&#xbf;" horiz-adv-x="604" 
d="M424 242q0 -62 -23 -96.5t-84 -69.5q-32 -18 -46.5 -33.5t-14.5 -43.5q0 -39 41 -39q47 0 47 73h250q0 -32 -7.5 -61.5t-28 -61.5t-52.5 -55.5t-85.5 -38.5t-122.5 -15q-77 0 -139 18t-105.5 65t-43.5 117q0 28 6.5 52t14.5 39.5t23 31.5t23.5 23t24.5 18t19 13q1 1 6 5
t6.5 5.5l6 6t6.5 7t5.5 7t5 7.5t3.5 7.5t3 9t1 9.5h260zM153 402q0 55 41 94.5t100 39.5q61 0 102.5 -39.5t41.5 -94.5t-41.5 -93.5t-102.5 -38.5q-59 0 -100 39t-41 93z" />
    <glyph glyph-name="Agrave" unicode="&#xc0;" horiz-adv-x="837" 
d="M832 0h-287l-21 77h-221l-21 -77h-277l266 700h286zM351 252h125l-62 229zM227 824l41 147l330 -110l-41 -147z" />
    <glyph glyph-name="Aacute" unicode="&#xc1;" horiz-adv-x="837" 
d="M832 0h-287l-21 77h-221l-21 -77h-277l266 700h286zM351 252h125l-62 229zM274 721l-41 147l330 110l41 -147z" />
    <glyph glyph-name="Acircumflex" unicode="&#xc2;" horiz-adv-x="837" 
d="M832 0h-287l-21 77h-221l-21 -77h-277l266 700h286zM351 252h125l-62 229zM417 1036l228 -182l-102 -110l-126 105l-126 -105l-102 110z" />
    <glyph glyph-name="Atilde" unicode="&#xc3;" horiz-adv-x="837" 
d="M832 0h-287l-21 77h-221l-21 -77h-277l266 700h286zM351 252h125l-62 229zM498 895q55 0 95 50l86 -130q-61 -72 -164 -72q-45 0 -103 26t-81 26q-55 0 -95 -50l-86 130q61 72 164 72q45 0 103 -26t81 -26z" />
    <glyph glyph-name="Adieresis" unicode="&#xc4;" horiz-adv-x="837" 
d="M832 0h-287l-21 77h-221l-21 -77h-277l266 700h286zM351 252h125l-62 229zM423 846q0 51 35 86t87 35t87.5 -35.5t35.5 -85.5q0 -48 -36 -83.5t-87 -35.5q-52 0 -87 35t-35 84zM159 846q0 50 35.5 85.5t86.5 35.5q53 0 88.5 -35t35.5 -86q0 -49 -35.5 -84t-88.5 -35
q-51 0 -86.5 35.5t-35.5 83.5z" />
    <glyph glyph-name="Aring" unicode="&#xc5;" horiz-adv-x="837" 
d="M832 0h-287l-21 77h-221l-21 -77h-277l266 700h286zM351 252h125l-62 229zM418 1053q65 0 111 -46.5t46 -110.5t-46 -110.5t-111 -46.5t-111 46.5t-46 110.5q0 65 46 111t111 46zM418 943q-20 0 -33 -14t-13 -34q0 -17 14 -30.5t32 -13.5t32 14t14 32q0 19 -13 32.5
t-33 13.5z" />
    <glyph glyph-name="AE" unicode="&#xc6;" horiz-adv-x="990" 
d="M724 517v-83h219v-173h-219v-78h219v-183h-474v77h-161l-31 -77h-277l326 700h617v-183h-219zM469 252v229l-92 -229h92z" />
    <glyph glyph-name="Ccedilla" unicode="&#xc7;" horiz-adv-x="814" 
d="M527 395q-20 93 -118 93q-63 0 -96 -40t-33 -98q0 -62 35 -100t94 -38q54 0 84 25.5t37 64.5h266q-15 -127 -101 -216t-231 -103v-33q13 20 52 20q42 0 66 -30t24 -65q0 -48 -32.5 -78.5t-90.5 -30.5t-90.5 30t-32.5 76h94q0 -12 8 -20.5t21 -8.5t20.5 9t7.5 23
q0 12 -7.5 20t-19.5 8q-21 0 -27 -14h-88v93q-160 14 -254.5 119.5t-94.5 248.5q0 153 105.5 261.5t282.5 108.5q169 0 270.5 -92.5t114.5 -232.5h-266z" />
    <glyph glyph-name="Egrave" unicode="&#xc8;" horiz-adv-x="576" 
d="M310 517v-83h219v-173h-219v-78h219v-183h-474v700h474v-183h-219zM106 832l41 147l330 -110l-41 -147z" />
    <glyph glyph-name="Eacute" unicode="&#xc9;" horiz-adv-x="576" 
d="M310 517v-83h219v-173h-219v-78h219v-183h-474v700h474v-183h-219zM149 722l-41 147l330 110l41 -147z" />
    <glyph glyph-name="Ecircumflex" unicode="&#xca;" horiz-adv-x="576" 
d="M310 517v-83h219v-173h-219v-78h219v-183h-474v700h474v-183h-219zM292 1036l228 -182l-102 -110l-126 105l-126 -105l-102 110z" />
    <glyph glyph-name="Edieresis" unicode="&#xcb;" horiz-adv-x="576" 
d="M310 517v-83h219v-173h-219v-78h219v-183h-474v700h474v-183h-219zM301 846q0 51 35 86t87 35t87.5 -35.5t35.5 -85.5q0 -48 -36 -83.5t-87 -35.5q-52 0 -87 35t-35 84zM37 846q0 50 35.5 85.5t86.5 35.5q53 0 88.5 -35t35.5 -86q0 -49 -35.5 -84t-88.5 -35
q-51 0 -86.5 35.5t-35.5 83.5z" />
    <glyph glyph-name="Igrave" unicode="&#xcc;" horiz-adv-x="365" 
d="M55 700h255v-700h-255v700zM-3 832l41 147l330 -110l-41 -147z" />
    <glyph glyph-name="Iacute" unicode="&#xcd;" horiz-adv-x="365" 
d="M55 700h255v-700h-255v700zM38 721l-41 147l330 110l41 -147z" />
    <glyph glyph-name="Icircumflex" unicode="&#xce;" horiz-adv-x="365" 
d="M55 700h255v-700h-255v700zM184 1036l228 -182l-102 -110l-126 105l-126 -105l-102 110z" />
    <glyph glyph-name="Idieresis" unicode="&#xcf;" horiz-adv-x="365" 
d="M55 700h255v-700h-255v700zM201 846q0 51 35 86t87 35t87.5 -35.5t35.5 -85.5q0 -48 -36 -83.5t-87 -35.5q-52 0 -87 35t-35 84zM-63 846q0 50 35.5 85.5t86.5 35.5q53 0 88.5 -35t35.5 -86q0 -49 -35.5 -84t-88.5 -35q-51 0 -86.5 35.5t-35.5 83.5z" />
    <glyph glyph-name="Eth" unicode="&#xd0;" horiz-adv-x="758" 
d="M371 700q167 0 267 -102.5t100 -247.5t-99 -247.5t-268 -102.5h-316v298h-65v102h65v300h316zM378 298h-68v-85h38q58 0 94 40t36 97t-36 97t-94 40h-38v-87h68v-102z" />
    <glyph glyph-name="Ntilde" unicode="&#xd1;" horiz-adv-x="824" 
d="M514 327v373h255v-700h-255l-204 353v-353h-255v700h255zM486 895q55 0 95 50l86 -130q-61 -72 -164 -72q-45 0 -103 26t-81 26q-55 0 -95 -50l-86 130q61 72 164 72q45 0 103 -26t81 -26z" />
    <glyph glyph-name="Ograve" unicode="&#xd2;" horiz-adv-x="816" 
d="M408 -20q-179 0 -283.5 108t-104.5 262t104.5 262t283.5 108q119 0 209 -52.5t134.5 -135.5t44.5 -182t-44.5 -182t-134.5 -135.5t-209 -52.5zM408 213q61 0 97 40t36 97t-36 97t-97 40t-97 -40t-36 -97t36 -97t97 -40zM222 832l41 147l330 -110l-41 -147z" />
    <glyph glyph-name="Oacute" unicode="&#xd3;" horiz-adv-x="816" 
d="M408 -20q-179 0 -283.5 108t-104.5 262t104.5 262t283.5 108q119 0 209 -52.5t134.5 -135.5t44.5 -182t-44.5 -182t-134.5 -135.5t-209 -52.5zM408 213q61 0 97 40t36 97t-36 97t-97 40t-97 -40t-36 -97t36 -97t97 -40zM263 722l-41 147l330 110l41 -147z" />
    <glyph glyph-name="Ocircumflex" unicode="&#xd4;" horiz-adv-x="816" 
d="M408 -20q-179 0 -283.5 108t-104.5 262t104.5 262t283.5 108q119 0 209 -52.5t134.5 -135.5t44.5 -182t-44.5 -182t-134.5 -135.5t-209 -52.5zM408 213q61 0 97 40t36 97t-36 97t-97 40t-97 -40t-36 -97t36 -97t97 -40zM409 1036l228 -182l-102 -110l-126 105l-126 -105
l-102 110z" />
    <glyph glyph-name="Otilde" unicode="&#xd5;" horiz-adv-x="816" 
d="M408 -20q-179 0 -283.5 108t-104.5 262t104.5 262t283.5 108q119 0 209 -52.5t134.5 -135.5t44.5 -182t-44.5 -182t-134.5 -135.5t-209 -52.5zM408 213q61 0 97 40t36 97t-36 97t-97 40t-97 -40t-36 -97t36 -97t97 -40zM486 895q55 0 95 50l86 -130q-61 -72 -164 -72
q-45 0 -103 26t-81 26q-55 0 -95 -50l-86 130q61 72 164 72q45 0 103 -26t81 -26z" />
    <glyph glyph-name="Odieresis" unicode="&#xd6;" horiz-adv-x="816" 
d="M408 -20q-179 0 -283.5 108t-104.5 262t104.5 262t283.5 108q119 0 209 -52.5t134.5 -135.5t44.5 -182t-44.5 -182t-134.5 -135.5t-209 -52.5zM148 851q0 50 35.5 85.5t86.5 35.5q53 0 88.5 -35t35.5 -86q0 -49 -35.5 -84t-88.5 -35q-51 0 -86.5 35.5t-35.5 83.5z
M412 851q0 51 35 86t87 35t87.5 -35.5t35.5 -85.5q0 -48 -36 -83.5t-87 -35.5q-52 0 -87 35t-35 84zM275 350q0 -57 36 -97t97 -40t97 40t36 97t-36 97t-97 40t-97 -40t-36 -97z" />
    <glyph glyph-name="multiply" unicode="&#xd7;" 
d="M446 512l122 -122l-106 -106l106 -106l-122 -122l-106 106l-107 -107l-122 122l107 107l-107 107l122 122l107 -107z" />
    <glyph glyph-name="Oslash" unicode="&#xd8;" horiz-adv-x="816" 
d="M408 -20q-57 0 -113 14l-39 -88l-92 42l37 82q-86 47 -133.5 133t-47.5 187q0 154 104.5 262t283.5 108q49 0 101 -11l37 81l92 -42l-33 -73q91 -47 141 -134.5t50 -190.5q0 -99 -44.5 -182t-134.5 -135.5t-209 -52.5zM541 350q0 60 -39 99l-107 -236h13q61 0 97 40
t36 97zM275 350q0 -54 30 -91l103 228q-61 0 -97 -40t-36 -97z" />
    <glyph glyph-name="Ugrave" unicode="&#xd9;" horiz-adv-x="690" 
d="M32 700h255v-449q0 -24 17 -41t41 -17t41 17t17 41v449h255v-452q0 -122 -83.5 -195t-229.5 -73t-229.5 73t-83.5 195v452zM159 832l41 147l330 -110l-41 -147z" />
    <glyph glyph-name="Uacute" unicode="&#xda;" horiz-adv-x="690" 
d="M32 700h255v-449q0 -24 17 -41t41 -17t41 17t17 41v449h255v-452q0 -122 -83.5 -195t-229.5 -73t-229.5 73t-83.5 195v452zM200 722l-41 147l330 110l41 -147z" />
    <glyph glyph-name="Ucircumflex" unicode="&#xdb;" horiz-adv-x="690" 
d="M32 700h255v-449q0 -24 17 -41t41 -17t41 17t17 41v449h255v-452q0 -122 -83.5 -195t-229.5 -73t-229.5 73t-83.5 195v452zM346 1036l228 -182l-102 -110l-126 105l-126 -105l-102 110z" />
    <glyph glyph-name="Udieresis" unicode="&#xdc;" horiz-adv-x="690" 
d="M32 700h255v-449q0 -24 17 -41t41 -17t41 17t17 41v449h255v-452q0 -122 -83.5 -195t-229.5 -73t-229.5 73t-83.5 195v452zM349 845q0 51 35 86t87 35t87.5 -35.5t35.5 -85.5q0 -48 -36 -83.5t-87 -35.5q-52 0 -87 35t-35 84zM85 845q0 50 35.5 85.5t86.5 35.5
q53 0 88.5 -35t35.5 -86q0 -49 -35.5 -84t-88.5 -35q-51 0 -86.5 35.5t-35.5 83.5z" />
    <glyph glyph-name="Yacute" unicode="&#xdd;" horiz-adv-x="718" 
d="M387 0h-287l111 230l-221 470h300l75 -223l84 223h285zM253 715l-41 147l330 110l41 -147z" />
    <glyph glyph-name="Thorn" unicode="&#xde;" horiz-adv-x="614" 
d="M45 700h240v-83h10q147 0 229 -77t82 -195q0 -117 -82 -194t-229 -77h-10v-74h-240v700zM285 418v-146h10q32 0 51.5 20.5t19.5 52.5t-19.5 52.5t-51.5 20.5h-10z" />
    <glyph glyph-name="germandbls" unicode="&#xdf;" horiz-adv-x="649" 
d="M292 168q13 -6 28 -6q44 0 44 60q0 29 -13 43t-32 14h-9v173h9q50 0 50 53q0 56 -42 56q-28 0 -36.5 -17.5t-8.5 -55.5v-488h-255v488q0 232 303 232q60 0 108.5 -9.5t91 -31.5t66 -63t23.5 -99q0 -56 -38 -102.5t-82 -55.5q49 -12 84.5 -62.5t35.5 -115.5
q0 -91 -51 -143.5t-153 -52.5q-70 0 -123 15v168z" />
    <glyph glyph-name="agrave" unicode="&#xe0;" horiz-adv-x="700" 
d="M650 513v-513h-240v79q-12 -33 -56 -62.5t-99 -29.5q-101 0 -164 72.5t-63 196.5t63 196.5t164 72.5q55 0 99 -29.5t56 -62.5v80h240zM339 183q30 0 50.5 21.5t20.5 51.5t-20.5 51.5t-50.5 21.5t-50.5 -21.5t-20.5 -51.5t20.5 -51.5t50.5 -21.5zM99 647l41 147l330 -110
l-41 -147z" />
    <glyph glyph-name="aacute" unicode="&#xe1;" horiz-adv-x="700" 
d="M650 513v-513h-240v79q-12 -33 -56 -62.5t-99 -29.5q-101 0 -164 72.5t-63 196.5t63 196.5t164 72.5q55 0 99 -29.5t56 -62.5v80h240zM339 183q30 0 50.5 21.5t20.5 51.5t-20.5 51.5t-50.5 21.5t-50.5 -21.5t-20.5 -51.5t20.5 -51.5t50.5 -21.5zM137 537l-41 147l330 110
l41 -147z" />
    <glyph glyph-name="acircumflex" unicode="&#xe2;" horiz-adv-x="700" 
d="M650 513v-513h-240v79q-12 -33 -56 -62.5t-99 -29.5q-101 0 -164 72.5t-63 196.5t63 196.5t164 72.5q55 0 99 -29.5t56 -62.5v80h240zM339 183q30 0 50.5 21.5t20.5 51.5t-20.5 51.5t-50.5 21.5t-50.5 -21.5t-20.5 -51.5t20.5 -51.5t50.5 -21.5zM374 846l228 -182
l-102 -110l-126 105l-126 -105l-102 110z" />
    <glyph glyph-name="atilde" unicode="&#xe3;" horiz-adv-x="700" 
d="M650 513v-513h-240v79q-12 -33 -56 -62.5t-99 -29.5q-101 0 -164 72.5t-63 196.5t63 196.5t164 72.5q55 0 99 -29.5t56 -62.5v80h240zM339 183q30 0 50.5 21.5t20.5 51.5t-20.5 51.5t-50.5 21.5t-50.5 -21.5t-20.5 -51.5t20.5 -51.5t50.5 -21.5zM448 723q55 0 95 50
l86 -130q-61 -72 -164 -72q-45 0 -103 26t-81 26q-55 0 -95 -50l-86 130q61 72 164 72q45 0 103 -26t81 -26z" />
    <glyph glyph-name="adieresis" unicode="&#xe4;" horiz-adv-x="700" 
d="M410 0v79q-12 -33 -56 -62.5t-99 -29.5q-101 0 -164 72.5t-63 196.5t63 196.5t164 72.5q55 0 99 -29.5t56 -62.5v80h240v-513h-240zM339 183q30 0 50.5 21.5t20.5 51.5t-20.5 51.5t-50.5 21.5t-50.5 -21.5t-20.5 -51.5t20.5 -51.5t50.5 -21.5zM467 542q-52 0 -87 35
t-35 84q0 51 35 86t87 35t87.5 -35.5t35.5 -85.5q0 -48 -36 -83.5t-87 -35.5zM81 661q0 50 35.5 85.5t86.5 35.5q53 0 88.5 -35t35.5 -86q0 -49 -35.5 -84t-88.5 -35q-51 0 -86.5 35.5t-35.5 83.5z" />
    <glyph glyph-name="aring" unicode="&#xe5;" horiz-adv-x="700" 
d="M650 513v-513h-240v79q-12 -33 -56 -62.5t-99 -29.5q-101 0 -164 72.5t-63 196.5t63 196.5t164 72.5q55 0 99 -29.5t56 -62.5v80h240zM339 183q30 0 50.5 21.5t20.5 51.5t-20.5 51.5t-50.5 21.5t-50.5 -21.5t-20.5 -51.5t20.5 -51.5t50.5 -21.5zM361 567q-65 0 -111 46.5
t-46 110.5q0 65 46 111t111 46t111 -46.5t46 -110.5t-46 -110.5t-111 -46.5zM361 776q-22 0 -36.5 -15.5t-14.5 -37.5q0 -19 15.5 -34t35.5 -15t35.5 15.5t15.5 35.5q0 21 -15 36t-36 15z" />
    <glyph glyph-name="ae" unicode="&#xe6;" horiz-adv-x="1058" 
d="M605 513q58 15 115 15q148 0 230 -72t82 -168q0 -43 -6 -77h-376q0 -78 73 -78q27 0 46 12t23 32h230q-15 -87 -92 -139.5t-205 -52.5q-65 0 -119 15h-196v79q-12 -33 -56 -62.5t-99 -29.5q-101 0 -164 72.5t-63 196.5t63 196.5t164 72.5q55 0 99 -29.5t56 -62.5v80h195z
M339 183q30 0 50.5 21.5t20.5 51.5t-20.5 51.5t-50.5 21.5t-50.5 -21.5t-20.5 -51.5t20.5 -51.5t50.5 -21.5zM721 386q-66 0 -71 -73h142q0 34 -19 53.5t-52 19.5z" />
    <glyph glyph-name="ccedilla" unicode="&#xe7;" horiz-adv-x="658" 
d="M265 -10q-117 17 -181 90.5t-64 175.5q0 117 82 194.5t229 77.5q135 0 214 -67.5t92 -173.5h-240q-12 46 -65 46q-36 0 -54 -22t-18 -55q0 -32 19 -54t55 -22q48 0 62 42h241q-10 -98 -82.5 -163t-194.5 -73v-30q13 20 52 20q42 0 66 -30t24 -65q0 -48 -32.5 -78.5
t-90.5 -30.5t-90.5 30t-32.5 76h94q0 -12 8 -20.5t21 -8.5t20.5 9t7.5 23q0 12 -7.5 20t-19.5 8q-21 0 -27 -14h-88v95z" />
    <glyph glyph-name="egrave" unicode="&#xe8;" horiz-adv-x="669" 
d="M261 211q0 -78 73 -78q27 0 46 12t23 32h230q-15 -87 -92 -139.5t-205 -52.5q-145 0 -230 72t-85 199q0 116 80.5 194t229.5 78q148 0 230 -72t82 -168q0 -43 -6 -77h-376zM332 386q-33 0 -52 -19.5t-19 -53.5h142q0 34 -19 53.5t-52 19.5zM156 647l41 147l330 -110
l-41 -147z" />
    <glyph glyph-name="eacute" unicode="&#xe9;" horiz-adv-x="669" 
d="M261 211q0 -78 73 -78q27 0 46 12t23 32h230q-15 -87 -92 -139.5t-205 -52.5q-145 0 -230 72t-85 199q0 116 80.5 194t229.5 78q148 0 230 -72t82 -168q0 -43 -6 -77h-376zM332 386q-33 0 -52 -19.5t-19 -53.5h142q0 34 -19 53.5t-52 19.5zM177 537l-41 147l330 110
l41 -147z" />
    <glyph glyph-name="ecircumflex" unicode="&#xea;" horiz-adv-x="669" 
d="M261 211q0 -78 73 -78q27 0 46 12t23 32h230q-15 -87 -92 -139.5t-205 -52.5q-145 0 -230 72t-85 199q0 116 80.5 194t229.5 78q148 0 230 -72t82 -168q0 -43 -6 -77h-376zM332 386q-33 0 -52 -19.5t-19 -53.5h142q0 34 -19 53.5t-52 19.5zM338 846l228 -182l-102 -110
l-126 105l-126 -105l-102 110z" />
    <glyph glyph-name="edieresis" unicode="&#xeb;" horiz-adv-x="669" 
d="M261 211q0 -78 73 -78q27 0 46 12t23 32h230q-15 -87 -92 -139.5t-205 -52.5q-145 0 -230 72t-85 199q0 116 80.5 194t229.5 78q148 0 230 -72t82 -168q0 -43 -6 -77h-376zM332 386q-33 0 -52 -19.5t-19 -53.5h142q0 34 -19 53.5t-52 19.5zM336 661q0 51 35 86t87 35
t87.5 -35.5t35.5 -85.5q0 -48 -36 -83.5t-87 -35.5q-52 0 -87 35t-35 84zM72 661q0 50 35.5 85.5t86.5 35.5q53 0 88.5 -35t35.5 -86q0 -49 -35.5 -84t-88.5 -35q-51 0 -86.5 35.5t-35.5 83.5z" />
    <glyph glyph-name="igrave" unicode="&#xec;" horiz-adv-x="340" 
d="M50 513h240v-513h-240v513zM-15 647l41 147l330 -110l-41 -147z" />
    <glyph glyph-name="iacute" unicode="&#xed;" horiz-adv-x="340" 
d="M50 513h240v-513h-240v513zM26 537l-41 147l330 110l41 -147z" />
    <glyph glyph-name="icircumflex" unicode="&#xee;" horiz-adv-x="340" 
d="M50 513h240v-513h-240v513zM171 846l228 -182l-102 -110l-126 105l-126 -105l-102 110z" />
    <glyph glyph-name="idieresis" unicode="&#xef;" horiz-adv-x="340" 
d="M50 513h240v-513h-240v513zM175 661q0 51 35 86t87 35t87.5 -35.5t35.5 -85.5q0 -48 -36 -83.5t-87 -35.5q-52 0 -87 35t-35 84zM-89 661q0 50 35.5 85.5t86.5 35.5q53 0 88.5 -35t35.5 -86q0 -49 -35.5 -84t-88.5 -35q-51 0 -86.5 35.5t-35.5 83.5z" />
    <glyph glyph-name="eth" unicode="&#xf0;" horiz-adv-x="657" 
d="M325 -20q-147 0 -229 77t-82 194q0 98 57.5 170t162.5 93l-23 32l-96 -31l-31 96l68 22l-80 118h281l29 -43l83 27l31 -96l-54 -18l154 -224q40 -59 40 -146q0 -117 -82 -194t-229 -77zM325 178q32 0 51.5 20.5t19.5 52.5t-19.5 52.5t-51.5 20.5t-51.5 -20.5t-19.5 -52.5
t19.5 -52.5t51.5 -20.5z" />
    <glyph glyph-name="ntilde" unicode="&#xf1;" horiz-adv-x="684" 
d="M50 513h240v-78q18 42 62 66t108 24q81 0 125 -39q53 -49 53 -183v-303h-240v258q0 70 -52 70q-28 0 -42 -19t-14 -65v-244h-240v513zM424 723q55 0 95 50l86 -130q-61 -72 -164 -72q-45 0 -103 26t-81 26q-55 0 -95 -50l-86 130q61 72 164 72q45 0 103 -26t81 -26z" />
    <glyph glyph-name="ograve" unicode="&#xf2;" horiz-adv-x="662" 
d="M331 -15q-147 0 -229 77t-82 194q0 118 82 195t229 77t229 -77t82 -195q0 -117 -82 -194t-229 -77zM331 183q32 0 51.5 20.5t19.5 52.5t-19.5 52.5t-51.5 20.5t-51.5 -20.5t-19.5 -52.5t19.5 -52.5t51.5 -20.5zM155 647l41 147l330 -110l-41 -147z" />
    <glyph glyph-name="oacute" unicode="&#xf3;" horiz-adv-x="662" 
d="M331 -15q-147 0 -229 77t-82 194q0 118 82 195t229 77t229 -77t82 -195q0 -117 -82 -194t-229 -77zM331 183q32 0 51.5 20.5t19.5 52.5t-19.5 52.5t-51.5 20.5t-51.5 -20.5t-19.5 -52.5t19.5 -52.5t51.5 -20.5zM176 537l-41 147l330 110l41 -147z" />
    <glyph glyph-name="ocircumflex" unicode="&#xf4;" horiz-adv-x="662" 
d="M331 -15q-147 0 -229 77t-82 194q0 118 82 195t229 77t229 -77t82 -195q0 -117 -82 -194t-229 -77zM331 183q32 0 51.5 20.5t19.5 52.5t-19.5 52.5t-51.5 20.5t-51.5 -20.5t-19.5 -52.5t19.5 -52.5t51.5 -20.5zM331 846l228 -182l-102 -110l-126 105l-126 -105l-102 110z
" />
    <glyph glyph-name="otilde" unicode="&#xf5;" horiz-adv-x="662" 
d="M331 -15q-147 0 -229 77t-82 194q0 118 82 195t229 77t229 -77t82 -195q0 -117 -82 -194t-229 -77zM331 183q32 0 51.5 20.5t19.5 52.5t-19.5 52.5t-51.5 20.5t-51.5 -20.5t-19.5 -52.5t19.5 -52.5t51.5 -20.5zM417 723q55 0 95 50l86 -130q-61 -72 -164 -72
q-45 0 -103 26t-81 26q-55 0 -95 -50l-86 130q61 72 164 72q45 0 103 -26t81 -26z" />
    <glyph glyph-name="odieresis" unicode="&#xf6;" horiz-adv-x="662" 
d="M193 542q-51 0 -86.5 35.5t-35.5 83.5q0 50 35.5 85.5t86.5 35.5q53 0 88.5 -35t35.5 -86q0 -49 -35.5 -84t-88.5 -35zM335 661q0 51 35 86t87 35t87.5 -35.5t35.5 -85.5q0 -48 -36 -83.5t-87 -35.5q-52 0 -87 35t-35 84zM331 -15q-147 0 -229 77t-82 194q0 118 82 195
t229 77t229 -77t82 -195q0 -117 -82 -194t-229 -77zM331 183q32 0 51.5 20.5t19.5 52.5t-19.5 52.5t-51.5 20.5t-51.5 -20.5t-19.5 -52.5t19.5 -52.5t51.5 -20.5z" />
    <glyph glyph-name="divide" unicode="&#xf7;" 
d="M103 198v173h474v-173h-474zM216 513q0 50 34.5 80.5t86.5 30.5q54 0 88.5 -30.5t34.5 -80.5q0 -54 -33.5 -82t-89.5 -28q-52 0 -86.5 31t-34.5 79zM216 56q0 50 34.5 80.5t86.5 30.5q54 0 88.5 -30.5t34.5 -80.5q0 -54 -33.5 -82t-89.5 -28q-52 0 -86.5 31t-34.5 79z
" />
    <glyph glyph-name="oslash" unicode="&#xf8;" horiz-adv-x="662" 
d="M472 504q82 -32 126 -97.5t44 -150.5q0 -117 -82 -194t-229 -77q-49 0 -91 9l-27 -61l-49 22l24 54q-81 32 -124.5 98t-43.5 149q0 118 82 195t229 77q40 0 89 -9l29 64l49 -22zM331 183q32 0 51.5 20.5t19.5 52.5t-19 52l-57 -125h5zM260 256q0 -31 17 -51l56 124h-2
q-32 0 -51.5 -20.5t-19.5 -52.5z" />
    <glyph glyph-name="ugrave" unicode="&#xf9;" horiz-adv-x="684" 
d="M634 0h-240v78q-18 -42 -62 -66t-108 -24q-81 0 -125 39q-53 49 -53 183v303h240v-258q0 -70 52 -70q28 0 42 19t14 65v244h240v-513zM170 647l41 147l330 -110l-41 -147z" />
    <glyph glyph-name="uacute" unicode="&#xfa;" horiz-adv-x="684" 
d="M634 0h-240v78q-18 -42 -62 -66t-108 -24q-81 0 -125 39q-53 49 -53 183v303h240v-258q0 -70 52 -70q28 0 42 19t14 65v244h240v-513zM211 537l-41 147l330 110l41 -147z" />
    <glyph glyph-name="ucircumflex" unicode="&#xfb;" horiz-adv-x="684" 
d="M634 0h-240v78q-18 -42 -62 -66t-108 -24q-81 0 -125 39q-53 49 -53 183v303h240v-258q0 -70 52 -70q28 0 42 19t14 65v244h240v-513zM346 846l228 -182l-102 -110l-126 105l-126 -105l-102 110z" />
    <glyph glyph-name="udieresis" unicode="&#xfc;" horiz-adv-x="684" 
d="M634 0h-240v78q-18 -42 -62 -66t-108 -24q-81 0 -125 39q-53 49 -53 183v303h240v-258q0 -70 52 -70q28 0 42 19t14 65v244h240v-513zM340 661q0 51 35 86t87 35t87.5 -35.5t35.5 -85.5q0 -48 -36 -83.5t-87 -35.5q-52 0 -87 35t-35 84zM76 661q0 50 35.5 85.5t86.5 35.5
q53 0 88.5 -35t35.5 -86q0 -49 -35.5 -84t-88.5 -35q-51 0 -86.5 35.5t-35.5 83.5z" />
    <glyph glyph-name="yacute" unicode="&#xfd;" horiz-adv-x="689" 
d="M342 -202q-84 0 -135 11.5t-88 40.5q-73 58 -73 144h240q0 -22 15 -36.5t43 -14.5q31 0 43.5 17.5t12.5 57.5v82q-38 -88 -158 -88q-84 0 -137 47q-31 29 -42 68.5t-11 104.5v281h240v-258q0 -70 52 -70q28 0 42 19t14 65v244h240v-464q0 -66 -23 -117t-60 -79
q-40 -31 -87 -43t-128 -12zM197 537l-41 147l330 110l41 -147z" />
    <glyph glyph-name="thorn" unicode="&#xfe;" horiz-adv-x="697" 
d="M55 -187v887h240v-267q9 32 54.5 62t100.5 30q101 0 164 -72.5t63 -196.5t-63 -196.5t-164 -72.5q-55 0 -100.5 30t-54.5 62v-266h-240zM366 183q30 0 50.5 21.5t20.5 51.5t-20.5 51.5t-50.5 21.5t-50.5 -21.5t-20.5 -51.5t20.5 -51.5t50.5 -21.5z" />
    <glyph glyph-name="ydieresis" unicode="&#xff;" horiz-adv-x="689" 
d="M342 -202q-84 0 -135 11.5t-88 40.5q-73 58 -73 144h240q0 -22 15 -36.5t43 -14.5q31 0 43.5 17.5t12.5 57.5v82q-38 -88 -158 -88q-84 0 -137 47q-31 29 -42 68.5t-11 104.5v281h240v-258q0 -70 52 -70q28 0 42 19t14 65v244h240v-464q0 -66 -23 -117t-60 -79
q-40 -31 -87 -43t-128 -12zM351 661q0 51 35 86t87 35t87.5 -35.5t35.5 -85.5q0 -48 -36 -83.5t-87 -35.5q-52 0 -87 35t-35 84zM87 661q0 50 35.5 85.5t86.5 35.5q53 0 88.5 -35t35.5 -86q0 -49 -35.5 -84t-88.5 -35q-51 0 -86.5 35.5t-35.5 83.5z" />
    <glyph glyph-name="Amacron" unicode="&#x100;" horiz-adv-x="837" 
d="M832 0h-287l-21 77h-221l-21 -77h-277l266 700h286zM351 252h125l-62 229zM609 776h-388v150h388v-150z" />
    <glyph glyph-name="amacron" unicode="&#x101;" horiz-adv-x="700" 
d="M650 513v-513h-240v79q-12 -33 -56 -62.5t-99 -29.5q-101 0 -164 72.5t-63 196.5t63 196.5t164 72.5q55 0 99 -29.5t56 -62.5v80h240zM339 183q30 0 50.5 21.5t20.5 51.5t-20.5 51.5t-50.5 21.5t-50.5 -21.5t-20.5 -51.5t20.5 -51.5t50.5 -21.5zM562 586h-388v150h388
v-150z" />
    <glyph glyph-name="Abreve" unicode="&#x102;" horiz-adv-x="837" 
d="M832 0h-287l-21 77h-221l-21 -77h-277l266 700h286zM351 252h125l-62 229zM414 881q64 0 80 71h164q-14 -100 -81 -152t-163 -52t-163 52t-81 152h164q16 -71 80 -71z" />
    <glyph glyph-name="abreve" unicode="&#x103;" horiz-adv-x="700" 
d="M650 513v-513h-240v79q-12 -33 -56 -62.5t-99 -29.5q-101 0 -164 72.5t-63 196.5t63 196.5t164 72.5q55 0 99 -29.5t56 -62.5v80h240zM339 183q30 0 50.5 21.5t20.5 51.5t-20.5 51.5t-50.5 21.5t-50.5 -21.5t-20.5 -51.5t20.5 -51.5t50.5 -21.5zM366 701q64 0 80 71h164
q-14 -100 -81 -152t-163 -52t-163 52t-81 152h164q16 -71 80 -71z" />
    <glyph glyph-name="Aogonek" unicode="&#x104;" horiz-adv-x="837" 
d="M351 252h125l-62 229zM716 -197q-45 -15 -103 -15q-75 0 -111 27t-36 70q0 57 79 115l-21 77h-221l-21 -77h-277l266 700h286l275 -700h-156q-19 -14 -27.5 -21t-18.5 -22.5t-10 -34.5q0 -22 12.5 -37.5t33.5 -15.5q28 0 56 12z" />
    <glyph glyph-name="aogonek" unicode="&#x105;" horiz-adv-x="700" 
d="M650 0h-109q-19 -14 -27.5 -21t-18.5 -22.5t-10 -34.5q0 -22 12.5 -37.5t33.5 -15.5q27 0 56 12l-6 -78q-45 -15 -103 -15q-75 0 -111 27t-36 70q0 57 79 115v79q-12 -33 -56 -62.5t-99 -29.5q-101 0 -164 72.5t-63 196.5t63 196.5t164 72.5q55 0 99 -29.5t56 -62.5v80
h240v-513zM339 183q30 0 50.5 21.5t20.5 51.5t-20.5 51.5t-50.5 21.5t-50.5 -21.5t-20.5 -51.5t20.5 -51.5t50.5 -21.5z" />
    <glyph glyph-name="Cacute" unicode="&#x106;" horiz-adv-x="814" 
d="M796 302q-15 -138 -115.5 -230t-269.5 -92q-120 0 -210.5 52.5t-135.5 135.5t-45 182q0 153 105.5 261.5t282.5 108.5q169 0 270.5 -92.5t114.5 -232.5h-266q-20 93 -118 93q-63 0 -96 -40t-33 -98q0 -62 35 -100t94 -38q54 0 84 25.5t37 64.5h266zM262 721l-41 147
l330 110l41 -147z" />
    <glyph glyph-name="cacute" unicode="&#x107;" horiz-adv-x="658" 
d="M397 287q-12 46 -65 46q-36 0 -54 -22t-18 -55q0 -32 19 -54t55 -22q48 0 62 42h241q-10 -103 -90.5 -170t-215.5 -67q-147 0 -229 77t-82 194t82 194.5t229 77.5q135 0 214 -67.5t92 -173.5h-240zM184 537l-41 147l330 110l41 -147z" />
    <glyph glyph-name="Ccircumflex" unicode="&#x108;" horiz-adv-x="814" 
d="M796 302q-15 -138 -115.5 -230t-269.5 -92q-120 0 -210.5 52.5t-135.5 135.5t-45 182q0 153 105.5 261.5t282.5 108.5q169 0 270.5 -92.5t114.5 -232.5h-266q-20 93 -118 93q-63 0 -96 -40t-33 -98q0 -62 35 -100t94 -38q54 0 84 25.5t37 64.5h266zM409 1036l228 -182
l-102 -110l-126 105l-126 -105l-102 110z" />
    <glyph glyph-name="ccircumflex" unicode="&#x109;" horiz-adv-x="658" 
d="M397 287q-12 46 -65 46q-36 0 -54 -22t-18 -55q0 -32 19 -54t55 -22q48 0 62 42h241q-10 -103 -90.5 -170t-215.5 -67q-147 0 -229 77t-82 194t82 194.5t229 77.5q135 0 214 -67.5t92 -173.5h-240zM338 846l228 -182l-102 -110l-126 105l-126 -105l-102 110z" />
    <glyph glyph-name="Cdotaccent" unicode="&#x10a;" horiz-adv-x="814" 
d="M796 302q-15 -138 -115.5 -230t-269.5 -92q-120 0 -210.5 52.5t-135.5 135.5t-45 182q0 153 105.5 261.5t282.5 108.5q169 0 270.5 -92.5t114.5 -232.5h-266q-20 93 -118 93q-63 0 -96 -40t-33 -98q0 -62 35 -100t94 -38q54 0 84 25.5t37 64.5h266zM286 851
q0 50 35.5 85.5t86.5 35.5q53 0 88.5 -35t35.5 -86q0 -49 -35.5 -84t-88.5 -35q-51 0 -86.5 35.5t-35.5 83.5z" />
    <glyph glyph-name="cdotaccent" unicode="&#x10b;" horiz-adv-x="658" 
d="M397 287q-12 46 -65 46q-36 0 -54 -22t-18 -55q0 -32 19 -54t55 -22q48 0 62 42h241q-10 -103 -90.5 -170t-215.5 -67q-147 0 -229 77t-82 194t82 194.5t229 77.5q135 0 214 -67.5t92 -173.5h-240zM206 660q0 50 35.5 85.5t86.5 35.5q53 0 88.5 -35t35.5 -86
q0 -49 -35.5 -84t-88.5 -35q-51 0 -86.5 35.5t-35.5 83.5z" />
    <glyph glyph-name="Ccaron" unicode="&#x10c;" horiz-adv-x="814" 
d="M796 302q-15 -138 -115.5 -230t-269.5 -92q-120 0 -210.5 52.5t-135.5 135.5t-45 182q0 153 105.5 261.5t282.5 108.5q169 0 270.5 -92.5t114.5 -232.5h-266q-20 93 -118 93q-63 0 -96 -40t-33 -98q0 -62 35 -100t94 -38q54 0 84 25.5t37 64.5h266zM180 917l102 110
l126 -110l126 110l102 -110l-228 -182z" />
    <glyph glyph-name="ccaron" unicode="&#x10d;" horiz-adv-x="658" 
d="M397 287q-12 46 -65 46q-36 0 -54 -22t-18 -55q0 -32 19 -54t55 -22q48 0 62 42h241q-10 -103 -90.5 -170t-215.5 -67q-147 0 -229 77t-82 194t82 194.5t229 77.5q135 0 214 -67.5t92 -173.5h-240zM101 724l102 110l126 -110l126 110l102 -110l-228 -182z" />
    <glyph glyph-name="Dcaron" unicode="&#x10e;" horiz-adv-x="758" 
d="M371 700q167 0 267 -102.5t100 -247.5t-99 -247.5t-268 -102.5h-316v700h316zM310 487v-274h38q58 0 94 40t36 97t-36 97t-94 40h-38zM132 917l102 110l126 -110l126 110l102 -110l-228 -182z" />
    <glyph glyph-name="dcaron" unicode="&#x10f;" horiz-adv-x="929" 
d="M339 183q30 0 50.5 21.5t20.5 51.5t-20.5 51.5t-50.5 21.5t-50.5 -21.5t-20.5 -51.5t20.5 -51.5t50.5 -21.5zM410 700h240v-700h-240v79q-12 -33 -56 -62.5t-99 -29.5q-101 0 -164 72.5t-63 196.5t63 196.5t164 72.5q55 0 99 -29.5t56 -62.5v267zM669 606q0 56 38 95
t92 39q67 0 108.5 -47t41.5 -122q0 -145 -69.5 -209.5t-204.5 -64.5v81q77 0 119 35q35 28 40 74q-9 -11 -35 -11q-58 0 -94 38t-36 92z" />
    <glyph glyph-name="Dcroat" unicode="&#x110;" horiz-adv-x="758" 
d="M371 700q167 0 267 -102.5t100 -247.5t-99 -247.5t-268 -102.5h-316v298h-65v102h65v300h316zM378 298h-68v-85h38q58 0 94 40t36 97t-36 97t-94 40h-38v-87h68v-102z" />
    <glyph glyph-name="dslash" unicode="&#x111;" horiz-adv-x="700" 
d="M703 540h-53v-540h-240v79q-12 -33 -56 -62.5t-99 -29.5q-101 0 -164 72.5t-63 196.5t63 196.5t164 72.5q55 0 99 -29.5t56 -62.5v107h-107v102h107v58h240v-58h53v-102zM339 183q30 0 50.5 21.5t20.5 51.5t-20.5 51.5t-50.5 21.5t-50.5 -21.5t-20.5 -51.5t20.5 -51.5
t50.5 -21.5z" />
    <glyph glyph-name="Emacron" unicode="&#x112;" horiz-adv-x="576" 
d="M310 517v-83h219v-173h-219v-78h219v-183h-474v700h474v-183h-219zM494 776h-388v150h388v-150z" />
    <glyph glyph-name="emacron" unicode="&#x113;" horiz-adv-x="669" 
d="M261 211q0 -78 73 -78q27 0 46 12t23 32h230q-15 -87 -92 -139.5t-205 -52.5q-145 0 -230 72t-85 199q0 116 80.5 194t229.5 78q148 0 230 -72t82 -168q0 -43 -6 -77h-376zM332 386q-33 0 -52 -19.5t-19 -53.5h142q0 34 -19 53.5t-52 19.5zM528 586h-388v150h388v-150z
" />
    <glyph glyph-name="Ebreve" unicode="&#x114;" horiz-adv-x="576" 
d="M310 517v-83h219v-173h-219v-78h219v-183h-474v700h474v-183h-219zM294 881q64 0 80 71h164q-14 -100 -81 -152t-163 -52t-163 52t-81 152h164q16 -71 80 -71z" />
    <glyph glyph-name="ebreve" unicode="&#x115;" horiz-adv-x="669" 
d="M261 211q0 -78 73 -78q27 0 46 12t23 32h230q-15 -87 -92 -139.5t-205 -52.5q-145 0 -230 72t-85 199q0 116 80.5 194t229.5 78q148 0 230 -72t82 -168q0 -43 -6 -77h-376zM332 386q-33 0 -52 -19.5t-19 -53.5h142q0 34 -19 53.5t-52 19.5zM337 701q64 0 80 71h164
q-14 -100 -81 -152t-163 -52t-163 52t-81 152h164q16 -71 80 -71z" />
    <glyph glyph-name="Edotaccent" unicode="&#x116;" horiz-adv-x="576" 
d="M310 517v-83h219v-173h-219v-78h219v-183h-474v700h474v-183h-219zM164 851q0 50 35.5 85.5t86.5 35.5q53 0 88.5 -35t35.5 -86q0 -49 -35.5 -84t-88.5 -35q-51 0 -86.5 35.5t-35.5 83.5z" />
    <glyph glyph-name="edotaccent" unicode="&#x117;" horiz-adv-x="669" 
d="M261 211q0 -78 73 -78q27 0 46 12t23 32h230q-15 -87 -92 -139.5t-205 -52.5q-145 0 -230 72t-85 199q0 116 80.5 194t229.5 78q148 0 230 -72t82 -168q0 -43 -6 -77h-376zM332 386q-33 0 -52 -19.5t-19 -53.5h142q0 34 -19 53.5t-52 19.5zM211 660q0 50 35.5 85.5
t86.5 35.5q53 0 88.5 -35t35.5 -86q0 -49 -35.5 -84t-88.5 -35q-51 0 -86.5 35.5t-35.5 83.5z" />
    <glyph glyph-name="Eogonek" unicode="&#x118;" horiz-adv-x="576" 
d="M55 0v700h474v-183h-219v-83h219v-173h-219v-78h219v-183h-48q-19 -14 -27.5 -21t-18.5 -22.5t-10 -34.5q0 -22 12.5 -37.5t33.5 -15.5q27 0 56 12l-6 -78q-45 -15 -103 -15q-75 0 -111 27t-36 70q0 57 79 115h-295z" />
    <glyph glyph-name="eogonek" unicode="&#x119;" horiz-adv-x="669" 
d="M452 -197q-45 -15 -103 -15q-75 0 -111 27t-36 70q0 53 65 105q-116 16 -181 85t-65 181q0 116 80.5 194t229.5 78q148 0 230 -72t82 -168q0 -43 -6 -77h-376q0 -78 73 -78q27 0 46 12t23 32h230q-12 -77 -73.5 -127t-164.5 -61q-39 -30 -39 -67q0 -22 12.5 -37.5
t33.5 -15.5q28 0 56 12zM332 386q-33 0 -52 -19.5t-19 -53.5h142q0 34 -19 53.5t-52 19.5z" />
    <glyph glyph-name="Ecaron" unicode="&#x11a;" horiz-adv-x="576" 
d="M310 517v-83h219v-173h-219v-78h219v-183h-474v700h474v-183h-219zM60 917l102 110l126 -110l126 110l102 -110l-228 -182z" />
    <glyph glyph-name="ecaron" unicode="&#x11b;" horiz-adv-x="669" 
d="M261 211q0 -78 73 -78q27 0 46 12t23 32h230q-15 -87 -92 -139.5t-205 -52.5q-145 0 -230 72t-85 199q0 116 80.5 194t229.5 78q148 0 230 -72t82 -168q0 -43 -6 -77h-376zM332 386q-33 0 -52 -19.5t-19 -53.5h142q0 34 -19 53.5t-52 19.5zM113 724l102 110l126 -110
l126 110l102 -110l-228 -182z" />
    <glyph glyph-name="Gcircumflex" unicode="&#x11c;" horiz-adv-x="828" 
d="M398 407h424v-155h-62q-19 -125 -111 -198.5t-248 -73.5q-178 0 -279 104t-101 266q0 98 43 181t131 136t205 53q160 0 261.5 -81t111.5 -199h-287q-5 25 -25.5 45t-58.5 20q-61 0 -91 -46t-30 -113q0 -75 32 -118t96 -43q41 0 65.5 18t29.5 49h-106v155zM412 1036
l228 -182l-102 -110l-126 105l-126 -105l-102 110z" />
    <glyph glyph-name="gcircumflex" unicode="&#x11d;" horiz-adv-x="699" 
d="M652 54q0 -77 -22.5 -126t-70.5 -79q-80 -51 -221 -51q-155 0 -221 48q-87 63 -87 148h240q0 -19 19.5 -35t48.5 -16q33 0 53.5 19.5t20.5 55.5v72q-17 -32 -57 -53.5t-96 -21.5q-104 0 -166.5 61t-62.5 180q0 126 59 197.5t163 71.5q58 0 100 -24t60 -68v80h240v-459z
M341 329q-30 0 -50.5 -21.5t-20.5 -51.5t20.5 -51.5t50.5 -21.5t50.5 21.5t20.5 51.5t-20.5 51.5t-50.5 21.5zM362 846l228 -182l-102 -110l-126 105l-126 -105l-102 110z" />
    <glyph glyph-name="Gbreve" unicode="&#x11e;" horiz-adv-x="828" 
d="M398 407h424v-155h-62q-19 -125 -111 -198.5t-248 -73.5q-178 0 -279 104t-101 266q0 98 43 181t131 136t205 53q160 0 261.5 -81t111.5 -199h-287q-5 25 -25.5 45t-58.5 20q-61 0 -91 -46t-30 -113q0 -75 32 -118t96 -43q41 0 65.5 18t29.5 49h-106v155zM414 881
q64 0 80 71h164q-14 -100 -81 -152t-163 -52t-163 52t-81 152h164q16 -71 80 -71z" />
    <glyph glyph-name="gbreve" unicode="&#x11f;" horiz-adv-x="699" 
d="M652 54q0 -77 -22.5 -126t-70.5 -79q-80 -51 -221 -51q-155 0 -221 48q-87 63 -87 148h240q0 -19 19.5 -35t48.5 -16q33 0 53.5 19.5t20.5 55.5v72q-17 -32 -57 -53.5t-96 -21.5q-104 0 -166.5 61t-62.5 180q0 126 59 197.5t163 71.5q58 0 100 -24t60 -68v80h240v-459z
M341 329q-30 0 -50.5 -21.5t-20.5 -51.5t20.5 -51.5t50.5 -21.5t50.5 21.5t20.5 51.5t-20.5 51.5t-50.5 21.5zM366 701q64 0 80 71h164q-14 -100 -81 -152t-163 -52t-163 52t-81 152h164q16 -71 80 -71z" />
    <glyph glyph-name="Gdotaccent" unicode="&#x120;" horiz-adv-x="828" 
d="M398 407h424v-155h-62q-19 -125 -111 -198.5t-248 -73.5q-178 0 -279 104t-101 266q0 98 43 181t131 136t205 53q160 0 261.5 -81t111.5 -199h-287q-5 25 -25.5 45t-58.5 20q-61 0 -91 -46t-30 -113q0 -75 32 -118t96 -43q41 0 65.5 18t29.5 49h-106v155zM278 851
q0 50 35.5 85.5t86.5 35.5q53 0 88.5 -35t35.5 -86q0 -49 -35.5 -84t-88.5 -35q-51 0 -86.5 35.5t-35.5 83.5z" />
    <glyph glyph-name="gdotaccent" unicode="&#x121;" horiz-adv-x="699" 
d="M652 54q0 -77 -22.5 -126t-70.5 -79q-80 -51 -221 -51q-155 0 -221 48q-87 63 -87 148h240q0 -19 19.5 -35t48.5 -16q33 0 53.5 19.5t20.5 55.5v72q-17 -32 -57 -53.5t-96 -21.5q-104 0 -166.5 61t-62.5 180q0 126 59 197.5t163 71.5q58 0 100 -24t60 -68v80h240v-459z
M341 329q-30 0 -50.5 -21.5t-20.5 -51.5t20.5 -51.5t50.5 -21.5t50.5 21.5t20.5 51.5t-20.5 51.5t-50.5 21.5zM220 659q0 50 35.5 85.5t86.5 35.5q53 0 88.5 -35t35.5 -86q0 -49 -35.5 -84t-88.5 -35q-51 0 -86.5 35.5t-35.5 83.5z" />
    <glyph glyph-name="Gcommaaccent" unicode="&#x122;" horiz-adv-x="828" 
d="M398 407h424v-155h-62q-19 -125 -111 -198.5t-248 -73.5q-178 0 -279 104t-101 266q0 98 43 181t131 136t205 53q160 0 261.5 -81t111.5 -199h-287q-5 25 -25.5 45t-58.5 20q-61 0 -91 -46t-30 -113q0 -75 32 -118t96 -43q41 0 65.5 18t29.5 49h-106v155zM308 -124
q0 42 28.5 71.5t70.5 29.5q51 0 82 -35.5t31 -92.5q0 -110 -53 -158.5t-154 -48.5v62q59 0 90 26q25 19 30 56q-7 -9 -26 -9q-45 0 -72 28.5t-27 70.5z" />
    <glyph glyph-name="gcommaaccent" unicode="&#x123;" horiz-adv-x="699" 
d="M341 329q-30 0 -50.5 -21.5t-20.5 -51.5t20.5 -51.5t50.5 -21.5t50.5 21.5t20.5 51.5t-20.5 51.5t-50.5 21.5zM652 54q0 -77 -22.5 -126t-70.5 -79q-80 -51 -221 -51q-155 0 -221 48q-87 63 -87 148h240q0 -19 19.5 -35t48.5 -16q33 0 53.5 19.5t20.5 55.5v72
q-17 -32 -57 -53.5t-96 -21.5q-104 0 -166.5 61t-62.5 180q0 126 59 197.5t163 71.5q58 0 100 -24t60 -68v80h240v-459zM453 652q0 -49 -33 -83t-80 -34q-59 0 -95 40.5t-36 106.5q0 126 61 182.5t178 56.5v-71q-68 0 -104 -30q-30 -25 -35 -65q7 10 31 10q52 0 82.5 -32.5
t30.5 -80.5z" />
    <glyph glyph-name="Hcircumflex" unicode="&#x124;" horiz-adv-x="768" 
d="M458 243h-148v-243h-255v700h255v-248h148v248h255v-700h-255v243zM385 1036l228 -182l-102 -110l-126 105l-126 -105l-102 110z" />
    <glyph glyph-name="hcircumflex" unicode="&#x125;" horiz-adv-x="654" 
d="M50 700h225v-265q19 40 61 65t102 25q73 0 115 -37q55 -51 55 -188v-300h-225v258q0 70 -52 70q-28 0 -42 -19t-14 -65v-244h-225v700zM327 1009l228 -182l-102 -110l-126 105l-126 -105l-102 110z" />
    <glyph glyph-name="Hbar" unicode="&#x126;" horiz-adv-x="768" 
d="M458 525h-148v-73h148v73zM310 700v-73h148v73h255v-700h-255v243h-148v-243h-255v700h255z" />
    <glyph glyph-name="hbar" unicode="&#x127;" horiz-adv-x="654" 
d="M397 540h-122v-105q19 40 61 65t102 25q73 0 115 -37q55 -51 55 -188v-300h-225v258q0 70 -52 70q-28 0 -42 -19t-14 -65v-244h-225v540h-53v102h53v58h225v-58h122v-102z" />
    <glyph glyph-name="Itilde" unicode="&#x128;" horiz-adv-x="365" 
d="M55 700h255v-700h-255v700zM266 895q55 0 95 50l86 -130q-61 -72 -164 -72q-45 0 -103 26t-81 26q-55 0 -95 -50l-86 130q61 72 164 72q45 0 103 -26t81 -26z" />
    <glyph glyph-name="itilde" unicode="&#x129;" horiz-adv-x="340" 
d="M50 513h240v-513h-240v513zM246 723q55 0 95 50l86 -130q-61 -72 -164 -72q-45 0 -103 26t-81 26q-55 0 -95 -50l-86 130q61 72 164 72q45 0 103 -26t81 -26z" />
    <glyph glyph-name="Imacron" unicode="&#x12a;" horiz-adv-x="365" 
d="M55 700h255v-700h-255v700zM377 776h-388v150h388v-150z" />
    <glyph glyph-name="imacron" unicode="&#x12b;" horiz-adv-x="340" 
d="M50 513h240v-513h-240v513zM364 586h-388v150h388v-150z" />
    <glyph glyph-name="Ibreve" unicode="&#x12c;" horiz-adv-x="365" 
d="M55 700h255v-700h-255v700zM183 881q64 0 80 71h164q-14 -100 -81 -152t-163 -52t-163 52t-81 152h164q16 -71 80 -71z" />
    <glyph glyph-name="ibreve" unicode="&#x12d;" horiz-adv-x="340" 
d="M50 513h240v-513h-240v513zM170 701q64 0 80 71h164q-14 -100 -81 -152t-163 -52t-163 52t-81 152h164q16 -71 80 -71z" />
    <glyph glyph-name="Iogonek" unicode="&#x12e;" horiz-adv-x="365" 
d="M310 0h-52q-19 -14 -27.5 -21t-18.5 -22.5t-10 -34.5q0 -22 12.5 -37.5t33.5 -15.5q28 0 56 12l-6 -78q-45 -15 -103 -15q-75 0 -111 27t-36 70q0 57 79 115h-72v700h255v-700z" />
    <glyph glyph-name="iogonek" unicode="&#x12f;" horiz-adv-x="340" 
d="M280 -197q-45 -15 -103 -15q-75 0 -111 27t-36 70q0 57 79 115h-59v513h240v-513h-50q-19 -14 -27.5 -21t-18.5 -22.5t-10 -34.5q0 -22 12.5 -37.5t33.5 -15.5q28 0 56 12zM36 662q0 54 38 88t95 34q59 0 97 -34t38 -88q0 -59 -37 -90t-98 -31q-57 0 -95 34t-38 87z" />
    <glyph glyph-name="Idot" unicode="&#x130;" horiz-adv-x="365" 
d="M55 700h255v-700h-255v700zM59 853q0 50 35.5 85.5t86.5 35.5q53 0 88.5 -35t35.5 -86q0 -49 -35.5 -84t-88.5 -35q-51 0 -86.5 35.5t-35.5 83.5z" />
    <glyph glyph-name="dotlessi" unicode="&#x131;" horiz-adv-x="298" 
d="M29 513h240v-513h-240v513z" />
    <glyph glyph-name="IJ" unicode="&#x132;" horiz-adv-x="1041" 
d="M999 268q0 -82 -21.5 -139t-64.5 -88.5t-97 -44.5t-128 -13q-157 0 -234 78t-77 208h255q0 -32 14.5 -54t41.5 -22q56 0 56 75v432h255v-432zM55 700h255v-700h-255v700z" />
    <glyph glyph-name="ij" unicode="&#x133;" 
d="M290 513v-513h-240v513h240zM630 -6q0 -61 -13 -101t-40.5 -60t-59.5 -27.5t-79 -7.5q-90 0 -141 15v160q17 -4 42 -4q51 0 51 49v495h240v-519zM36 662q0 54 38 88t95 34q59 0 97 -34t38 -88q0 -59 -37 -90t-98 -31q-57 0 -95 34t-38 87zM376 662q0 54 38 88t95 34
q59 0 97 -34t38 -88q0 -59 -37 -90t-98 -31q-57 0 -95 34t-38 87z" />
    <glyph glyph-name="Jcircumflex" unicode="&#x134;" horiz-adv-x="676" 
d="M634 268q0 -82 -21.5 -139t-64.5 -88.5t-97 -44.5t-128 -13q-157 0 -234 78t-77 208h255q0 -32 14.5 -54t41.5 -22q56 0 56 75v432h255v-432zM507 1036l228 -182l-102 -110l-126 105l-126 -105l-102 110z" />
    <glyph glyph-name="jcircumflex" unicode="&#x135;" horiz-adv-x="340" 
d="M290 -6q0 -61 -13 -101t-40.5 -60t-59.5 -27.5t-79 -7.5q-90 0 -141 15v160q17 -4 42 -4q51 0 51 49v495h240v-519zM165 846l228 -182l-102 -110l-126 105l-126 -105l-102 110z" />
    <glyph glyph-name="Kcommaaccent" unicode="&#x136;" horiz-adv-x="762" 
d="M470 0l-160 274v-274h-255v700h255v-275l160 275h295l-238 -350l238 -350h-295zM275 -116q0 42 28.5 71.5t70.5 29.5q51 0 82 -35.5t31 -92.5q0 -110 -53 -158.5t-154 -48.5v62q59 0 90 26q25 19 30 56q-7 -9 -26 -9q-45 0 -72 28.5t-27 70.5z" />
    <glyph glyph-name="kcommaaccent" unicode="&#x137;" horiz-adv-x="665" 
d="M668 513l-174 -257l173 -256h-275l-102 196v-196h-240v700h240v-385l104 198h274zM226 -116q0 42 28.5 71.5t70.5 29.5q51 0 82 -35.5t31 -92.5q0 -110 -53 -158.5t-154 -48.5v62q59 0 90 26q25 19 30 56q-7 -9 -26 -9q-45 0 -72 28.5t-27 70.5z" />
    <glyph glyph-name="kgreenlandic" unicode="&#x138;" horiz-adv-x="665" 
d="M494 256l173 -256h-275l-102 196v-196h-240v513h240v-198l104 198h274z" />
    <glyph glyph-name="Lacute" unicode="&#x139;" horiz-adv-x="501" 
d="M476 215v-215h-421v700h255v-485h166zM36 722l-41 147l330 110l41 -147z" />
    <glyph glyph-name="lacute" unicode="&#x13a;" horiz-adv-x="340" 
d="M50 700h240v-700h-240v700zM26 740l-41 147l330 110l41 -147z" />
    <glyph glyph-name="Lcommaaccent" unicode="&#x13b;" horiz-adv-x="501" 
d="M55 700h255v-485h166v-215h-421v700zM144 -116q0 42 28.5 71.5t70.5 29.5q51 0 82 -35.5t31 -92.5q0 -110 -53 -158.5t-154 -48.5v62q59 0 90 26q25 19 30 56q-7 -9 -26 -9q-45 0 -72 28.5t-27 70.5z" />
    <glyph glyph-name="lcommaaccent" unicode="&#x13c;" horiz-adv-x="340" 
d="M50 700h240v-700h-240v700zM64 -116q0 42 28.5 71.5t70.5 29.5q51 0 82 -35.5t31 -92.5q0 -110 -53 -158.5t-154 -48.5v62q59 0 90 26q25 19 30 56q-7 -9 -26 -9q-45 0 -72 28.5t-27 70.5z" />
    <glyph glyph-name="Lcaron" unicode="&#x13d;" horiz-adv-x="501" 
d="M476 215v-215h-421v700h255v-485h166zM359 606q0 56 38 95t92 39q67 0 108.5 -47t41.5 -122q0 -145 -69.5 -209.5t-204.5 -64.5v81q77 0 119 35q35 28 40 74q-9 -11 -35 -11q-58 0 -94 38t-36 92z" />
    <glyph glyph-name="lcaron" unicode="&#x13e;" horiz-adv-x="669" 
d="M50 700h240v-700h-240v700zM359 606q0 56 38 95t92 39q67 0 108.5 -47t41.5 -122q0 -145 -69.5 -209.5t-204.5 -64.5v81q77 0 119 35q35 28 40 74q-9 -11 -35 -11q-58 0 -94 38t-36 92z" />
    <glyph glyph-name="Ldot" unicode="&#x13f;" horiz-adv-x="575" 
d="M476 215v-215h-421v700h255v-485h166zM348 437q0 57 41 98t101 41q61 0 102 -40.5t41 -98.5t-41 -99t-102 -41q-60 0 -101 41t-41 99z" />
    <glyph glyph-name="ldot" unicode="&#x140;" horiz-adv-x="595" 
d="M50 700h240v-700h-240v700zM310 336q0 57 41 98t101 41q61 0 102 -40.5t41 -98.5t-41 -99t-102 -41q-60 0 -101 41t-41 99z" />
    <glyph glyph-name="Lslash" unicode="&#x141;" horiz-adv-x="510" 
d="M485 215v-215h-421v259l-38 -22v108l38 22v333h255v-202l78 46v-108l-78 -46v-175h166z" />
    <glyph glyph-name="lslash" unicode="&#x142;" horiz-adv-x="361" 
d="M51 256l-56 -28v117l56 28v327h255v-221l60 30v-117l-60 -30v-362h-255v256z" />
    <glyph glyph-name="Nacute" unicode="&#x143;" horiz-adv-x="824" 
d="M514 327v373h255v-700h-255l-204 353v-353h-255v700h255zM267 722l-41 147l330 110l41 -147z" />
    <glyph glyph-name="nacute" unicode="&#x144;" horiz-adv-x="684" 
d="M50 513h240v-78q18 42 62 66t108 24q81 0 125 -39q53 -49 53 -183v-303h-240v258q0 70 -52 70q-28 0 -42 -19t-14 -65v-244h-240v513zM197 537l-41 147l330 110l41 -147z" />
    <glyph glyph-name="Ncommaaccent" unicode="&#x145;" horiz-adv-x="824" 
d="M514 0l-204 353v-353h-255v700h255l204 -373v373h255v-700h-255zM306 -116q0 42 28.5 71.5t70.5 29.5q51 0 82 -35.5t31 -92.5q0 -110 -53 -158.5t-154 -48.5v62q59 0 90 26q25 19 30 56q-7 -9 -26 -9q-45 0 -72 28.5t-27 70.5z" />
    <glyph glyph-name="ncommaaccent" unicode="&#x146;" horiz-adv-x="684" 
d="M50 0v513h240v-78q18 42 62 66t108 24q81 0 125 -39q53 -49 53 -183v-303h-240v258q0 70 -52 70q-28 0 -42 -19t-14 -65v-244h-240zM236 -116q0 42 28.5 71.5t70.5 29.5q51 0 82 -35.5t31 -92.5q0 -110 -53 -158.5t-154 -48.5v62q59 0 90 26q25 19 30 56q-7 -9 -26 -9
q-45 0 -72 28.5t-27 70.5z" />
    <glyph glyph-name="Ncaron" unicode="&#x147;" horiz-adv-x="824" 
d="M514 327v373h255v-700h-255l-204 353v-353h-255v700h255zM192 917l102 110l126 -110l126 110l102 -110l-228 -182z" />
    <glyph glyph-name="ncaron" unicode="&#x148;" horiz-adv-x="684" 
d="M50 0v513h240v-78q18 42 62 66t108 24q81 0 125 -39q53 -49 53 -183v-303h-240v258q0 70 -52 70q-28 0 -42 -19t-14 -65v-244h-240zM113 724l102 110l126 -110l126 110l102 -110l-228 -182z" />
    <glyph glyph-name="napostrophe" unicode="&#x149;" horiz-adv-x="684" 
d="M50 0v513h240v-78q18 42 62 66t108 24q81 0 125 -39q53 -49 53 -183v-303h-240v258q0 70 -52 70q-28 0 -42 -19t-14 -65v-244h-240zM-150 809q0 49 33.5 82.5t81.5 33.5q57 0 93.5 -41.5t36.5 -105.5q0 -127 -60.5 -182t-178.5 -57v72q64 0 103 29q31 26 36 64
q-7 -9 -30 -9q-52 0 -83.5 33t-31.5 81z" />
    <glyph glyph-name="Eng" unicode="&#x14a;" horiz-adv-x="824" 
d="M514 327v373h255v-661q0 -82 -21.5 -139t-64.5 -88.5t-97 -44.5t-128 -13q-106 0 -175 69l131 157q31 -16 44 -16q43 0 52 42l-200 347v-353h-255v700h255z" />
    <glyph glyph-name="eng" unicode="&#x14b;" horiz-adv-x="684" 
d="M343 -26q7 -3 22 -3q28 0 33 41v246q0 70 -52 70q-28 0 -42 -19t-14 -65v-244h-240v513h240v-78q18 42 62 66t108 24q81 0 125 -39q53 -49 53 -183v-309q0 -61 -13 -101t-40.5 -60t-59.5 -27.5t-79 -7.5q-89 0 -138 26z" />
    <glyph glyph-name="Omacron" unicode="&#x14c;" horiz-adv-x="816" 
d="M408 -20q-179 0 -283.5 108t-104.5 262t104.5 262t283.5 108q119 0 209 -52.5t134.5 -135.5t44.5 -182t-44.5 -182t-134.5 -135.5t-209 -52.5zM408 213q61 0 97 40t36 97t-36 97t-97 40t-97 -40t-36 -97t36 -97t97 -40zM602 776h-388v150h388v-150z" />
    <glyph glyph-name="omacron" unicode="&#x14d;" horiz-adv-x="662" 
d="M331 -15q-147 0 -229 77t-82 194q0 118 82 195t229 77t229 -77t82 -195q0 -117 -82 -194t-229 -77zM331 183q32 0 51.5 20.5t19.5 52.5t-19.5 52.5t-51.5 20.5t-51.5 -20.5t-19.5 -52.5t19.5 -52.5t51.5 -20.5zM525 586h-388v150h388v-150z" />
    <glyph glyph-name="Obreve" unicode="&#x14e;" horiz-adv-x="816" 
d="M408 -20q-179 0 -283.5 108t-104.5 262t104.5 262t283.5 108q119 0 209 -52.5t134.5 -135.5t44.5 -182t-44.5 -182t-134.5 -135.5t-209 -52.5zM408 213q61 0 97 40t36 97t-36 97t-97 40t-97 -40t-36 -97t36 -97t97 -40zM408 881q64 0 80 71h164q-14 -100 -81 -152
t-163 -52t-163 52t-81 152h164q16 -71 80 -71z" />
    <glyph glyph-name="obreve" unicode="&#x14f;" horiz-adv-x="662" 
d="M331 -15q-147 0 -229 77t-82 194q0 118 82 195t229 77t229 -77t82 -195q0 -117 -82 -194t-229 -77zM331 183q32 0 51.5 20.5t19.5 52.5t-19.5 52.5t-51.5 20.5t-51.5 -20.5t-19.5 -52.5t19.5 -52.5t51.5 -20.5zM331 701q64 0 80 71h164q-14 -100 -81 -152t-163 -52
t-163 52t-81 152h164q16 -71 80 -71z" />
    <glyph glyph-name="Ohungarumlaut" unicode="&#x150;" horiz-adv-x="816" 
d="M408 -20q-179 0 -283.5 108t-104.5 262t104.5 262t283.5 108q119 0 209 -52.5t134.5 -135.5t44.5 -182t-44.5 -182t-134.5 -135.5t-209 -52.5zM408 213q61 0 97 40t36 97t-36 97t-97 40t-97 -40t-36 -97t36 -97t97 -40zM505 997l126 -88l-169 -146l-82 28zM185 791
l125 206l126 -88l-169 -146z" />
    <glyph glyph-name="ohungarumlaut" unicode="&#x151;" horiz-adv-x="662" 
d="M331 -15q-147 0 -229 77t-82 194q0 118 82 195t229 77t229 -77t82 -195q0 -117 -82 -194t-229 -77zM331 183q32 0 51.5 20.5t19.5 52.5t-19.5 52.5t-51.5 20.5t-51.5 -20.5t-19.5 -52.5t19.5 -52.5t51.5 -20.5zM263 794l126 -88l-169 -146l-82 28zM415 560l-82 28
l125 206l126 -88z" />
    <glyph glyph-name="OE" unicode="&#x152;" horiz-adv-x="1062" 
d="M796 517v-83h219v-173h-219v-78h219v-183h-472q-63 -20 -135 -20q-179 0 -283.5 108t-104.5 262t104.5 262t283.5 108q72 0 135 -20h472v-183h-219zM408 213q61 0 97 40t36 97t-36 97t-97 40t-97 -40t-36 -97t36 -97t97 -40z" />
    <glyph glyph-name="oe" unicode="&#x153;" horiz-adv-x="1051" 
d="M643 211q0 -78 73 -78q27 0 46 12t23 32h230q-15 -87 -92 -139.5t-205 -52.5q-120 0 -197 48q-76 -48 -190 -48q-147 0 -229 77t-82 194q0 118 82 195t229 77q114 0 191 -49q77 49 191 49q148 0 230 -72t82 -168q0 -43 -6 -77h-376zM714 386q-33 0 -52 -19.5t-19 -53.5
h142q0 34 -19 53.5t-52 19.5zM331 183q32 0 51.5 20.5t19.5 52.5t-19.5 52.5t-51.5 20.5t-51.5 -20.5t-19.5 -52.5t19.5 -52.5t51.5 -20.5z" />
    <glyph glyph-name="Racute" unicode="&#x154;" horiz-adv-x="743" 
d="M55 700h379q121 0 196 -78.5t75 -190.5q0 -70 -31 -129.5t-88 -95.5l141 -206h-302l-115 163v-163h-255v700zM227 722l-41 147l330 110l41 -147zM371 353q32 0 52.5 22.5t20.5 55.5t-20 55.5t-52 22.5h-62v-156h61z" />
    <glyph glyph-name="racute" unicode="&#x155;" horiz-adv-x="496" 
d="M496 299q-43 11 -78 11q-58 0 -93 -32t-35 -116v-162h-240v513h240v-82q19 39 58.5 66.5t93.5 27.5q32 0 54 -8v-218zM103 537l-41 147l330 110l41 -147z" />
    <glyph glyph-name="Rcommaaccent" unicode="&#x156;" horiz-adv-x="743" 
d="M55 700h379q121 0 196 -78.5t75 -190.5q0 -70 -31 -129.5t-88 -95.5l141 -206h-302l-115 163v-163h-255v700zM265 -116q0 42 28.5 71.5t70.5 29.5q51 0 82 -35.5t31 -92.5q0 -110 -53 -158.5t-154 -48.5v62q58 0 87 23.5t33 58.5q-7 -9 -26 -9q-45 0 -72 28.5t-27 70.5z
M310 509v-156h61q32 0 52.5 22.5t20.5 55.5t-20 55.5t-52 22.5h-62z" />
    <glyph glyph-name="rcommaaccent" unicode="&#x157;" horiz-adv-x="496" 
d="M496 299q-43 11 -78 11q-58 0 -93 -32t-35 -116v-162h-240v513h240v-82q19 39 58.5 66.5t93.5 27.5q32 0 54 -8v-218zM64 -115q0 42 28.5 71.5t70.5 29.5q51 0 82 -35.5t31 -92.5q0 -110 -53 -158.5t-154 -48.5v62q59 0 90 26q25 19 30 56q-7 -9 -26 -9q-45 0 -72 28.5
t-27 70.5z" />
    <glyph glyph-name="Rcaron" unicode="&#x158;" horiz-adv-x="743" 
d="M55 700h379q121 0 196 -78.5t75 -190.5q0 -70 -31 -129.5t-88 -95.5l141 -206h-302l-115 163v-163h-255v700zM120 917l102 110l126 -110l126 110l102 -110l-228 -182zM371 353q32 0 52.5 22.5t20.5 55.5t-20 55.5t-52 22.5h-62v-156h61z" />
    <glyph glyph-name="rcaron" unicode="&#x159;" horiz-adv-x="496" 
d="M496 299q-43 11 -78 11q-58 0 -93 -32t-35 -116v-162h-240v513h240v-82q19 39 58.5 66.5t93.5 27.5q32 0 54 -8v-218zM41 724l102 110l126 -110l126 110l102 -110l-228 -182z" />
    <glyph glyph-name="Sacute" unicode="&#x15a;" horiz-adv-x="681" 
d="M285 239q0 -36 17 -56.5t47 -20.5q46 0 46 38q0 18 -20 32t-84 39q-36 14 -55.5 22t-50.5 22.5t-48 26.5t-38 30.5t-32 38t-18.5 45.5t-7.5 56q0 56 26 98t71 65t97 34t112 11q70 0 124.5 -15t86.5 -38t52.5 -55t28 -62t7.5 -62h-255q0 39 -11 55.5t-40 16.5
q-44 0 -44 -38q0 -19 21 -35t73 -34q34 -12 43 -15.5t40 -15.5t41.5 -18t35.5 -19.5t34.5 -24t25.5 -27.5t22.5 -34t12 -39t5.5 -47q0 -110 -79.5 -171.5t-229.5 -61.5t-230.5 66.5t-80.5 192.5h255zM194 722l-41 147l330 110l41 -147z" />
    <glyph glyph-name="sacute" unicode="&#x15b;" horiz-adv-x="622" 
d="M385 326q54 -11 86.5 -20.5t64 -27t45.5 -45t14 -68.5q0 -53 -21.5 -89.5t-62 -55.5t-87.5 -27t-110 -8q-153 0 -220.5 47.5t-67.5 138.5l240 -1q0 -48 51 -48q37 0 37 27q0 16 -20 25.5t-78 21.5q-113 25 -151 45q-73 38 -73 117q0 92 68 131t220 39q80 0 134.5 -13
t82.5 -38t39.5 -53.5t11.5 -66.5h-240q0 22 -11.5 33t-28.5 11q-36 0 -36 -27q0 -17 24.5 -26t88.5 -22zM166 537l-41 147l330 110l41 -147z" />
    <glyph glyph-name="Scircumflex" unicode="&#x15c;" horiz-adv-x="681" 
d="M285 239q0 -36 17 -56.5t47 -20.5q46 0 46 38q0 18 -20 32t-84 39q-36 14 -55.5 22t-50.5 22.5t-48 26.5t-38 30.5t-32 38t-18.5 45.5t-7.5 56q0 56 26 98t71 65t97 34t112 11q70 0 124.5 -15t86.5 -38t52.5 -55t28 -62t7.5 -62h-255q0 39 -11 55.5t-40 16.5
q-44 0 -44 -38q0 -19 21 -35t73 -34q34 -12 43 -15.5t40 -15.5t41.5 -18t35.5 -19.5t34.5 -24t25.5 -27.5t22.5 -34t12 -39t5.5 -47q0 -110 -79.5 -171.5t-229.5 -61.5t-230.5 66.5t-80.5 192.5h255zM350 1036l228 -182l-102 -110l-126 105l-126 -105l-102 110z" />
    <glyph glyph-name="scircumflex" unicode="&#x15d;" horiz-adv-x="622" 
d="M385 326q54 -11 86.5 -20.5t64 -27t45.5 -45t14 -68.5q0 -53 -21.5 -89.5t-62 -55.5t-87.5 -27t-110 -8q-153 0 -220.5 47.5t-67.5 138.5l240 -1q0 -48 51 -48q37 0 37 27q0 16 -20 25.5t-78 21.5q-113 25 -151 45q-73 38 -73 117q0 92 68 131t220 39q80 0 134.5 -13
t82.5 -38t39.5 -53.5t11.5 -66.5h-240q0 22 -11.5 33t-28.5 11q-36 0 -36 -27q0 -17 24.5 -26t88.5 -22zM314 846l228 -182l-102 -110l-126 105l-126 -105l-102 110z" />
    <glyph glyph-name="Scedilla" unicode="&#x15e;" horiz-adv-x="681" 
d="M291 -18q-127 11 -194 77t-67 180h255q0 -36 17 -56.5t47 -20.5q46 0 46 38q0 18 -20 32t-84 39q-36 14 -55.5 22t-50.5 22.5t-48 26.5t-38 30.5t-32 38t-18.5 45.5t-7.5 56q0 56 26 98t71 65t97 34t112 11q70 0 124.5 -15t86.5 -38t52.5 -55t28 -62t7.5 -62h-255
q0 39 -11 55.5t-40 16.5q-44 0 -44 -38q0 -19 21 -35t73 -34q34 -12 43 -15.5t40 -15.5t41.5 -18t35.5 -19.5t34.5 -24t25.5 -27.5t22.5 -34t12 -39t5.5 -47q0 -102 -67.5 -162t-196.5 -69v-32q13 20 52 20q42 0 66 -30t24 -65q0 -48 -32.5 -78.5t-90.5 -30.5t-90.5 30
t-32.5 76h94q0 -12 8 -20.5t21 -8.5t20.5 9t7.5 23q0 12 -7.5 20t-19.5 8q-21 0 -27 -14h-88v93z" />
    <glyph glyph-name="scedilla" unicode="&#x15f;" horiz-adv-x="622" 
d="M247 -12q-117 9 -169 56t-52 127l240 -1q0 -48 51 -48q37 0 37 27q0 16 -20 25.5t-78 21.5q-113 25 -151 45q-73 38 -73 117q0 92 68 131t220 39q80 0 134.5 -13t82.5 -38t39.5 -53.5t11.5 -66.5h-240q0 22 -11.5 33t-28.5 11q-36 0 -36 -27q0 -17 24.5 -26t88.5 -22
q54 -11 86.5 -20.5t64 -27t45.5 -45t14 -68.5q0 -96 -67 -136t-186 -43v-30q13 20 52 20q42 0 66 -30t24 -65q0 -48 -32.5 -78.5t-90.5 -30.5t-90.5 30t-32.5 76h94q0 -12 8 -20.5t21 -8.5t20.5 9t7.5 23q0 12 -7.5 20t-19.5 8q-21 0 -27 -14h-88v93z" />
    <glyph glyph-name="Scaron" unicode="&#x160;" horiz-adv-x="681" 
d="M285 239q0 -36 17 -56.5t47 -20.5q46 0 46 38q0 18 -20 32t-84 39q-36 14 -55.5 22t-50.5 22.5t-48 26.5t-38 30.5t-32 38t-18.5 45.5t-7.5 56q0 56 26 98t71 65t97 34t112 11q70 0 124.5 -15t86.5 -38t52.5 -55t28 -62t7.5 -62h-255q0 39 -11 55.5t-40 16.5
q-44 0 -44 -38q0 -19 21 -35t73 -34q34 -12 43 -15.5t40 -15.5t41.5 -18t35.5 -19.5t34.5 -24t25.5 -27.5t22.5 -34t12 -39t5.5 -47q0 -110 -79.5 -171.5t-229.5 -61.5t-230.5 66.5t-80.5 192.5h255zM123 917l102 110l126 -110l126 110l102 -110l-228 -182z" />
    <glyph glyph-name="scaron" unicode="&#x161;" horiz-adv-x="622" 
d="M385 326q54 -11 86.5 -20.5t64 -27t45.5 -45t14 -68.5q0 -53 -21.5 -89.5t-62 -55.5t-87.5 -27t-110 -8q-153 0 -220.5 47.5t-67.5 137.5h240q0 -48 51 -48q37 0 37 27q0 16 -20 25.5t-78 21.5q-113 25 -151 45q-73 38 -73 117q0 92 68 131t220 39q80 0 134.5 -13
t82.5 -38t39.5 -53.5t11.5 -66.5h-240q0 22 -11.5 33t-28.5 11q-36 0 -36 -27q0 -17 24.5 -26t88.5 -22zM88 724l102 110l126 -110l126 110l102 -110l-228 -182z" />
    <glyph glyph-name="Tcommaaccent" unicode="&#x162;" horiz-adv-x="563" 
d="M154 485h-129v215h513v-215h-129v-485h-255v485zM175 -116q0 42 28.5 71.5t70.5 29.5q51 0 82 -35.5t31 -92.5q0 -110 -53 -158.5t-154 -48.5v62q58 0 87 23.5t33 58.5q-7 -9 -26 -9q-45 0 -72 28.5t-27 70.5z" />
    <glyph glyph-name="tcommaaccent" unicode="&#x163;" horiz-adv-x="447" 
d="M10 513h70v147h240v-147h115v-160h-115v-130q0 -36 18 -51t44 -15q34 0 53 3v-160q-57 -12 -143 -12q-39 0 -65 2.5t-56.5 13t-48.5 29.5t-30 53.5t-12 83.5v183h-70v160zM142 -116q0 42 28.5 71.5t70.5 29.5q51 0 82 -35.5t31 -92.5q0 -110 -53 -158.5t-154 -48.5v62
q59 0 90 26q25 19 30 56q-7 -9 -26 -9q-45 0 -72 28.5t-27 70.5z" />
    <glyph glyph-name="Tcaron" unicode="&#x164;" horiz-adv-x="563" 
d="M154 485h-129v215h513v-215h-129v-485h-255v485zM52 917l102 110l126 -110l126 110l102 -110l-228 -182z" />
    <glyph glyph-name="tcaron" unicode="&#x165;" horiz-adv-x="776" 
d="M10 513h70v147h240v-147h115v-160h-115v-130q0 -36 18 -51t44 -15q34 0 53 3v-160q-57 -12 -143 -12q-39 0 -65 2.5t-56.5 13t-48.5 29.5t-30 53.5t-12 83.5v183h-70v160zM466 606q0 56 38 95t92 39q67 0 108.5 -47t41.5 -122q0 -145 -69.5 -209.5t-204.5 -64.5v81
q77 0 119 35q35 28 40 74q-9 -11 -35 -11q-58 0 -94 38t-36 92z" />
    <glyph glyph-name="Tbar" unicode="&#x166;" horiz-adv-x="563" 
d="M475 298h-66v-298h-255v298h-67v102h67v85h-129v215h513v-215h-129v-85h66v-102z" />
    <glyph glyph-name="tbar" unicode="&#x167;" horiz-adv-x="447" 
d="M435 0q-57 -12 -143 -12q-39 0 -65 2.5t-56.5 13t-48.5 29.5t-30 53.5t-12 83.5v33h-70v102h70v48h-70v160h70v147h240v-147h115v-160h-115v-48h115v-102h-111q0 -25 18 -35.5t40 -10.5q34 0 53 3v-160z" />
    <glyph glyph-name="Utilde" unicode="&#x168;" horiz-adv-x="690" 
d="M32 700h255v-449q0 -24 17 -41t41 -17t41 17t17 41v449h255v-452q0 -122 -83.5 -195t-229.5 -73t-229.5 73t-83.5 195v452zM432 895q55 0 95 50l86 -130q-61 -72 -164 -72q-45 0 -103 26t-81 26q-55 0 -95 -50l-86 130q61 72 164 72q45 0 103 -26t81 -26z" />
    <glyph glyph-name="utilde" unicode="&#x169;" horiz-adv-x="684" 
d="M634 0h-240v78q-18 -42 -62 -66t-108 -24q-81 0 -125 39q-53 49 -53 183v303h240v-258q0 -70 52 -70q28 0 42 19t14 65v244h240v-513zM428 723q55 0 95 50l86 -130q-61 -72 -164 -72q-45 0 -103 26t-81 26q-55 0 -95 -50l-86 130q61 72 164 72q45 0 103 -26t81 -26z" />
    <glyph glyph-name="Umacron" unicode="&#x16a;" horiz-adv-x="690" 
d="M32 700h255v-449q0 -24 17 -41t41 -17t41 17t17 41v449h255v-452q0 -122 -83.5 -195t-229.5 -73t-229.5 73t-83.5 195v452zM548 776h-388v150h388v-150z" />
    <glyph glyph-name="umacron" unicode="&#x16b;" horiz-adv-x="684" 
d="M634 0h-240v78q-18 -42 -62 -66t-108 -24q-81 0 -125 39q-53 49 -53 183v303h240v-258q0 -70 52 -70q28 0 42 19t14 65v244h240v-513zM536 586h-388v150h388v-150z" />
    <glyph glyph-name="Ubreve" unicode="&#x16c;" horiz-adv-x="690" 
d="M32 700h255v-449q0 -24 17 -41t41 -17t41 17t17 41v449h255v-452q0 -122 -83.5 -195t-229.5 -73t-229.5 73t-83.5 195v452zM344 881q64 0 80 71h164q-14 -100 -81 -152t-163 -52t-163 52t-81 152h164q16 -71 80 -71z" />
    <glyph glyph-name="ubreve" unicode="&#x16d;" horiz-adv-x="684" 
d="M634 0h-240v78q-18 -42 -62 -66t-108 -24q-81 0 -125 39q-53 49 -53 183v303h240v-258q0 -70 52 -70q28 0 42 19t14 65v244h240v-513zM344 701q64 0 80 71h164q-14 -100 -81 -152t-163 -52q-97 0 -163.5 52t-80.5 152h164q16 -71 80 -71z" />
    <glyph glyph-name="Uring" unicode="&#x16e;" horiz-adv-x="690" 
d="M32 700h255v-449q0 -24 17 -41t41 -17t41 17t17 41v449h255v-452q0 -122 -83.5 -195t-229.5 -73t-229.5 73t-83.5 195v452zM345 1053q65 0 111 -46.5t46 -110.5t-46 -110.5t-111 -46.5t-111 46.5t-46 110.5q0 65 46 111t111 46zM345 943q-20 0 -33 -14t-13 -34
q0 -17 14 -30.5t32 -13.5t32 14t14 32q0 19 -13 32.5t-33 13.5z" />
    <glyph glyph-name="uring" unicode="&#x16f;" horiz-adv-x="684" 
d="M634 0h-240v78q-18 -42 -62 -66t-108 -24q-81 0 -125 39q-53 49 -53 183v303h240v-258q0 -70 52 -70q28 0 42 19t14 65v244h240v-513zM340 881q65 0 111 -46.5t46 -110.5t-46 -110.5t-111 -46.5t-111 46.5t-46 110.5q0 65 46 111t111 46zM340 776q-22 0 -36.5 -15.5
t-14.5 -37.5q0 -19 15.5 -34t35.5 -15t35.5 15.5t15.5 35.5q0 21 -15 36t-36 15z" />
    <glyph glyph-name="Uhungarumlaut" unicode="&#x170;" horiz-adv-x="690" 
d="M32 700h255v-449q0 -24 17 -41t41 -17t41 17t17 41v449h255v-452q0 -122 -83.5 -195t-229.5 -73t-229.5 73t-83.5 195v452zM442 997l126 -88l-169 -146l-82 28zM247 997l126 -88l-169 -146l-82 28z" />
    <glyph glyph-name="uhungarumlaut" unicode="&#x171;" horiz-adv-x="684" 
d="M634 513v-513h-240v78q-18 -42 -62 -66t-108 -24q-81 0 -125 39q-53 49 -53 183v303h240v-258q0 -70 52 -70q28 0 42 19t14 65v244h240zM231 560l-82 28l125 206l126 -88zM426 560l-82 28l125 206l126 -88z" />
    <glyph glyph-name="Uogonek" unicode="&#x172;" horiz-adv-x="690" 
d="M467 -197q-45 -15 -103 -15q-75 0 -111 27t-36 70q0 53 59 100q-115 16 -179.5 86.5t-64.5 176.5v452h255v-449q0 -24 17 -41t41 -17t41 17t17 41v449h255v-452q0 -109 -67 -179.5t-187 -84.5q-33 -26 -33 -62q0 -22 12.5 -37.5t33.5 -15.5q27 0 56 12z" />
    <glyph glyph-name="uogonek" unicode="&#x173;" horiz-adv-x="684" 
d="M224 -12q-81 0 -125 39q-53 49 -53 183v303h240v-258q0 -70 52 -70q28 0 42 19t14 65v244h240v-513h-109q-19 -14 -27.5 -21t-18.5 -22.5t-10 -34.5q0 -22 12.5 -37.5t33.5 -15.5q27 0 56 12l-6 -78q-45 -15 -103 -15q-75 0 -111 27t-36 70q0 57 79 115v78
q-18 -42 -62 -66t-108 -24z" />
    <glyph glyph-name="Wcircumflex" unicode="&#x174;" horiz-adv-x="1140" 
d="M570 322l-94 -322h-231l-257 700h270l106 -378l103 378h206l103 -378l106 378h270l-257 -700h-231zM570 1036l228 -182l-102 -110l-126 105l-126 -105l-102 110z" />
    <glyph glyph-name="wcircumflex" unicode="&#x175;" horiz-adv-x="903" 
d="M451 226l-51 -226h-226l-177 513h239l67 -269l44 269h209l44 -269l67 269h239l-177 -513h-226zM453 846l228 -182l-102 -110l-126 105l-126 -105l-102 110z" />
    <glyph glyph-name="Ycircumflex" unicode="&#x176;" horiz-adv-x="718" 
d="M387 0h-287l111 230l-221 470h300l75 -223l84 223h285zM367 1036l228 -182l-102 -110l-126 105l-126 -105l-102 110z" />
    <glyph glyph-name="ycircumflex" unicode="&#x177;" horiz-adv-x="689" 
d="M342 -202q-84 0 -135 11.5t-88 40.5q-73 58 -73 144h240q0 -22 15 -36.5t43 -14.5q31 0 43.5 17.5t12.5 57.5v82q-38 -88 -158 -88q-84 0 -137 47q-31 29 -42 68.5t-11 104.5v281h240v-258q0 -70 52 -70q28 0 42 19t14 65v244h240v-464q0 -66 -23 -117t-60 -79
q-40 -31 -87 -43t-128 -12zM344 846l228 -182l-102 -110l-126 105l-126 -105l-102 110z" />
    <glyph glyph-name="Ydieresis" unicode="&#x178;" horiz-adv-x="718" 
d="M387 0h-287l111 230l-221 470h300l75 -223l84 223h285zM372 846q0 51 35 86t87 35t87.5 -35.5t35.5 -85.5q0 -48 -36 -83.5t-87 -35.5q-52 0 -87 35t-35 84zM108 846q0 50 35.5 85.5t86.5 35.5q53 0 88.5 -35t35.5 -86q0 -49 -35.5 -84t-88.5 -35q-51 0 -86.5 35.5
t-35.5 83.5z" />
    <glyph glyph-name="Zacute" unicode="&#x179;" horiz-adv-x="742" 
d="M67 700h650l-302 -497h274v-203h-665l302 497h-259v203zM239 722l-41 147l330 110l41 -147z" />
    <glyph glyph-name="zacute" unicode="&#x17a;" horiz-adv-x="565" 
d="M552 513l-194 -318h174v-195h-522l196 318h-170v195h516zM138 537l-41 147l330 110l41 -147z" />
    <glyph glyph-name="Zdotaccent" unicode="&#x17b;" horiz-adv-x="742" 
d="M67 700h650l-302 -497h274v-203h-665l302 497h-259v203zM255 851q0 50 35.5 85.5t86.5 35.5q53 0 88.5 -35t35.5 -86q0 -49 -35.5 -84t-88.5 -35q-51 0 -86.5 35.5t-35.5 83.5z" />
    <glyph glyph-name="zdotaccent" unicode="&#x17c;" horiz-adv-x="565" 
d="M552 513l-194 -318h174v-195h-522l196 318h-170v195h516zM159 660q0 50 35.5 85.5t86.5 35.5q53 0 88.5 -35t35.5 -86q0 -49 -35.5 -84t-88.5 -35q-51 0 -86.5 35.5t-35.5 83.5z" />
    <glyph glyph-name="Zcaron" unicode="&#x17d;" horiz-adv-x="742" 
d="M168 917l102 110l126 -110l126 110l102 -110l-228 -182zM67 700h650l-302 -497h274v-203h-665l302 497h-259v203z" />
    <glyph glyph-name="zcaron" unicode="&#x17e;" horiz-adv-x="565" 
d="M69 724l102 110l126 -110l126 110l102 -110l-228 -182zM552 513l-194 -318h174v-195h-522l196 318h-170v195h516z" />
    <glyph glyph-name="longs" unicode="&#x17f;" horiz-adv-x="423" 
d="M411 559q-21 5 -45 5q-48 0 -48 -38v-526h-239v353h-70v160h70v11q0 61 15 101t45.5 60t65 27.5t84.5 7.5q75 0 122 -15v-146z" />
    <glyph glyph-name="florin" unicode="&#x192;" horiz-adv-x="546" 
d="M-19 -42q20 -5 44 -5q46 0 55 47l62 353h-70l28 160h70l2 11q11 61 33 101t56.5 60t70.5 27.5t85 7.5q74 0 119 -15l-26 -146q-20 5 -44 5q-46 0 -54 -38l-3 -13h93l-28 -160h-92l-63 -360q-11 -61 -33 -101t-56.5 -60t-70.5 -27.5t-85 -7.5q-74 0 -119 15z" />
    <glyph glyph-name="Aringacute" unicode="&#x1fa;" horiz-adv-x="837" 
d="M525 762q0 -34 -19 -62h51l275 -700h-287l-21 77h-221l-21 -77h-277l266 700h52q-19 28 -19 62q0 45 32.5 78t78.5 33q45 0 77.5 -33t32.5 -78zM351 252h125l-62 229zM415 795q-14 0 -23.5 -10t-9.5 -24q0 -11 10 -21t23 -10q12 0 22 10t10 23t-9 22.5t-23 9.5zM323 856
l-26 93l208 69l26 -93z" />
    <glyph glyph-name="aringacute" unicode="&#x1fb;" horiz-adv-x="700" 
d="M410 513h240v-513h-240v79q-12 -33 -56 -62.5t-99 -29.5q-101 0 -164 72.5t-63 196.5t63 196.5t164 72.5q55 0 99 -29.5t56 -62.5v80zM339 329q-30 0 -50.5 -21.5t-20.5 -51.5t20.5 -51.5t50.5 -21.5t50.5 21.5t20.5 51.5t-20.5 51.5t-50.5 21.5zM399 671q0 15 -11 26.5
t-26 11.5q-17 0 -27 -11.5t-10 -29.5q0 -14 11 -24.5t26 -10.5t26 10.5t11 27.5zM231 670q0 54 38.5 91.5t92.5 37.5q52 0 90.5 -38.5t38.5 -90.5q0 -53 -38.5 -91.5t-90.5 -38.5q-53 0 -92 38.5t-39 91.5zM195 900l274 91l33 -122l-272 -89z" />
    <glyph glyph-name="AEacute" unicode="&#x1fc;" horiz-adv-x="990" 
d="M724 517v-83h219v-173h-219v-78h219v-183h-474v77h-161l-31 -77h-277l326 700h617v-183h-219zM469 252v229l-92 -229h92zM457 722l-41 147l330 110l41 -147z" />
    <glyph glyph-name="aeacute" unicode="&#x1fd;" horiz-adv-x="1058" 
d="M605 513q58 15 115 15q148 0 230 -72t82 -168q0 -43 -6 -77h-376q0 -78 73 -78q27 0 46 12t23 32h230q-15 -87 -92 -139.5t-205 -52.5q-65 0 -119 15h-196v79q-12 -33 -56 -62.5t-99 -29.5q-101 0 -164 72.5t-63 196.5t63 196.5t164 72.5q55 0 99 -29.5t56 -62.5v80h195z
M384 537l-41 147l330 110l41 -147zM339 183q30 0 50.5 21.5t20.5 51.5t-20.5 51.5t-50.5 21.5t-50.5 -21.5t-20.5 -51.5t20.5 -51.5t50.5 -21.5zM721 386q-66 0 -71 -73h142q0 34 -19 53.5t-52 19.5z" />
    <glyph glyph-name="Oslashacute" unicode="&#x1fe;" horiz-adv-x="816" 
d="M408 -20q-57 0 -113 14l-39 -88l-92 42l37 82q-86 47 -133.5 133t-47.5 187q0 154 104.5 262t283.5 108q49 0 101 -11l37 81l92 -42l-33 -73q91 -47 141 -134.5t50 -190.5q0 -99 -44.5 -182t-134.5 -135.5t-209 -52.5zM263 722l-41 147l330 110l41 -147zM541 350
q0 60 -39 99l-107 -236h13q61 0 97 40t36 97zM408 487q-61 0 -97 -40t-36 -97q0 -54 30 -91z" />
    <glyph glyph-name="oslashacute" unicode="&#x1ff;" horiz-adv-x="662" 
d="M473 503q82 -32 125.5 -97t43.5 -150q0 -117 -82 -194t-229 -77q-48 0 -90 9l-27 -61l-49 22l24 54q-82 32 -125.5 97t-43.5 150q0 118 82 195t229 77q48 0 90 -9l29 64l49 -22zM331 183q32 0 51.5 20.5t19.5 52.5q0 30 -18 51l-57 -124h4zM260 256q0 -32 18 -52l57 125
h-4q-32 0 -51.5 -20.5t-19.5 -52.5zM186 537l-41 147l330 110l41 -147z" />
    <glyph glyph-name="Scommaaccent" unicode="&#x218;" horiz-adv-x="681" 
d="M285 239q0 -36 17 -56.5t47 -20.5q46 0 46 38q0 18 -20 32t-84 39q-36 14 -55.5 22t-50.5 22.5t-48 26.5t-38 30.5t-32 38t-18.5 45.5t-7.5 56q0 56 26 98t71 65t97 34t112 11q70 0 124.5 -15t86.5 -38t52.5 -55t28 -62t7.5 -62h-255q0 39 -11 55.5t-40 16.5
q-44 0 -44 -38q0 -19 21 -35t73 -34q34 -12 43 -15.5t40 -15.5t41.5 -18t35.5 -19.5t34.5 -24t25.5 -27.5t22.5 -34t12 -39t5.5 -47q0 -110 -79.5 -171.5t-229.5 -61.5t-230.5 66.5t-80.5 192.5h255zM242 -124q0 42 28.5 71.5t70.5 29.5q51 0 82 -35.5t31 -92.5
q0 -110 -53 -158.5t-154 -48.5v62q58 0 87 23.5t33 58.5q-7 -9 -26 -9q-45 0 -72 28.5t-27 70.5z" />
    <glyph glyph-name="scommaaccent" unicode="&#x219;" horiz-adv-x="622" 
d="M205 -121q0 42 28.5 71.5t70.5 29.5q51 0 82 -35.5t31 -92.5q0 -110 -53 -158.5t-154 -48.5v62q59 0 90 26q25 19 30 56q-7 -9 -26 -9q-45 0 -72 28.5t-27 70.5zM266 170q0 -48 51 -48q37 0 37 27q0 16 -20 25.5t-78 21.5q-113 25 -151 45q-73 38 -73 117q0 92 68 131
t220 39q80 0 134.5 -13t82.5 -38t39.5 -53.5t11.5 -66.5h-240q0 22 -11.5 33t-28.5 11q-36 0 -36 -27q0 -17 24.5 -26t88.5 -22q54 -11 86.5 -20.5t64 -27t45.5 -45t14 -68.5q0 -53 -21.5 -89.5t-62 -55.5t-87.5 -27t-110 -8q-153 0 -220.5 47.5t-67.5 138.5z" />
    <glyph glyph-name="uni021A" unicode="&#x21a;" horiz-adv-x="563" 
d="M154 485h-129v215h513v-215h-129v-485h-255v485zM175 -116q0 42 28.5 71.5t70.5 29.5q51 0 82 -35.5t31 -92.5q0 -110 -53 -158.5t-154 -48.5v62q58 0 87 23.5t33 58.5q-7 -9 -26 -9q-45 0 -72 28.5t-27 70.5z" />
    <glyph glyph-name="uni021B" unicode="&#x21b;" horiz-adv-x="447" 
d="M10 513h70v147h240v-147h115v-160h-115v-130q0 -36 18 -51t44 -15q34 0 53 3v-160q-57 -12 -143 -12q-39 0 -65 2.5t-56.5 13t-48.5 29.5t-30 53.5t-12 83.5v183h-70v160zM137 -116q0 42 28.5 71.5t70.5 29.5q51 0 82 -35.5t31 -92.5q0 -110 -53 -158.5t-154 -48.5v62
q59 0 90 26q25 19 30 56q-7 -9 -26 -9q-45 0 -72 28.5t-27 70.5z" />
    <glyph glyph-name="hsuperior" unicode="&#x2b0;" horiz-adv-x="423" 
d="M57 700h127v-145q24 50 90 50q44 0 63 -19q31 -29 31 -105v-166h-128v142q0 37 -27 37q-29 0 -29 -45v-134h-127v385z" />
    <glyph glyph-name="jsuperior" unicode="&#x2b2;" horiz-adv-x="271" 
d="M208 315q0 -65 -27 -87.5t-82 -22.5q-50 0 -79 9v90q5 -2 23 -2q29 0 29 27v270h136v-284zM64 675q0 30 21.5 51.5t53.5 21.5q33 0 54.5 -21.5t21.5 -51.5t-21.5 -51.5t-54.5 -21.5q-32 0 -53.5 21.5t-21.5 51.5z" />
    <glyph glyph-name="wsuperior" unicode="&#x2b7;" horiz-adv-x="561" 
d="M280 436l-26 -121h-129l-97 284h135l36 -148l22 148h118l23 -148l36 148h135l-98 -284h-128z" />
    <glyph glyph-name="ysuperior" unicode="&#x2b8;" horiz-adv-x="442" 
d="M221 205q-94 0 -130 24t-36 84h136q0 -27 29 -27q17 0 23.5 10.5t6.5 35.5v39q-21 -50 -94 -50q-44 0 -68 21q-30 28 -30 102v155h136v-143q0 -36 27 -36q29 0 29 44v135h136v-252q0 -82 -32.5 -112t-132.5 -30z" />
    <glyph glyph-name="circumflex" unicode="&#x2c6;" horiz-adv-x="480" 
d="M240 842l228 -182l-102 -110l-126 100l-126 -100l-102 110z" />
    <glyph glyph-name="caron" unicode="&#x2c7;" horiz-adv-x="480" 
d="M12 786l102 110l126 -100l126 100l102 -110l-228 -182z" />
    <glyph glyph-name="breve" unicode="&#x2d8;" horiz-adv-x="528" 
d="M164 852q31 -64 100 -64t100 64h164q-20 -101 -91 -152.5t-173 -51.5t-173 51.5t-91 152.5h164z" />
    <glyph glyph-name="dotaccent" unicode="&#x2d9;" horiz-adv-x="311" 
d="M32 603q0 50 35.5 85.5t86.5 35.5q53 0 88.5 -35t35.5 -86q0 -49 -35.5 -84t-88.5 -35q-51 0 -86.5 35.5t-35.5 83.5z" />
    <glyph glyph-name="ring" unicode="&#x2da;" horiz-adv-x="354" 
d="M177 869q65 0 111 -46.5t46 -110.5t-46 -110.5t-111 -46.5t-111 46.5t-46 110.5q0 65 46 111t111 46zM177 759q-20 0 -33 -14t-13 -34q0 -17 14 -30.5t32 -13.5t32 14t14 32q0 19 -13 32.5t-33 13.5z" />
    <glyph glyph-name="ogonek" unicode="&#x2db;" horiz-adv-x="294" 
d="M270 -197q-45 -15 -103 -15q-75 0 -111 27t-36 70q0 57 79 115h131q-19 -14 -27.5 -21t-18.5 -22.5t-10 -34.5q0 -22 12.5 -37.5t33.5 -15.5q28 0 56 12z" />
    <glyph glyph-name="tilde" unicode="&#x2dc;" horiz-adv-x="486" 
d="M22 662q72 38 124 38q18 0 85.5 -13.5t83.5 -13.5q33 0 96 27l52 -131q-64 -45 -131 -45q-19 0 -86.5 13t-82.5 13q-31 0 -84 -21z" />
    <glyph glyph-name="hungarumlaut" unicode="&#x2dd;" horiz-adv-x="477" 
d="M337 774l126 -88l-169 -146l-82 28zM142 774l126 -88l-169 -146l-82 28z" />
    <glyph glyph-name="xsuperior" unicode="&#x2e3;" horiz-adv-x="425" 
d="M402 315h-158l-32 66l-31 -66h-158l107 143l-105 141h157l30 -63l31 63h157l-105 -141z" />
    <glyph glyph-name="pi" unicode="&#x3c0;" 
d="M680 363h-70v-363h-240v363h-60v-363h-240v363h-70v150h680v-150z" />
    <glyph glyph-name="uni0401" unicode="&#x401;" horiz-adv-x="576" 
d="M310 517v-83h219v-173h-219v-78h219v-183h-474v700h474v-183h-219zM303 846q0 51 35 86t87 35t87.5 -35.5t35.5 -85.5q0 -48 -36 -83.5t-87 -35.5q-52 0 -87 35t-35 84zM39 846q0 50 35.5 85.5t86.5 35.5q53 0 88.5 -35t35.5 -86q0 -49 -35.5 -84t-88.5 -35
q-51 0 -86.5 35.5t-35.5 83.5z" />
    <glyph glyph-name="uni0402" unicode="&#x402;" horiz-adv-x="790" 
d="M742 -6q0 -61 -12 -101t-37.5 -60t-54.5 -27.5t-73 -7.5h-141v171h42q48 0 51 44v183q0 70 -52 70q-27 0 -40.5 -17t-15.5 -58v-191h-255v517h-129v183h513v-183h-129v-144q19 40 61 65t102 25q73 0 115 -37q55 -51 55 -188v-244z" />
    <glyph glyph-name="uni0403" unicode="&#x403;" horiz-adv-x="509" 
d="M140 722l-41 147l330 110l41 -147zM55 700h449v-215h-194v-485h-255v700z" />
    <glyph glyph-name="uni0404" unicode="&#x404;" horiz-adv-x="816" 
d="M796 302q-15 -138 -113 -230t-262 -92q-186 0 -293.5 104t-107.5 266t106.5 266t291.5 104q164 0 263 -92.5t112 -232.5h-266q-20 93 -125 93q-43 0 -73 -23t-38 -62h166v-115h-164q20 -76 109 -76q57 0 89 25.5t39 64.5h266z" />
    <glyph glyph-name="uni0405" unicode="&#x405;" horiz-adv-x="681" 
d="M285 239q0 -36 17 -56.5t47 -20.5q46 0 46 38q0 18 -20 32t-84 39q-36 14 -55.5 22t-50.5 22.5t-48 26.5t-38 30.5t-32 38t-18.5 45.5t-7.5 56q0 56 26 98t71 65t97 34t112 11q70 0 124.5 -15t86.5 -38t52.5 -55t28 -62t7.5 -62h-255q0 39 -11 55.5t-40 16.5
q-44 0 -44 -38q0 -19 21 -35t73 -34q34 -12 43 -15.5t40 -15.5t41.5 -18t35.5 -19.5t34.5 -24t25.5 -27.5t22.5 -34t12 -39t5.5 -47q0 -110 -79.5 -171.5t-229.5 -61.5t-230.5 66.5t-80.5 192.5h255z" />
    <glyph glyph-name="uni0406" unicode="&#x406;" horiz-adv-x="365" 
d="M55 700h255v-700h-255v700z" />
    <glyph glyph-name="uni0407" unicode="&#x407;" horiz-adv-x="365" 
d="M195 846q0 51 35 86t87 35t87.5 -35.5t35.5 -85.5q0 -48 -36 -83.5t-87 -35.5q-52 0 -87 35t-35 84zM-69 846q0 50 35.5 85.5t86.5 35.5q53 0 88.5 -35t35.5 -86q0 -49 -35.5 -84t-88.5 -35q-51 0 -86.5 35.5t-35.5 83.5zM55 700h255v-700h-255v700z" />
    <glyph glyph-name="uni0408" unicode="&#x408;" horiz-adv-x="676" 
d="M634 268q0 -82 -21.5 -139t-64.5 -88.5t-97 -44.5t-128 -13q-157 0 -234 78t-77 208h255q0 -32 14.5 -54t41.5 -22q56 0 56 75v432h255v-432z" />
    <glyph glyph-name="uni0409" unicode="&#x409;" horiz-adv-x="1140" 
d="M798 167q35 0 53.5 16t18.5 43q0 56 -72 56h-42v-115h42zM501 491h-143v-315q0 -61 -16.5 -101t-49 -60t-70 -27.5t-90.5 -7.5h-122v211h45q48 0 48 38v471h653v-266h169q91 0 148 -60t57 -149q0 -95 -57 -160t-148 -65h-424v491z" />
    <glyph glyph-name="uni040A" unicode="&#x40a;" horiz-adv-x="1097" 
d="M713 434h169q91 0 148 -60t57 -149q0 -95 -57 -160t-148 -65h-424v243h-148v-243h-255v700h255v-248h148v248h255v-266zM713 282v-115h42q35 0 53.5 16t18.5 43q0 56 -72 56h-42z" />
    <glyph glyph-name="uni040B" unicode="&#x40b;" horiz-adv-x="788" 
d="M409 517v-144q19 40 61 65t102 25q73 0 115 -37q55 -51 55 -188v-238h-225v196q0 70 -52 70q-27 0 -40.5 -17t-15.5 -58v-191h-255v517h-129v183h513v-183h-129z" />
    <glyph glyph-name="uni040C" unicode="&#x40c;" horiz-adv-x="768" 
d="M310 430h15q21 0 37.5 14t37.5 53l58 107q32 59 74 80t112 21h85v-220h-24q-28 0 -44.5 -9.5t-34.5 -35.5l-31 -46q-26 -37 -59 -54l227 -340h-293l-160 284v-284h-255v700h255v-270zM236 722l-41 147l330 110l41 -147z" />
    <glyph glyph-name="uni040E" unicode="&#x40e;" horiz-adv-x="718" 
d="M374 881q64 0 80 71h164q-14 -100 -81 -152t-163 -52t-163 52t-81 152h164q16 -71 80 -71zM387 0h-287l111 230l-221 470h300l75 -223l84 223h285z" />
    <glyph glyph-name="uni040F" unicode="&#x40f;" horiz-adv-x="756" 
d="M262 -112v112h-207v700h255v-491h136v491h255v-700h-208v-112h-231z" />
    <glyph glyph-name="uni0410" unicode="&#x410;" horiz-adv-x="837" 
d="M545 0l-21 77h-221l-21 -77h-277l266 700h286l275 -700h-287zM414 481l-63 -229h125z" />
    <glyph glyph-name="uni0411" unicode="&#x411;" horiz-adv-x="716" 
d="M623 517h-313v-83h169q91 0 148 -60t57 -149q0 -95 -57 -160t-148 -65h-424v700h568v-183zM310 282v-115h42q35 0 53.5 16t18.5 43q0 56 -72 56h-42z" />
    <glyph glyph-name="uni0412" unicode="&#x412;" horiz-adv-x="716" 
d="M55 700h394q55 0 97.5 -13t67 -32.5t40 -46t20.5 -50t5 -47.5q0 -59 -38.5 -103.5t-82.5 -53.5q42 -5 84 -48.5t42 -112.5q0 -32 -9.5 -62t-32.5 -61.5t-71 -50.5t-116 -19h-400v700zM310 282v-115h42q35 0 53.5 16t18.5 43q0 56 -72 56h-42zM352 434q35 0 53.5 16
t18.5 44q0 56 -72 56h-42v-116h42z" />
    <glyph glyph-name="uni0413" unicode="&#x413;" horiz-adv-x="509" 
d="M55 700h449v-215h-194v-485h-255v700z" />
    <glyph glyph-name="uni0414" unicode="&#x414;" horiz-adv-x="865" 
d="M10 -113v312h11q70 0 117 67q46 65 46 160v274h574v-500h87v-312h-231v112h-373v-112zM529 199v300h-126q0 -129 -20 -193t-80 -107h226z" />
    <glyph glyph-name="uni0415" unicode="&#x415;" horiz-adv-x="576" 
d="M310 517v-83h219v-173h-219v-78h219v-183h-474v700h474v-183h-219z" />
    <glyph glyph-name="uni0416" unicode="&#x416;" horiz-adv-x="1147" 
d="M290 0h-285l238 343q-50 17 -67 48l-30 56q-26 48 -78 48h-22v210h75q74 0 121.5 -20t75.5 -77l49 -103q23 -47 37.5 -63.5t38.5 -16.5h7v275h247v-275h7q24 0 38.5 16.5t37.5 63.5l49 103q28 57 75.5 77t121.5 20h75v-210h-22q-52 0 -78 -48l-30 -56q-17 -31 -67 -48
l238 -343h-285l-160 284v-284h-247v284z" />
    <glyph glyph-name="uni0417" unicode="&#x417;" horiz-adv-x="689" 
d="M280 238q0 -34 11 -50t42 -16q49 0 49 50q0 62 -67 62h-95v163h93q42 0 58 14t16 44q0 46 -47 46q-31 0 -40.5 -15t-9.5 -48h-270q0 232 318 232q319 0 319 -203q0 -59 -40.5 -104t-89.5 -54q54 -13 92 -60.5t38 -114.5q0 -69 -47.5 -116.5t-116 -67.5t-149.5 -20
q-100 0 -168.5 21t-103 59t-48.5 80.5t-14 97.5h270z" />
    <glyph glyph-name="uni0418" unicode="&#x418;" horiz-adv-x="790" 
d="M480 340l-170 -292v-48h-255v700h255v-340l170 292v48h255v-700h-255v340z" />
    <glyph glyph-name="uni0419" unicode="&#x419;" horiz-adv-x="790" 
d="M480 340l-170 -292v-48h-255v700h255v-340l170 292v48h255v-700h-255v340zM397 881q64 0 80 71h164q-14 -100 -81 -152t-163 -52t-163 52t-81 152h164q16 -71 80 -71z" />
    <glyph glyph-name="uni041A" unicode="&#x41a;" horiz-adv-x="768" 
d="M310 430h15q21 0 37.5 14t37.5 53l58 107q32 59 74 80t112 21h85v-220h-24q-28 0 -44.5 -9.5t-34.5 -35.5l-31 -46q-26 -37 -59 -54l227 -340h-293l-160 284v-284h-255v700h255v-270z" />
    <glyph glyph-name="uni041B" unicode="&#x41b;" horiz-adv-x="809" 
d="M10 166h45q48 0 48 38v496h651v-700h-255v491h-141v-315q0 -61 -16.5 -101t-49 -60t-70 -27.5t-90.5 -7.5h-122v186z" />
    <glyph glyph-name="uni041C" unicode="&#x41c;" horiz-adv-x="1006" 
d="M951 0h-245v435l-103 -435h-187l-116 435v-435h-245v700h342l111 -418l111 418h332v-700z" />
    <glyph glyph-name="uni041D" unicode="&#x41d;" horiz-adv-x="768" 
d="M458 243h-148v-243h-255v700h255v-248h148v248h255v-700h-255v243z" />
    <glyph glyph-name="uni041E" unicode="&#x41e;" horiz-adv-x="816" 
d="M408 -20q-179 0 -283.5 108t-104.5 262t104.5 262t283.5 108q119 0 209 -52.5t134.5 -135.5t44.5 -182t-44.5 -182t-134.5 -135.5t-209 -52.5zM408 213q61 0 97 40t36 97t-36 97t-97 40t-97 -40t-36 -97t36 -97t97 -40z" />
    <glyph glyph-name="uni041F" unicode="&#x41f;" horiz-adv-x="768" 
d="M310 491v-491h-255v700h658v-700h-255v491h-148z" />
    <glyph glyph-name="uni0420" unicode="&#x420;" horiz-adv-x="712" 
d="M55 700h378q121 0 196 -78.5t75 -190.5q0 -111 -75.5 -189.5t-195.5 -78.5h-123v-163h-255v700zM371 353q32 0 52.5 22.5t20.5 55.5t-20 55.5t-52 22.5h-62v-156h61z" />
    <glyph glyph-name="uni0421" unicode="&#x421;" horiz-adv-x="814" 
d="M796 302q-15 -138 -115.5 -230t-269.5 -92q-120 0 -210.5 52.5t-135.5 135.5t-45 182q0 153 105.5 261.5t282.5 108.5q169 0 270.5 -92.5t114.5 -232.5h-266q-20 93 -118 93q-63 0 -96 -40t-33 -98q0 -62 35 -100t94 -38q54 0 84 25.5t37 64.5h266z" />
    <glyph glyph-name="uni0422" unicode="&#x422;" horiz-adv-x="563" 
d="M154 485h-129v215h513v-215h-129v-485h-255v485z" />
    <glyph glyph-name="uni0423" unicode="&#x423;" horiz-adv-x="718" 
d="M387 0h-287l111 230l-221 470h300l75 -223l84 223h285z" />
    <glyph glyph-name="uni0424" unicode="&#x424;" horiz-adv-x="922" 
d="M573 43v-43h-224v43h-6q-150 0 -236.5 92t-86.5 218q0 123 86.5 213.5t236.5 90.5h6v43h224v-43h6q150 0 236.5 -90.5t86.5 -213.5q0 -126 -86.5 -218t-236.5 -92h-6zM349 244v212h-5q-39 0 -60.5 -27.5t-21.5 -75.5q0 -50 21.5 -79.5t60.5 -29.5h5zM573 456v-212h5
q39 0 60.5 29.5t21.5 79.5q0 48 -21.5 75.5t-60.5 27.5h-5z" />
    <glyph glyph-name="uni0425" unicode="&#x425;" horiz-adv-x="722" 
d="M441 700h276l-208 -350l208 -350h-276l-80 175l-80 -175h-276l208 350l-208 350h276l80 -175z" />
    <glyph glyph-name="uni0426" unicode="&#x426;" horiz-adv-x="817" 
d="M566 -112v112h-511v700h255v-491h135v491h255v-491h97v-321h-231z" />
    <glyph glyph-name="uni0427" unicode="&#x427;" horiz-adv-x="716" 
d="M406 0v186h-151q-105 0 -172.5 63t-67.5 162v289h255v-236q0 -59 23 -81.5t68 -22.5h45v340h255v-700h-255z" />
    <glyph glyph-name="uni0428" unicode="&#x428;" horiz-adv-x="1152" 
d="M55 0v700h252v-491h143v491h252v-491h143v491h252v-700h-1042z" />
    <glyph glyph-name="uni0429" unicode="&#x429;" horiz-adv-x="1214" 
d="M963 -112v112h-908v700h252v-491h143v491h252v-491h143v491h252v-491h97v-321h-231z" />
    <glyph glyph-name="uni042A" unicode="&#x42a;" horiz-adv-x="778" 
d="M394 282v-115h42q35 0 53.5 16t18.5 43q0 56 -72 56h-42zM10 700h384v-251h169q91 0 148 -64t57 -160q0 -95 -57 -160t-148 -65h-424v485h-129v215z" />
    <glyph glyph-name="uni042B" unicode="&#x42b;" horiz-adv-x="1024" 
d="M310 700v-251h169q91 0 148 -64t57 -160q0 -95 -57 -160t-148 -65h-424v700h255zM310 282v-115h42q35 0 53.5 16t18.5 43q0 56 -72 56h-42zM714 700h255v-700h-255v700z" />
    <glyph glyph-name="uni042C" unicode="&#x42c;" horiz-adv-x="694" 
d="M310 700v-251h169q91 0 148 -64t57 -160q0 -95 -57 -160t-148 -65h-424v700h255zM310 282v-115h42q35 0 53.5 16t18.5 43q0 56 -72 56h-42z" />
    <glyph glyph-name="uni042D" unicode="&#x42d;" horiz-adv-x="816" 
d="M359 403h166q-8 39 -38 62t-73 23q-105 0 -125 -93h-266q13 140 112 232.5t263 92.5q184 0 291 -104t107 -266t-107.5 -266t-293.5 -104q-164 0 -262 92t-113 230h266q7 -39 39 -64.5t89 -25.5q89 0 109 76h-164v115z" />
    <glyph glyph-name="uni042E" unicode="&#x42e;" horiz-adv-x="1134" 
d="M726 -20q-143 0 -237 73t-126 190h-53v-243h-255v700h255v-248h51q32 118 126.5 193t238.5 75q119 0 209 -52.5t134.5 -135.5t44.5 -182t-44.5 -182t-134.5 -135.5t-209 -52.5zM726 213q61 0 97 40t36 97t-36 97t-97 40t-97 -40t-36 -97t36 -97t97 -40z" />
    <glyph glyph-name="uni042F" unicode="&#x42f;" horiz-adv-x="743" 
d="M688 0h-255v163l-115 -163h-302l141 206q-57 36 -88 95.5t-31 129.5q0 112 75 190.5t196 78.5h379v-700zM372 353h61v156h-62q-32 0 -52 -22.5t-20 -55.5t20.5 -55.5t52.5 -22.5z" />
    <glyph glyph-name="uni0430" unicode="&#x430;" horiz-adv-x="692" 
d="M642 513v-513h-240v79q-12 -33 -56 -62.5t-99 -29.5q-101 0 -164 72.5t-63 196.5t63 196.5t164 72.5q55 0 99 -29.5t56 -62.5v80h240zM331 183q30 0 50.5 21.5t20.5 51.5t-20.5 51.5t-50.5 21.5t-50.5 -21.5t-20.5 -51.5t20.5 -51.5t50.5 -21.5z" />
    <glyph glyph-name="uni0431" unicode="&#x431;" horiz-adv-x="671" 
d="M651 236q0 -108 -78 -179.5t-218 -71.5q-135 0 -216 65q-53 41 -86 119.5t-33 168.5q0 115 27 173.5t79 108.5q83 80 278 80h180v-197h-159q-105 0 -157 -46q-24 -22 -39 -56t-15 -69q25 70 71.5 105t129.5 35q109 0 172.5 -70t63.5 -166zM356 168q32 0 51.5 20.5
t19.5 52.5t-19.5 52.5t-51.5 20.5t-51.5 -20.5t-19.5 -52.5t19.5 -52.5t51.5 -20.5z" />
    <glyph glyph-name="uni0432" unicode="&#x432;" horiz-adv-x="638" 
d="M50 513h414q46 0 78.5 -13t48.5 -34.5t22.5 -42t6.5 -41.5q0 -55 -40.5 -85t-109.5 -34q83 -4 120.5 -34.5t37.5 -91.5q0 -22 -8 -43.5t-27 -44t-58 -36t-94 -13.5h-391v513zM281 213v-100h44q57 0 57 50t-56 50h-45zM325 300q57 0 57 50t-56 50h-45v-100h44z" />
    <glyph glyph-name="uni0433" unicode="&#x433;" horiz-adv-x="435" 
d="M425 513v-186h-151v-327h-224v513h375z" />
    <glyph glyph-name="uni0434" unicode="&#x434;" horiz-adv-x="721" 
d="M20 -105v281h19q50 0 76 26.5t26 72.5v238h489v-337h61v-281h-196v105h-279v-105h-196zM438 176v162h-112v-61q0 -40 -7.5 -64t-29.5 -37h149z" />
    <glyph glyph-name="uni0435" unicode="&#x435;" horiz-adv-x="669" 
d="M261 211q0 -78 73 -78q27 0 46 12t23 32h230q-15 -87 -92 -139.5t-205 -52.5q-145 0 -230 72t-85 199q0 116 80.5 194t229.5 78q148 0 230 -72t82 -168q0 -43 -6 -77h-376zM332 386q-33 0 -52 -19.5t-19 -53.5h142q0 34 -19 53.5t-52 19.5z" />
    <glyph glyph-name="uni0436" unicode="&#x436;" horiz-adv-x="936" 
d="M255 0h-250l171 253q-26 12 -40 36l-12 20q-12 19 -24.5 26.5t-37.5 7.5h-24v175h74q68 0 102.5 -17.5t60.5 -67.5l36 -72q10 -20 19.5 -29t25.5 -9h5v190h214v-190h5q16 0 25.5 9t19.5 29l36 72q26 50 60.5 67.5t102.5 17.5h74v-175h-24q-25 0 -37.5 -7.5t-24.5 -26.5
l-12 -20q-14 -24 -40 -36l171 -253h-250l-106 196v-196h-214v196z" />
    <glyph glyph-name="uni0437" unicode="&#x437;" horiz-adv-x="603" 
d="M254 181q0 -30 9 -44t32 -14q34 0 34 36q0 29 -17.5 40t-56.5 11h-55v110h54q79 0 79 49q0 34 -36 34q-22 0 -31 -13t-9 -41h-239q0 179 289 179q116 0 190 -36t74 -114q0 -58 -35 -85t-84 -32q119 -9 119 -120q0 -52 -41.5 -90t-101 -54.5t-126.5 -16.5q-87 0 -147 16
t-90 46t-42.5 63t-12.5 76h244z" />
    <glyph glyph-name="uni0438" unicode="&#x438;" horiz-adv-x="697" 
d="M423 248l-149 -216v-32h-224v513h224v-259l149 216v43h224v-513h-224v248z" />
    <glyph glyph-name="uni0439" unicode="&#x439;" horiz-adv-x="697" 
d="M423 248l-149 -216v-32h-224v513h224v-259l149 216v43h224v-513h-224v248zM352 701q64 0 80 71h164q-14 -100 -81 -152t-163 -52t-163 52t-81 152h164q16 -71 80 -71z" />
    <glyph glyph-name="uni043A" unicode="&#x43a;" horiz-adv-x="647" 
d="M274 313h8q18 0 30 12t31 46l35 65q25 47 63.5 64.5t106.5 17.5h59v-180h-14q-40 0 -61 -35l-14 -24q-13 -23 -44 -28l173 -251h-271l-102 196v-196h-224v513h224v-200z" />
    <glyph glyph-name="uni043B" unicode="&#x43b;" horiz-adv-x="687" 
d="M10 166h29q43 0 43 41v306h555v-513h-224v327h-111v-146q0 -103 -48.5 -152t-167.5 -49h-76v186z" />
    <glyph glyph-name="uni043C" unicode="&#x43c;" horiz-adv-x="964" 
d="M914 0h-222v365l-108 -365h-195l-117 365v-365h-222v513h351l84 -306l85 306h344v-513z" />
    <glyph glyph-name="uni043D" unicode="&#x43d;" horiz-adv-x="661" 
d="M387 164h-113v-164h-224v513h224v-163h113v163h224v-513h-224v164z" />
    <glyph glyph-name="uni043E" unicode="&#x43e;" horiz-adv-x="662" 
d="M331 -15q-147 0 -229 77t-82 194q0 118 82 195t229 77t229 -77t82 -195q0 -117 -82 -194t-229 -77zM331 183q32 0 51.5 20.5t19.5 52.5t-19.5 52.5t-51.5 20.5t-51.5 -20.5t-19.5 -52.5t19.5 -52.5t51.5 -20.5z" />
    <glyph glyph-name="uni043F" unicode="&#x43f;" horiz-adv-x="661" 
d="M611 0h-224v327h-113v-327h-224v513h561v-513z" />
    <glyph glyph-name="uni0440" unicode="&#x440;" horiz-adv-x="700" 
d="M290 434q9 31 55 61t100 30q101 0 164 -72.5t63 -195.5q0 -124 -63 -196.5t-164 -72.5q-55 0 -100.5 30t-54.5 62v-267h-240v700h240v-79zM361 330q-30 0 -50.5 -21.5t-20.5 -51.5t20.5 -51.5t50.5 -21.5t50.5 21.5t20.5 51.5t-20.5 51.5t-50.5 21.5z" />
    <glyph glyph-name="uni0441" unicode="&#x441;" horiz-adv-x="658" 
d="M397 287q-12 46 -65 46q-36 0 -54 -22t-18 -55q0 -32 19 -54t55 -22q48 0 62 42h241q-10 -103 -90.5 -170t-215.5 -67q-147 0 -229 77t-82 194t82 194.5t229 77.5q135 0 214 -67.5t92 -173.5h-240z" />
    <glyph glyph-name="uni0442" unicode="&#x442;" horiz-adv-x="515" 
d="M505 513v-186h-135v-327h-224v327h-136v186h495z" />
    <glyph glyph-name="uni0443" unicode="&#x443;" horiz-adv-x="689" 
d="M342 -202q-84 0 -135 11.5t-88 40.5q-73 58 -73 144h240q0 -22 15 -36.5t43 -14.5q31 0 43.5 17.5t12.5 57.5v82q-38 -88 -158 -88q-84 0 -137 47q-31 29 -42 68.5t-11 104.5v281h240v-258q0 -70 52 -70q28 0 42 19t14 65v244h240v-464q0 -66 -23 -117t-60 -79
q-40 -31 -87 -43t-128 -12z" />
    <glyph glyph-name="uni0444" unicode="&#x444;" horiz-adv-x="784" 
d="M314 -13q-138 0 -216 78t-78 191q0 114 77 192t217 78v174h156v-174q138 0 216 -78.5t78 -191.5q0 -114 -76.5 -191.5t-217.5 -77.5v-174h-156v174zM553 256q0 35 -22 56.5t-59 21.5h-2v-156h2q36 0 58.5 22t22.5 56zM231 256q0 -34 22.5 -56t58.5 -22h2v156h-2
q-37 0 -59 -21.5t-22 -56.5z" />
    <glyph glyph-name="uni0445" unicode="&#x445;" horiz-adv-x="685" 
d="M680 0h-278l-60 121l-59 -121h-278l192 259l-189 254h278l56 -116l57 116h278l-189 -254z" />
    <glyph glyph-name="uni0446" unicode="&#x446;" horiz-adv-x="707" 
d="M491 -105v105h-441v513h224v-327h113v327h224v-327h76v-291h-196z" />
    <glyph glyph-name="uni0447" unicode="&#x447;" horiz-adv-x="620" 
d="M346 0v129h-134q-92 0 -142 46t-50 136v202h224v-164q0 -68 70 -68h32v232h224v-513h-224z" />
    <glyph glyph-name="uni0448" unicode="&#x448;" horiz-adv-x="958" 
d="M582 186h118v327h208v-513h-858v513h208v-327h118v327h206v-327z" />
    <glyph glyph-name="uni0449" unicode="&#x449;" horiz-adv-x="1004" 
d="M788 -105v105h-738v513h208v-327h118v327h206v-327h118v327h208v-327h76v-291h-196z" />
    <glyph glyph-name="uni044A" unicode="&#x44a;" horiz-adv-x="695" 
d="M139 347h-129v166h353v-153h115q207 0 207 -180q0 -30 -9 -58t-30 -57t-64.5 -47t-103.5 -18h-339v347zM363 226v-100h49q23 0 37.5 14.5t14.5 35.5t-14 35.5t-37 14.5h-50z" />
    <glyph glyph-name="uni044B" unicode="&#x44b;" horiz-adv-x="911" 
d="M621 513h240v-513h-240v513zM50 513h224v-153h115q207 0 207 -180q0 -30 -9 -58t-30 -57t-64.5 -47t-103.5 -18h-339v513zM274 226v-100h49q23 0 37.5 14.5t14.5 35.5t-14 35.5t-37 14.5h-50z" />
    <glyph glyph-name="uni044C" unicode="&#x44c;" horiz-adv-x="606" 
d="M50 513h224v-153h115q207 0 207 -180q0 -30 -9 -58t-30 -57t-64.5 -47t-103.5 -18h-339v513zM274 226v-100h49q23 0 37.5 14.5t14.5 35.5t-14 35.5t-37 14.5h-50z" />
    <glyph glyph-name="uni044D" unicode="&#x44d;" horiz-adv-x="662" 
d="M20 287q12 110 94 175.5t217 65.5q151 0 231 -77t80 -195t-80 -194.5t-231 -76.5q-136 0 -217.5 64t-93.5 173h241q13 -72 77 -72q68 0 72 64h-111v80h111q-5 69 -71 69q-65 0 -79 -76h-240z" />
    <glyph glyph-name="uni044E" unicode="&#x44e;" horiz-adv-x="929" 
d="M598 183q32 0 51.5 20.5t19.5 52.5t-19.5 52.5t-51.5 20.5t-51.5 -20.5t-19.5 -52.5t19.5 -52.5t51.5 -20.5zM274 164v-164h-224v513h224v-163h41q27 81 98.5 129.5t184.5 48.5q147 0 229 -77t82 -195q0 -117 -82 -194t-229 -77q-113 0 -185.5 49t-97.5 130h-41z" />
    <glyph glyph-name="uni044F" unicode="&#x44f;" horiz-adv-x="617" 
d="M123 156q-102 48 -102 159q0 83 55.5 140.5t143.5 57.5h347v-513h-231v120l-83 -120h-248zM336 258v114h-46q-23 0 -37 -16.5t-14 -40.5t14.5 -40.5t37.5 -16.5h45z" />
    <glyph glyph-name="uni0451" unicode="&#x451;" horiz-adv-x="669" 
d="M261 211q0 -78 73 -78q27 0 46 12t23 32h230q-15 -87 -92 -139.5t-205 -52.5q-145 0 -230 72t-85 199q0 116 80.5 194t229.5 78q148 0 230 -72t82 -168q0 -43 -6 -77h-376zM332 386q-33 0 -52 -19.5t-19 -53.5h142q0 34 -19 53.5t-52 19.5zM345 661q0 51 35 86t87 35
t87.5 -35.5t35.5 -85.5q0 -48 -36 -83.5t-87 -35.5q-52 0 -87 35t-35 84zM81 661q0 50 35.5 85.5t86.5 35.5q53 0 88.5 -35t35.5 -86q0 -49 -35.5 -84t-88.5 -35q-51 0 -86.5 35.5t-35.5 83.5z" />
    <glyph glyph-name="uni0452" unicode="&#x452;" horiz-adv-x="674" 
d="M295 494v-145q19 40 61 65t102 25q73 0 115 -37q55 -51 55 -188v-220q0 -61 -12 -101t-37.5 -60t-54.5 -27.5t-73 -7.5h-141v171h42q48 0 51 44v159q0 70 -52 70q-28 0 -42 -19t-14 -65v-158h-225v494h-70v112h70v94h225v-94h115v-112h-115z" />
    <glyph glyph-name="uni0453" unicode="&#x453;" horiz-adv-x="435" 
d="M83 537l-41 147l330 110l41 -147zM425 513v-186h-151v-327h-224v513h375z" />
    <glyph glyph-name="uni0454" unicode="&#x454;" horiz-adv-x="662" 
d="M402 287q-14 76 -79 76q-66 0 -71 -69h111v-80h-111q4 -64 72 -64q64 0 77 72h241q-12 -109 -93.5 -173t-217.5 -64q-151 0 -231 76.5t-80 194.5t80 195t231 77q135 0 217 -65.5t94 -175.5h-240z" />
    <glyph glyph-name="uni0455" unicode="&#x455;" horiz-adv-x="622" 
d="M385 326q54 -11 86.5 -20.5t64 -27t45.5 -45t14 -68.5q0 -53 -21.5 -89.5t-62 -55.5t-87.5 -27t-110 -8q-153 0 -220.5 47.5t-67.5 138.5h240q0 -49 51 -49q37 0 37 27q0 16 -20 25.5t-78 21.5q-113 25 -151 45q-73 38 -73 117q0 92 68 131t220 39q80 0 134.5 -13
t82.5 -38t39.5 -53.5t11.5 -66.5h-240q0 22 -11.5 33t-28.5 11q-36 0 -36 -27q0 -17 24.5 -26t88.5 -22z" />
    <glyph glyph-name="uni0456" unicode="&#x456;" horiz-adv-x="340" 
d="M50 513h240v-513h-240v513zM36 662q0 54 38 88t95 34q59 0 97 -34t38 -88q0 -59 -37 -90t-98 -31q-57 0 -95 34t-38 87z" />
    <glyph glyph-name="uni0457" unicode="&#x457;" horiz-adv-x="340" 
d="M50 513h240v-513h-240v513zM181 661q0 51 35 86t87 35t87.5 -35.5t35.5 -85.5q0 -48 -36 -83.5t-87 -35.5q-52 0 -87 35t-35 84zM-83 661q0 50 35.5 85.5t86.5 35.5q53 0 88.5 -35t35.5 -86q0 -49 -35.5 -84t-88.5 -35q-51 0 -86.5 35.5t-35.5 83.5z" />
    <glyph glyph-name="uni0458" unicode="&#x458;" horiz-adv-x="340" 
d="M290 -6q0 -61 -13 -101t-40.5 -60t-59.5 -27.5t-79 -7.5q-90 0 -141 15v160q17 -4 42 -4q51 0 51 49v495h240v-519zM36 662q0 54 38 88t95 34q59 0 97 -34t38 -88q0 -59 -37 -90t-98 -31q-57 0 -95 34t-38 87z" />
    <glyph glyph-name="uni0459" unicode="&#x459;" horiz-adv-x="969" 
d="M10 166h29q43 0 43 41v306h555v-163h115q207 0 207 -175q0 -29 -9 -56.5t-30 -55.5t-64.5 -45.5t-103.5 -17.5h-339v327h-111v-146q0 -103 -48.5 -152t-167.5 -49h-76v186zM686 127q23 0 37.5 14.5t14.5 35.5t-14 35.5t-37 14.5h-50v-100h49z" />
    <glyph glyph-name="uni045A" unicode="&#x45a;" horiz-adv-x="943" 
d="M726 350q207 0 207 -175q0 -29 -9 -56.5t-30 -55.5t-64.5 -45.5t-103.5 -17.5h-339v164h-113v-164h-224v513h224v-163h113v163h224v-163h115zM611 227v-100h49q23 0 37.5 14.5t14.5 35.5t-14 35.5t-37 14.5h-50z" />
    <glyph glyph-name="uni045B" unicode="&#x45b;" horiz-adv-x="674" 
d="M70 494h-70v112h70v94h225v-94h115v-112h-115v-146q19 40 61 65t102 25q73 0 115 -37q55 -51 55 -188v-213h-225v171q0 70 -52 70q-28 0 -42 -19t-14 -65v-157h-225v494z" />
    <glyph glyph-name="uni045C" unicode="&#x45c;" horiz-adv-x="652" 
d="M274 313h8q18 0 30 12t31 46l35 65q25 47 63.5 64.5t106.5 17.5h59v-180h-14q-40 0 -61 -35l-14 -24q-13 -23 -44 -28l173 -251h-271l-102 196v-196h-224v513h224v-200zM183 537l-41 147l330 110l41 -147z" />
    <glyph glyph-name="uni045E" unicode="&#x45e;" horiz-adv-x="689" 
d="M342 -202q-84 0 -135 11.5t-88 40.5q-73 58 -73 144h240q0 -22 15 -36.5t43 -14.5q31 0 43.5 17.5t12.5 57.5v82q-38 -88 -158 -88q-84 0 -137 47q-31 29 -42 68.5t-11 104.5v281h240v-258q0 -70 52 -70q28 0 42 19t14 65v244h240v-464q0 -66 -23 -117t-60 -79
q-40 -31 -87 -43t-128 -12zM350 701q64 0 80 71h164q-14 -100 -81 -152t-163 -52t-163 52t-81 152h164q16 -71 80 -71z" />
    <glyph glyph-name="uni045F" unicode="&#x45f;" horiz-adv-x="661" 
d="M232 -105v105h-182v513h224v-327h113v327h224v-513h-183v-105h-196z" />
    <glyph glyph-name="uni0462" unicode="&#x462;" horiz-adv-x="733" 
d="M349 282v-115h42q35 0 53.5 16t18.5 43q0 56 -72 56h-42zM542 700v-183h-193v-68h169q91 0 148 -64t57 -160q0 -95 -57 -160t-148 -65h-424v517h-84v183h532z" />
    <glyph glyph-name="uni0463" unicode="&#x463;" horiz-adv-x="626" 
d="M70 494h-70v112h70v94h224v-94h116v-112h-116v-134h115q207 0 207 -180q0 -30 -9 -58t-30 -57t-64.5 -47t-103.5 -18h-339v494zM294 226v-100h49q23 0 37.5 14.5t14.5 35.5t-14 35.5t-37 14.5h-50z" />
    <glyph glyph-name="uni0472" unicode="&#x472;" horiz-adv-x="816" 
d="M408 -20q-179 0 -283.5 108t-104.5 262t104.5 262t283.5 108q119 0 209 -52.5t134.5 -135.5t44.5 -182t-44.5 -182t-134.5 -135.5t-209 -52.5zM408 487q-47 0 -79.5 -24t-45.5 -63h250q-13 39 -46 63t-79 24zM408 213q47 0 79.5 24.5t45.5 64.5h-251q13 -40 45.5 -64.5
t80.5 -24.5z" />
    <glyph glyph-name="uni0473" unicode="&#x473;" horiz-adv-x="662" 
d="M331 -15q-147 0 -229 77t-82 194q0 118 82 195t229 77t229 -77t82 -195q0 -117 -82 -194t-229 -77zM331 329q-53 0 -68 -47h135q-15 47 -67 47zM331 183q52 0 67 47h-134q15 -47 67 -47z" />
    <glyph glyph-name="uni0474" unicode="&#x474;" horiz-adv-x="842" 
d="M560 0h-289l-266 700h277l132 -464l101 343q23 76 70.5 104t140.5 28h106v-210h-22q-35 0 -54 -13t-34 -53z" />
    <glyph glyph-name="uni0475" unicode="&#x475;" horiz-adv-x="674" 
d="M455 0h-221l-229 513h247l93 -289l65 197q20 61 61 80.5t115 19.5h83v-180h-14q-23 0 -38.5 -9t-29.5 -40z" />
    <glyph glyph-name="uni048A" unicode="&#x48a;" horiz-adv-x="853" 
d="M397 881q64 0 80 71h164q-14 -100 -81 -152t-163 -52t-163 52t-81 152h164q16 -71 80 -71zM480 0v340l-170 -292v-48h-255v700h255v-340l170 292v48h255v-491h98v-321h-231v112h-122z" />
    <glyph glyph-name="uni048B" unicode="&#x48b;" horiz-adv-x="743" 
d="M352 701q64 0 80 71h164q-14 -100 -81 -152t-163 -52t-163 52t-81 152h164q16 -71 80 -71zM423 0v248l-149 -216v-32h-224v513h224v-259l149 216v43h224v-327h76v-291h-196v105h-104z" />
    <glyph glyph-name="uni048C" unicode="&#x48c;" horiz-adv-x="719" 
d="M335 700v-94h169v-112h-169v-45h169q91 0 148 -64t57 -160q0 -95 -57 -160t-148 -65h-424v494h-70v112h70v94h255zM335 282v-115h42q35 0 53.5 16t18.5 43q0 56 -72 56h-42z" />
    <glyph glyph-name="uni048D" unicode="&#x48d;" horiz-adv-x="646" 
d="M80 380h-70v112h70v21h224v-21h116v-112h-116v-20h115q207 0 207 -180q0 -30 -9 -58t-30 -57t-64.5 -47t-103.5 -18h-339v380zM304 226v-100h49q23 0 37.5 14.5t14.5 35.5t-14 35.5t-37 14.5h-50z" />
    <glyph glyph-name="uni048E" unicode="&#x48e;" horiz-adv-x="712" 
d="M55 700h378q121 0 196 -78.5t75 -190.5q0 -76 -36.5 -139t-101.5 -98l29 -45l-77 -50l-43 67q-21 -3 -42 -3h-123v-163h-255v700zM406 443l30 -48q8 19 8 36q0 33 -20 55.5t-52 22.5h-62v-156h44l-25 40z" />
    <glyph glyph-name="uni048F" unicode="&#x48f;" horiz-adv-x="700" 
d="M290 434q9 31 55 61t100 30q101 0 164 -72.5t63 -195.5q0 -168 -108 -236l27 -41l-77 -50l-39 60q-22 -2 -30 -2q-55 0 -100.5 30t-54.5 62v-267h-240v700h240v-79zM402 274l26 -41q4 9 4 24q0 30 -20.5 51.5t-50.5 21.5t-50.5 -21.5t-20.5 -51.5q0 -28 16.5 -48
t43.5 -24l-25 39z" />
    <glyph glyph-name="uni0490" unicode="&#x490;" horiz-adv-x="504" 
d="M55 700h273v112h176v-315h-194v-497h-255v700z" />
    <glyph glyph-name="uni0491" unicode="&#x491;" horiz-adv-x="435" 
d="M235 513v125h190v-311h-151v-327h-224v513h185z" />
    <glyph glyph-name="uni0492" unicode="&#x492;" horiz-adv-x="509" 
d="M310 402h97v-112h-97v-290h-255v290h-56v112h56v298h449v-215h-194v-83z" />
    <glyph glyph-name="uni0493" unicode="&#x493;" horiz-adv-x="476" 
d="M305 257h82v-112h-82v-145h-224v145h-56v112h56v256h375v-186h-151v-70z" />
    <glyph glyph-name="uni0494" unicode="&#x494;" horiz-adv-x="661" 
d="M280 534v-147q19 40 61 65t102 25q73 0 115 -37q55 -51 55 -188v-258q0 -117 -43.5 -156.5t-133.5 -39.5h-141v171h42q48 0 51 44v197q0 70 -52 70q-28 0 -42 -19t-14 -65v-196h-225v700h353v-166h-128z" />
    <glyph glyph-name="uni0495" unicode="&#x495;" horiz-adv-x="656" 
d="M275 513v-225q19 40 61 65t102 25q73 0 115 -37q55 -51 55 -188v-159q0 -61 -12.5 -101t-38.5 -60t-56 -27.5t-75 -7.5q-87 0 -136 15v160q17 -4 42 -4q51 0 51 49v93q0 70 -52 70q-28 0 -42 -19t-14 -65v-97h-225v513h225z" />
    <glyph glyph-name="uni0496" unicode="&#x496;" horiz-adv-x="1147" 
d="M911 -112v112h-54l-160 284v-284h-247v284l-160 -284h-285l238 343q-50 17 -67 48l-30 56q-26 48 -78 48h-22v210h75q74 0 121.5 -20t75.5 -77l49 -103q23 -47 37.5 -63.5t38.5 -16.5h7v275h247v-275h7q24 0 38.5 16.5t37.5 63.5l49 103q28 57 75.5 77t121.5 20h75v-210
h-22q-52 0 -78 -48l-30 -56q-17 -31 -67 -48l238 -343v-112h-231z" />
    <glyph glyph-name="uni0497" unicode="&#x497;" horiz-adv-x="936" 
d="M255 0h-250l171 253q-26 12 -40 36l-12 20q-12 19 -24.5 26.5t-37.5 7.5h-24v175h74q68 0 102.5 -17.5t60.5 -67.5l36 -72q10 -20 19.5 -29t25.5 -9h5v190h214v-190h5q16 0 25.5 9t19.5 29l36 72q26 50 60.5 67.5t102.5 17.5h74v-175h-24q-25 0 -37.5 -7.5t-24.5 -26.5
l-12 -20q-14 -24 -40 -36l171 -253v-105h-196v105h-54l-106 196v-196h-214v196z" />
    <glyph glyph-name="uni0498" unicode="&#x498;" horiz-adv-x="689" 
d="M280 238q0 -34 11 -50t42 -16q49 0 49 50q0 62 -67 62h-95v163h93q42 0 58 14t16 44q0 46 -47 46q-31 0 -40.5 -15t-9.5 -48h-270q0 232 318 232q319 0 319 -203q0 -59 -40.5 -104t-89.5 -54q54 -13 92 -60.5t38 -114.5q0 -91 -77 -142t-191 -60v-32q13 20 52 20
q42 0 66 -30t24 -65q0 -48 -32.5 -78.5t-90.5 -30.5t-90.5 30t-32.5 76h94q0 -12 8 -20.5t21 -8.5t20.5 9t7.5 23q0 12 -7.5 20t-19.5 8q-21 0 -27 -14h-88v93q-84 5 -142.5 27.5t-88 60t-41.5 77.5t-12 91h270z" />
    <glyph glyph-name="uni0499" unicode="&#x499;" horiz-adv-x="603" 
d="M254 181q0 -30 9 -44t32 -14q34 0 34 36q0 29 -17.5 40t-56.5 11h-55v110h54q79 0 79 49q0 34 -36 34q-22 0 -31 -13t-9 -41h-239q0 179 289 179q116 0 190 -36t74 -114q0 -58 -35 -85t-84 -32q119 -9 119 -120q0 -69 -65.5 -109.5t-161.5 -49.5v-26q13 20 52 20
q42 0 66 -30t24 -65q0 -48 -32.5 -78.5t-90.5 -30.5t-90.5 30t-32.5 76h94q0 -12 8 -20.5t21 -8.5t20.5 9t7.5 23q0 12 -7.5 20t-19.5 8q-21 0 -27 -14h-88v87q-135 9 -187 62t-52 137h244z" />
    <glyph glyph-name="uni049A" unicode="&#x49a;" horiz-adv-x="768" 
d="M532 -112v112h-62l-160 284v-284h-255v700h255v-270h15q21 0 37.5 14t37.5 53l58 107q32 59 74 80t112 21h85v-220h-24q-28 0 -44.5 -9.5t-34.5 -35.5l-31 -46q-26 -37 -59 -54l227 -340v-112h-231z" />
    <glyph glyph-name="uni049B" unicode="&#x49b;" horiz-adv-x="652" 
d="M451 -105v105h-75l-102 196v-196h-224v513h224v-200h8q18 0 30 12t31 46l35 65q25 47 63.5 64.5t106.5 17.5h59v-180h-14q-40 0 -61 -35l-14 -24q-13 -23 -44 -28l173 -251v-105h-196z" />
    <glyph glyph-name="uni049C" unicode="&#x49c;" horiz-adv-x="768" 
d="M373 430q17 1 31 15.5t31 51.5l48 107q26 59 68.5 80t112.5 21h65v-220h-9q-25 0 -40 -8.5t-29 -31.5l-26 -43q-20 -33 -44 -47l182 -355h-283l-107 284v-90h-32v90h-31v-284h-255v700h255v-270h31v123h32v-123z" />
    <glyph glyph-name="uni049D" unicode="&#x49d;" horiz-adv-x="652" 
d="M326 316q22 10 42 55l25 65q19 48 57.5 65t107.5 17h49v-185q-32 0 -50 -20l-14 -24q-17 -27 -39 -33l143 -256h-246l-75 196v-87h-28v87h-24v-196h-224v513h224v-200h24v50h28v-47z" />
    <glyph glyph-name="uni049E" unicode="&#x49e;" horiz-adv-x="793" 
d="M80 700h255v-94h61v-112h-61v-64h15q21 0 37.5 14t37.5 53l58 107q32 59 74 80t112 21h85v-220h-24q-28 0 -44.5 -9.5t-34.5 -35.5l-31 -46q-26 -37 -59 -54l227 -340h-293l-160 284v-284h-255v494h-70v112h70v94z" />
    <glyph glyph-name="uni049F" unicode="&#x49f;" horiz-adv-x="682" 
d="M80 513h224v-21h44v-112h-44v-67h8q18 0 30 12t31 46l35 65q25 47 63.5 64.5t106.5 17.5h59v-180h-14q-40 0 -61 -35l-14 -24q-13 -23 -44 -28l173 -251h-271l-102 196v-196h-224v380h-70v112h70v21z" />
    <glyph glyph-name="uni04A0" unicode="&#x4a0;" horiz-adv-x="853" 
d="M10 485v215h384l1 -270h15q21 0 37.5 14t37.5 53l58 107q32 59 74 80t112 21h85v-220h-24q-28 0 -44.5 -9.5t-34.5 -35.5l-31 -46q-26 -37 -59 -54l227 -340h-293l-160 284v-284h-256v485h-129z" />
    <glyph glyph-name="uni04A1" unicode="&#x4a1;" horiz-adv-x="741" 
d="M10 347v166h353v-200h8q18 0 30 12t31 46l35 65q25 47 63.5 64.5t106.5 17.5h59v-180h-14q-40 0 -61 -35l-14 -24q-13 -23 -44 -28l173 -251h-271l-102 196v-196h-224v347h-129z" />
    <glyph glyph-name="uni04A2" unicode="&#x4a2;" horiz-adv-x="830" 
d="M458 0v243h-148v-243h-255v700h255v-248h148v248h255v-490h97v-323h-231v113h-121z" />
    <glyph glyph-name="uni04A3" unicode="&#x4a3;" horiz-adv-x="707" 
d="M387 164h-113v-164h-224v513h224v-163h113v163h224v-327h76v-291h-196v105h-104v164z" />
    <glyph glyph-name="uni04A4" unicode="&#x4a4;" horiz-adv-x="853" 
d="M713 0h-255v243h-148v-243h-255v700h255v-248h148v248h385v-215h-129z" />
    <glyph glyph-name="uni04A5" unicode="&#x4a5;" horiz-adv-x="750" 
d="M740 513v-166h-129v-347h-224v164h-113v-164h-224v513h224v-163h113v163h353z" />
    <glyph glyph-name="uni04A6" unicode="&#x4a6;" horiz-adv-x="830" 
d="M310 491v-491h-255v700h658v-490h97v-323h-231v113h-121v491h-148z" />
    <glyph glyph-name="uni04A7" unicode="&#x4a7;" horiz-adv-x="697" 
d="M611 186h76v-291h-196v105h-104v327h-113v-327h-224v513h561v-327z" />
    <glyph glyph-name="uni04A8" unicode="&#x4a8;" horiz-adv-x="851" 
d="M333 487q-83 -12 -83 -129q0 -61 33.5 -105t94.5 -59v275q0 111 60.5 180t153.5 69q239 0 239 -249v-119q0 -121 -69 -217.5t-193 -133.5q9 -30 49 -30h42v-171h-105q-88 0 -131.5 37.5t-45.5 147.5q-166 15 -262 122t-96 252q0 159 82 256t231 107v-233zM626 350v124
q0 36 -7 50t-22 14q-30 0 -30 -63v-248q59 44 59 123z" />
    <glyph glyph-name="uni04A9" unicode="&#x4a9;" horiz-adv-x="683" 
d="M256 338q-56 -15 -56 -88q0 -75 78 -97v191q0 96 54.5 140t128.5 44t128 -44t54 -139v-88q0 -91 -57 -162t-158 -97v-29q3 -35 41 -35h33v-136h-68q-36 0 -60.5 5t-48 20t-35.5 48t-12 83v34q-120 14 -189 91.5t-69 183.5q0 118 62.5 189t173.5 77v-191zM467 257v47
q0 53 -4.5 72.5t-15.5 19.5t-15 -10t-4 -37v-172q39 30 39 80z" />
    <glyph glyph-name="uni04AA" unicode="&#x4aa;" horiz-adv-x="814" 
d="M527 395q-20 93 -118 93q-63 0 -96 -40t-33 -98q0 -62 35 -100t94 -38q54 0 84 25.5t37 64.5h266q-15 -127 -101 -216t-231 -103v-33q13 20 52 20q42 0 66 -30t24 -65q0 -48 -32.5 -78.5t-90.5 -30.5t-90.5 30t-32.5 76h94q0 -12 8 -20.5t21 -8.5t20.5 9t7.5 23
q0 12 -7.5 20t-19.5 8q-21 0 -27 -14h-88v93q-160 14 -254.5 119.5t-94.5 248.5q0 153 105.5 261.5t282.5 108.5q169 0 270.5 -92.5t114.5 -232.5h-266z" />
    <glyph glyph-name="uni04AB" unicode="&#x4ab;" horiz-adv-x="658" 
d="M265 -10q-117 17 -181 90.5t-64 175.5q0 117 82 194.5t229 77.5q135 0 214 -67.5t92 -173.5h-240q-12 46 -65 46q-36 0 -54 -22t-18 -55q0 -32 19 -54t55 -22q48 0 62 42h241q-10 -98 -82.5 -163t-194.5 -73v-30q13 20 52 20q42 0 66 -30t24 -65q0 -48 -32.5 -78.5
t-90.5 -30.5t-90.5 30t-32.5 76h94q0 -12 8 -20.5t21 -8.5t20.5 9t7.5 23q0 12 -7.5 20t-19.5 8q-21 0 -27 -14h-88v95z" />
    <glyph glyph-name="uni04AC" unicode="&#x4ac;" horiz-adv-x="563" 
d="M154 485h-129v215h513v-215h-129v-275h97v-323h-231v113h-121v485z" />
    <glyph glyph-name="uni04AD" unicode="&#x4ad;" horiz-adv-x="515" 
d="M505 513v-186h-135v-141h76v-291h-196v105h-104v327h-136v186h495z" />
    <glyph glyph-name="uni04AE" unicode="&#x4ae;" horiz-adv-x="748" 
d="M374 477l84 223h285l-242 -481v-219h-254v219l-242 481h285z" />
    <glyph glyph-name="uni04AF" unicode="&#x4af;" horiz-adv-x="652" 
d="M326 266l72 247h249l-194 -481v-219h-254v219l-194 481h249z" />
    <glyph glyph-name="uni04B0" unicode="&#x4b0;" horiz-adv-x="748" 
d="M501 122v-122h-254v122h-108v112h100l-234 466h285l84 -223l84 223h285l-235 -466h101v-112h-108z" />
    <glyph glyph-name="uni04B1" unicode="&#x4b1;" horiz-adv-x="652" 
d="M326 266l72 247h249l-194 -481v-32h84v-112h-84v-75h-254v75h-84v112h84v32l-194 481h249z" />
    <glyph glyph-name="uni04B2" unicode="&#x4b2;" horiz-adv-x="722" 
d="M486 -112v112h-45l-80 175l-80 -175h-276l208 350l-208 350h276l80 -175l80 175h276l-208 -350l208 -350v-112h-231z" />
    <glyph glyph-name="uni04B3" unicode="&#x4b3;" horiz-adv-x="685" 
d="M484 -105v105h-82l-60 121l-59 -121h-278l192 259l-189 254h278l56 -116l57 116h278l-189 -254l192 -259v-105h-196z" />
    <glyph glyph-name="uni04B4" unicode="&#x4b4;" horiz-adv-x="901" 
d="M394 209h135v491h255v-491h97v-321h-231v112h-511v485h-129v215h454v-215h-70v-276z" />
    <glyph glyph-name="uni04B5" unicode="&#x4b5;" horiz-adv-x="796" 
d="M363 186h113v327h224v-327h76v-291h-196v105h-441v347h-129v166h408v-166h-55v-161z" />
    <glyph glyph-name="uni04B6" unicode="&#x4b6;" horiz-adv-x="778" 
d="M406 0v186h-151q-105 0 -172.5 63t-67.5 162v289h255v-236q0 -59 23 -81.5t68 -22.5h45v340h255v-490h97v-323h-231v113h-121z" />
    <glyph glyph-name="uni04B7" unicode="&#x4b7;" horiz-adv-x="666" 
d="M346 0v129h-134q-92 0 -142 46t-50 136v202h224v-164q0 -68 70 -68h32v232h224v-327h76v-291h-196v105h-104z" />
    <glyph glyph-name="uni04B8" unicode="&#x4b8;" horiz-adv-x="716" 
d="M373 360h33v340h255v-700h-255v186h-33v-61h-32v61h-86q-105 0 -172.5 63t-67.5 162v289h255v-236q0 -52 18 -75.5t53 -27.5v62h32v-63z" />
    <glyph glyph-name="uni04B9" unicode="&#x4b9;" horiz-adv-x="620" 
d="M319 281h27v232h224v-513h-224v129h-27v-67h-28v67h-79q-92 0 -142 46t-50 136v202h224v-164q0 -57 47 -66v69h28v-71z" />
    <glyph glyph-name="uni04BA" unicode="&#x4ba;" horiz-adv-x="659" 
d="M55 700h225v-175h88q81 0 125 -18t72 -51q25 -28 36.5 -75t11.5 -139v-242h-225v242q0 49 -16 67.5t-61 18.5h-31v-328h-225v700z" />
    <glyph glyph-name="uni04BB" unicode="&#x4bb;" horiz-adv-x="654" 
d="M50 700h225v-265q19 40 61 65t102 25q73 0 115 -37q55 -51 55 -188v-300h-225v258q0 70 -52 70q-28 0 -42 -19t-14 -65v-244h-225v700z" />
    <glyph glyph-name="uni04BC" unicode="&#x4bc;" horiz-adv-x="1005" 
d="M985 350q0 -28 -3 -53h-516q9 -52 43 -78t84 -26q86 0 115 64h264q-20 -110 -120.5 -193.5t-254.5 -83.5q-162 0 -264 90.5t-121 226.5h-69q-59 0 -96 38t-37 97v62h138v-35q0 -21 12 -34t32 -13h22q21 133 122 220.5t261 87.5q119 0 209 -52.5t134.5 -135.5t44.5 -182z
M592 507q-47 0 -79.5 -24.5t-43.5 -70.5h251q-27 95 -128 95z" />
    <glyph glyph-name="uni04BD" unicode="&#x4bd;" horiz-adv-x="846" 
d="M438 211q0 -78 73 -78q27 0 46 12t23 32h230q-15 -87 -92 -139.5t-205 -52.5q-133 0 -215 59t-97 167h-58q-59 0 -96 38t-37 97v62h138v-48q0 -21 12 -34t32 -13h11q19 95 97.5 155t207.5 60q148 0 230 -72t82 -168q0 -43 -6 -77h-376zM509 386q-33 0 -52 -19.5
t-19 -53.5h142q0 34 -19 53.5t-52 19.5z" />
    <glyph glyph-name="uni04BE" unicode="&#x4be;" horiz-adv-x="1005" 
d="M531 -15q-135 17 -219 104t-100 208h-69q-59 0 -96 38t-37 97v62h138v-35q0 -21 12 -34t32 -13h22q21 133 122 220.5t261 87.5q119 0 209 -52.5t134.5 -135.5t44.5 -182q0 -28 -3 -53h-516q9 -52 43 -78t84 -26q86 0 115 64h264q-17 -97 -100.5 -176.5t-213.5 -96.5
q-31 -24 -31 -62q0 -22 12.5 -37.5t33.5 -15.5q27 0 56 12l-6 -78q-45 -15 -103 -15q-75 0 -111 27t-36 70q0 54 58 100zM592 507q-47 0 -79.5 -24.5t-43.5 -70.5h251q-27 95 -128 95z" />
    <glyph glyph-name="uni04BF" unicode="&#x4bf;" horiz-adv-x="846" 
d="M443 -10q-103 14 -166 71t-76 150h-58q-59 0 -96 38t-37 97v62h138v-48q0 -21 12 -34t32 -13h11q19 95 97.5 155t207.5 60q148 0 230 -72t82 -168q0 -43 -6 -77h-376q0 -78 73 -78q27 0 46 12t23 32h230q-12 -77 -74.5 -127.5t-165.5 -61.5q-37 -30 -37 -66
q0 -22 12.5 -37.5t33.5 -15.5q27 0 56 12l-6 -78q-45 -15 -103 -15q-75 0 -111 27t-36 70q0 53 64 105zM509 386q-33 0 -52 -19.5t-19 -53.5h142q0 34 -19 53.5t-52 19.5z" />
    <glyph glyph-name="uni04C0" unicode="&#x4c0;" horiz-adv-x="365" 
d="M55 700h255v-700h-255v700z" />
    <glyph glyph-name="uni04C3" unicode="&#x4c3;" horiz-adv-x="739" 
d="M310 400h15q23 0 40.5 14t34.5 53l58 137q24 60 68.5 80.5t117.5 20.5h85v-220h-24q-28 0 -44.5 -9.5t-34.5 -35.5l-31 -46q-22 -33 -59 -49q68 -13 108 -66q39 -51 39 -179v-106q0 -61 -13 -101t-40.5 -60t-59.5 -27.5t-79 -7.5q-87 0 -136 15v160q17 -4 42 -4
q41 0 41 49v142q0 49 -14 67.5t-53 18.5h-61v-246h-255v700h255v-300z" />
    <glyph glyph-name="uni04C4" unicode="&#x4c4;" horiz-adv-x="647" 
d="M274 313h8q18 0 30 12t31 46l35 65q25 47 63.5 64.5t106.5 17.5h59v-180h-14q-40 0 -61 -35l-14 -24q-13 -23 -44 -28q51 -12 84 -45q37 -37 37 -104v-109q0 -117 -43.5 -156.5t-133.5 -39.5h-129v171h30q48 0 51 44v114q0 37 -13 53.5t-45 16.5h-38v-196h-224v513h224
v-200z" />
    <glyph glyph-name="uni04C5" unicode="&#x4c5;" horiz-adv-x="848" 
d="M10 166h45q48 0 48 38v496h651v-597h89l-73 -194h-230l34 91h-75v491h-141v-315q0 -61 -16.5 -101t-49 -60t-70 -27.5t-90.5 -7.5h-122v186z" />
    <glyph glyph-name="uni04C6" unicode="&#x4c6;" horiz-adv-x="731" 
d="M10 166h29q43 0 43 41v306h555v-410h89l-73 -194h-199l34 91h-75v327h-111v-146q0 -103 -48.5 -152t-167.5 -49h-76v186z" />
    <glyph glyph-name="uni04C7" unicode="&#x4c7;" horiz-adv-x="770" 
d="M713 -6q0 -61 -12 -101t-36.5 -60t-54 -27.5t-73.5 -7.5h-171v171h42q50 0 50 44v230h-148v-243h-255v700h255v-248h148v248h255v-706z" />
    <glyph glyph-name="uni04C8" unicode="&#x4c8;" horiz-adv-x="659" 
d="M611 -6q0 -117 -43.5 -156.5t-133.5 -39.5h-141v171h42q52 0 52 44v151h-113v-164h-224v513h224v-163h113v163h224v-519z" />
    <glyph glyph-name="uni04C9" unicode="&#x4c9;" horiz-adv-x="782" 
d="M458 243h-148v-243h-255v700h255v-248h148v248h255v-597h89l-73 -194h-230l34 91h-75v243z" />
    <glyph glyph-name="uni04CA" unicode="&#x4ca;" horiz-adv-x="710" 
d="M387 164h-113v-164h-224v513h224v-163h113v163h224v-410h89l-73 -194h-199l34 91h-75v164z" />
    <glyph glyph-name="uni04CB" unicode="&#x4cb;" horiz-adv-x="716" 
d="M540 0v-112h-231v215h97v83h-151q-105 0 -172.5 63t-67.5 162v289h255v-236q0 -59 23 -81.5t68 -22.5h45v340h255v-700h-121z" />
    <glyph glyph-name="uni04CC" unicode="&#x4cc;" horiz-adv-x="666" 
d="M346 0v129h-134q-92 0 -142 46t-50 136v202h224v-164q0 -68 70 -68h32v232h224v-327h76v-291h-196v105h-104z" />
    <glyph glyph-name="uni04CD" unicode="&#x4cd;" horiz-adv-x="1046" 
d="M951 103h90l-73 -194h-230l34 91h-66v435l-103 -435h-187l-116 435v-435h-245v700h342l111 -418l111 418h332v-597z" />
    <glyph glyph-name="uni04CE" unicode="&#x4ce;" horiz-adv-x="967" 
d="M868 103h89l-73 -194h-199l34 91h-76v298l-109 -298h-150l-109 298v-298h-225v513h317l92 -307l92 307h317v-410z" />
    <glyph glyph-name="uni04D0" unicode="&#x4d0;" horiz-adv-x="837" 
d="M832 0h-287l-21 77h-221l-21 -77h-277l266 700h286zM351 252h125l-62 229zM414 881q64 0 80 71h164q-14 -100 -81 -152t-163 -52t-163 52t-81 152h164q16 -71 80 -71z" />
    <glyph glyph-name="uni04D1" unicode="&#x4d1;" horiz-adv-x="692" 
d="M642 513v-513h-240v79q-12 -33 -56 -62.5t-99 -29.5q-101 0 -164 72.5t-63 196.5t63 196.5t164 72.5q55 0 99 -29.5t56 -62.5v80h240zM331 183q30 0 50.5 21.5t20.5 51.5t-20.5 51.5t-50.5 21.5t-50.5 -21.5t-20.5 -51.5t20.5 -51.5t50.5 -21.5zM358 701q64 0 80 71h164
q-14 -100 -81 -152t-163 -52t-163 52t-81 152h164q16 -71 80 -71z" />
    <glyph glyph-name="uni04D2" unicode="&#x4d2;" horiz-adv-x="837" 
d="M832 0h-287l-21 77h-221l-21 -77h-277l266 700h286zM351 252h125l-62 229zM423 846q0 51 35 86t87 35t87.5 -35.5t35.5 -85.5q0 -48 -36 -83.5t-87 -35.5q-52 0 -87 35t-35 84zM159 846q0 50 35.5 85.5t86.5 35.5q53 0 88.5 -35t35.5 -86q0 -49 -35.5 -84t-88.5 -35
q-51 0 -86.5 35.5t-35.5 83.5z" />
    <glyph glyph-name="uni04D3" unicode="&#x4d3;" horiz-adv-x="692" 
d="M402 0v79q-12 -33 -56 -62.5t-99 -29.5q-101 0 -164 72.5t-63 196.5t63 196.5t164 72.5q55 0 99 -29.5t56 -62.5v80h240v-513h-240zM331 183q30 0 50.5 21.5t20.5 51.5t-20.5 51.5t-50.5 21.5t-50.5 -21.5t-20.5 -51.5t20.5 -51.5t50.5 -21.5zM459 542q-52 0 -87 35
t-35 84q0 51 35 86t87 35t87.5 -35.5t35.5 -85.5q0 -48 -36 -83.5t-87 -35.5zM195 542q-51 0 -86.5 35.5t-35.5 83.5q0 50 35.5 85.5t86.5 35.5q53 0 88.5 -35t35.5 -86q0 -49 -35.5 -84t-88.5 -35z" />
    <glyph glyph-name="uni04D4" unicode="&#x4d4;" horiz-adv-x="995" 
d="M729 517v-83h219v-173h-219v-78h219v-183h-474v77h-161l-31 -77h-277l326 700h617v-183h-219zM474 252v229l-92 -229h92z" />
    <glyph glyph-name="uni04D5" unicode="&#x4d5;" horiz-adv-x="1058" 
d="M605 513q58 15 115 15q148 0 230 -72t82 -168q0 -43 -6 -77h-376q0 -78 73 -78q27 0 46 12t23 32h230q-15 -87 -92 -139.5t-205 -52.5q-65 0 -119 15h-196v79q-12 -33 -56 -62.5t-99 -29.5q-101 0 -164 72.5t-63 196.5t63 196.5t164 72.5q55 0 99 -29.5t56 -62.5v80h195z
M339 183q30 0 50.5 21.5t20.5 51.5t-20.5 51.5t-50.5 21.5t-50.5 -21.5t-20.5 -51.5t20.5 -51.5t50.5 -21.5zM721 386q-66 0 -71 -73h142q0 34 -19 53.5t-52 19.5z" />
    <glyph glyph-name="uni04D6" unicode="&#x4d6;" horiz-adv-x="576" 
d="M310 517v-83h219v-173h-219v-78h219v-183h-474v700h474v-183h-219zM297 881q64 0 80 71h164q-14 -100 -81 -152t-163 -52t-163 52t-81 152h164q16 -71 80 -71z" />
    <glyph glyph-name="uni04D7" unicode="&#x4d7;" horiz-adv-x="669" 
d="M261 211q0 -78 73 -78q27 0 46 12t23 32h230q-15 -87 -92 -139.5t-205 -52.5q-145 0 -230 72t-85 199q0 116 80.5 194t229.5 78q148 0 230 -72t82 -168q0 -43 -6 -77h-376zM332 386q-33 0 -52 -19.5t-19 -53.5h142q0 34 -19 53.5t-52 19.5zM337 701q64 0 80 71h164
q-14 -100 -81 -152t-163 -52t-163 52t-81 152h164q16 -71 80 -71z" />
    <glyph glyph-name="uni04D8" unicode="&#x4d8;" horiz-adv-x="816" 
d="M33 443q20 110 120.5 193.5t254.5 83.5q119 0 209 -52.5t134.5 -135.5t44.5 -182t-44.5 -182t-134.5 -135.5t-209 -52.5q-179 0 -283.5 108t-104.5 262q0 28 3 53h515q-9 52 -42.5 78t-83.5 26q-86 0 -115 -64h-264zM413 193q46 0 78.5 25t44.5 70h-251q27 -95 128 -95z
" />
    <glyph glyph-name="uni04D9" unicode="&#x4d9;" horiz-adv-x="669" 
d="M337 127q33 0 52 19.5t19 53.5h-142q0 -34 19 -53.5t52 -19.5zM408 302q0 78 -73 78q-27 0 -46 -12t-23 -32h-230q15 87 92 139.5t205 52.5q145 0 230 -72t85 -199q0 -116 -80.5 -194t-229.5 -78q-148 0 -230 72t-82 168q0 43 6 77h376z" />
    <glyph glyph-name="uni04DA" unicode="&#x4da;" horiz-adv-x="816" 
d="M33 443q20 110 120.5 193.5t254.5 83.5q119 0 209 -52.5t134.5 -135.5t44.5 -182t-44.5 -182t-134.5 -135.5t-209 -52.5q-179 0 -283.5 108t-104.5 262q0 28 3 53h515q-9 52 -42.5 78t-83.5 26q-86 0 -115 -64h-264zM413 193q46 0 78.5 25t44.5 70h-251q27 -95 128 -95z
M281 727q-51 0 -86.5 35.5t-35.5 83.5q0 50 35.5 85.5t86.5 35.5q53 0 88.5 -35t35.5 -86q0 -49 -35.5 -84t-88.5 -35zM423 846q0 51 35 86t87 35t87.5 -35.5t35.5 -85.5q0 -48 -36 -83.5t-87 -35.5q-52 0 -87 35t-35 84z" />
    <glyph glyph-name="uni04DB" unicode="&#x4db;" horiz-adv-x="669" 
d="M408 302q0 78 -73 78q-27 0 -46 -12t-23 -32h-230q15 87 92 139.5t205 52.5q145 0 230 -72t85 -199q0 -116 -80.5 -194t-229.5 -78q-148 0 -230 72t-82 168q0 43 6 77h376zM337 127q33 0 52 19.5t19 53.5h-142q0 -34 19 -53.5t52 -19.5zM350 661q0 51 35 86t87 35
t87.5 -35.5t35.5 -85.5q0 -48 -36 -83.5t-87 -35.5q-52 0 -87 35t-35 84zM86 661q0 50 35.5 85.5t86.5 35.5q53 0 88.5 -35t35.5 -86q0 -49 -35.5 -84t-88.5 -35q-51 0 -86.5 35.5t-35.5 83.5z" />
    <glyph glyph-name="uni04DC" unicode="&#x4dc;" horiz-adv-x="1147" 
d="M290 0h-285l238 343q-50 17 -67 48l-30 56q-26 48 -78 48h-22v210h75q74 0 121.5 -20t75.5 -77l49 -103q23 -47 37.5 -63.5t38.5 -16.5h7v275h247v-275h7q24 0 38.5 16.5t37.5 63.5l49 103q28 57 75.5 77t121.5 20h75v-210h-22q-52 0 -78 -48l-30 -56q-17 -31 -67 -48
l238 -343h-285l-160 284v-284h-247v284zM584 846q0 51 35 86t87 35t87.5 -35.5t35.5 -85.5q0 -48 -36 -83.5t-87 -35.5q-52 0 -87 35t-35 84zM320 846q0 50 35.5 85.5t86.5 35.5q53 0 88.5 -35t35.5 -86q0 -49 -35.5 -84t-88.5 -35q-51 0 -86.5 35.5t-35.5 83.5z" />
    <glyph glyph-name="uni04DD" unicode="&#x4dd;" horiz-adv-x="936" 
d="M255 0h-250l171 253q-26 12 -40 36l-12 20q-12 19 -24.5 26.5t-37.5 7.5h-24v175h74q68 0 102.5 -17.5t60.5 -67.5l36 -72q10 -20 19.5 -29t25.5 -9h5v190h214v-190h5q16 0 25.5 9t19.5 29l36 72q26 50 60.5 67.5t102.5 17.5h74v-175h-24q-25 0 -37.5 -7.5t-24.5 -26.5
l-12 -20q-14 -24 -40 -36l171 -253h-250l-106 196v-196h-214v196zM337 542q-51 0 -86.5 35.5t-35.5 83.5q0 50 35.5 85.5t86.5 35.5q53 0 88.5 -35t35.5 -86q0 -49 -35.5 -84t-88.5 -35zM601 542q-52 0 -87 35t-35 84q0 51 35 86t87 35t87.5 -35.5t35.5 -85.5
q0 -48 -36 -83.5t-87 -35.5z" />
    <glyph glyph-name="uni04DE" unicode="&#x4de;" horiz-adv-x="689" 
d="M280 238q0 -34 11 -50t42 -16q49 0 49 50q0 62 -67 62h-95v163h93q42 0 58 14t16 44q0 46 -47 46q-31 0 -40.5 -15t-9.5 -48h-270q0 232 318 232q319 0 319 -203q0 -59 -40.5 -104t-89.5 -54q54 -13 92 -60.5t38 -114.5q0 -69 -47.5 -116.5t-116 -67.5t-149.5 -20
q-100 0 -168.5 21t-103 59t-48.5 80.5t-14 97.5h270zM210 739q-51 0 -86.5 35.5t-35.5 83.5q0 50 35.5 85.5t86.5 35.5q53 0 88.5 -35t35.5 -86q0 -49 -35.5 -84t-88.5 -35zM352 858q0 51 35 86t87 35t87.5 -35.5t35.5 -85.5q0 -48 -36 -83.5t-87 -35.5q-52 0 -87 35t-35 84
z" />
    <glyph glyph-name="uni04DF" unicode="&#x4df;" horiz-adv-x="603" 
d="M254 181q0 -30 9 -44t32 -14q34 0 34 36q0 29 -17.5 40t-56.5 11h-55v110h54q79 0 79 49q0 34 -36 34q-22 0 -31 -13t-9 -41h-239q0 179 289 179q116 0 190 -36t74 -114q0 -58 -35 -85t-84 -32q119 -9 119 -120q0 -52 -41.5 -90t-101 -54.5t-126.5 -16.5q-87 0 -147 16
t-90 46t-42.5 63t-12.5 76h244zM173 542q-51 0 -86.5 35.5t-35.5 83.5q0 50 35.5 85.5t86.5 35.5q53 0 88.5 -35t35.5 -86q0 -49 -35.5 -84t-88.5 -35zM315 661q0 51 35 86t87 35t87.5 -35.5t35.5 -85.5q0 -48 -36 -83.5t-87 -35.5q-52 0 -87 35t-35 84z" />
    <glyph glyph-name="uni04E0" unicode="&#x4e0;" horiz-adv-x="689" 
d="M280 238q0 -66 58 -66q54 0 54 55q0 57 -77 57h-107l110 213h-252v203h580l-149 -291q69 -14 114.5 -66t45.5 -129q0 -59 -27 -105.5t-72.5 -73.5t-100 -41t-113.5 -14q-97 0 -164.5 20.5t-103.5 57.5t-51 80.5t-15 99.5h270z" />
    <glyph glyph-name="uni04E1" unicode="&#x4e1;" horiz-adv-x="676" 
d="M275 51q0 -66 58 -66q54 0 54 70q0 39 -18 55.5t-54 16.5h-119l110 183h-240v203h580l-154 -291q65 -15 107.5 -66.5t42.5 -128.5q0 -59 -25.5 -105t-69 -72t-94.5 -39t-109 -13q-97 0 -164.5 19.5t-103.5 55.5t-51 79t-15 99h265z" />
    <glyph glyph-name="uni04E2" unicode="&#x4e2;" horiz-adv-x="790" 
d="M480 340l-170 -292v-48h-255v700h255v-340l170 292v48h255v-700h-255v340zM592 776h-388v150h388v-150z" />
    <glyph glyph-name="uni04E3" unicode="&#x4e3;" horiz-adv-x="697" 
d="M423 248l-149 -216v-32h-224v513h224v-259l149 216v43h224v-513h-224v248zM538 586h-388v150h388v-150z" />
    <glyph glyph-name="uni04E4" unicode="&#x4e4;" horiz-adv-x="790" 
d="M480 340l-170 -292v-48h-255v700h255v-340l170 292v48h255v-700h-255v340zM409 846q0 51 35 86t87 35t87.5 -35.5t35.5 -85.5q0 -48 -36 -83.5t-87 -35.5q-52 0 -87 35t-35 84zM145 846q0 50 35.5 85.5t86.5 35.5q53 0 88.5 -35t35.5 -86q0 -49 -35.5 -84t-88.5 -35
q-51 0 -86.5 35.5t-35.5 83.5z" />
    <glyph glyph-name="uni04E5" unicode="&#x4e5;" horiz-adv-x="697" 
d="M423 248l-149 -216v-32h-224v513h224v-259l149 216v43h224v-513h-224v248zM221 542q-51 0 -86.5 35.5t-35.5 83.5q0 50 35.5 85.5t86.5 35.5q53 0 88.5 -35t35.5 -86q0 -49 -35.5 -84t-88.5 -35zM485 542q-52 0 -87 35t-35 84q0 51 35 86t87 35t87.5 -35.5t35.5 -85.5
q0 -48 -36 -83.5t-87 -35.5z" />
    <glyph glyph-name="uni04E6" unicode="&#x4e6;" horiz-adv-x="816" 
d="M408 -20q-179 0 -283.5 108t-104.5 262t104.5 262t283.5 108q119 0 209 -52.5t134.5 -135.5t44.5 -182t-44.5 -182t-134.5 -135.5t-209 -52.5zM275 350q0 -57 36 -97t97 -40t97 40t36 97t-36 97t-97 40t-97 -40t-36 -97zM270 732q-51 0 -86.5 35.5t-35.5 83.5
q0 50 35.5 85.5t86.5 35.5q53 0 88.5 -35t35.5 -86q0 -49 -35.5 -84t-88.5 -35zM412 851q0 51 35 86t87 35t87.5 -35.5t35.5 -85.5q0 -48 -36 -83.5t-87 -35.5q-52 0 -87 35t-35 84z" />
    <glyph glyph-name="uni04E7" unicode="&#x4e7;" horiz-adv-x="662" 
d="M193 542q-51 0 -86.5 35.5t-35.5 83.5q0 50 35.5 85.5t86.5 35.5q53 0 88.5 -35t35.5 -86q0 -49 -35.5 -84t-88.5 -35zM335 661q0 51 35 86t87 35t87.5 -35.5t35.5 -85.5q0 -48 -36 -83.5t-87 -35.5q-52 0 -87 35t-35 84zM331 183q32 0 51.5 20.5t19.5 52.5t-19.5 52.5
t-51.5 20.5t-51.5 -20.5t-19.5 -52.5t19.5 -52.5t51.5 -20.5zM331 -15q-147 0 -229 77t-82 194q0 118 82 195t229 77t229 -77t82 -195q0 -117 -82 -194t-229 -77z" />
    <glyph glyph-name="uni04E8" unicode="&#x4e8;" horiz-adv-x="816" 
d="M408 -20q-179 0 -283.5 108t-104.5 262t104.5 262t283.5 108q119 0 209 -52.5t134.5 -135.5t44.5 -182t-44.5 -182t-134.5 -135.5t-209 -52.5zM408 487q-47 0 -79.5 -24t-45.5 -63h250q-13 39 -46 63t-79 24zM408 213q47 0 79.5 24.5t45.5 64.5h-251q13 -40 45.5 -64.5
t80.5 -24.5z" />
    <glyph glyph-name="uni04E9" unicode="&#x4e9;" horiz-adv-x="662" 
d="M331 -15q-147 0 -229 77t-82 194q0 118 82 195t229 77t229 -77t82 -195q0 -117 -82 -194t-229 -77zM331 329q-53 0 -68 -47h135q-15 47 -67 47zM331 183q52 0 67 47h-134q15 -47 67 -47z" />
    <glyph glyph-name="uni04EA" unicode="&#x4ea;" horiz-adv-x="816" 
d="M408 -20q-179 0 -283.5 108t-104.5 262t104.5 262t283.5 108q119 0 209 -52.5t134.5 -135.5t44.5 -182t-44.5 -182t-134.5 -135.5t-209 -52.5zM408 487q-47 0 -79.5 -24t-45.5 -63h250q-13 39 -46 63t-79 24zM408 213q47 0 79.5 24.5t45.5 64.5h-251q13 -40 45.5 -64.5
t80.5 -24.5zM421 846q0 51 35 86t87 35t87.5 -35.5t35.5 -85.5q0 -48 -36 -83.5t-87 -35.5q-52 0 -87 35t-35 84zM279 727q-51 0 -86.5 35.5t-35.5 83.5q0 50 35.5 85.5t86.5 35.5q53 0 88.5 -35t35.5 -86q0 -49 -35.5 -84t-88.5 -35z" />
    <glyph glyph-name="uni04EB" unicode="&#x4eb;" horiz-adv-x="662" 
d="M331 -15q-147 0 -229 77t-82 194q0 118 82 195t229 77t229 -77t82 -195q0 -117 -82 -194t-229 -77zM331 329q-53 0 -68 -47h135q-15 47 -67 47zM331 183q52 0 67 47h-134q15 -47 67 -47zM340 661q0 51 35 86t87 35t87.5 -35.5t35.5 -85.5q0 -48 -36 -83.5t-87 -35.5
q-52 0 -87 35t-35 84zM198 542q-51 0 -86.5 35.5t-35.5 83.5q0 50 35.5 85.5t86.5 35.5q53 0 88.5 -35t35.5 -86q0 -49 -35.5 -84t-88.5 -35z" />
    <glyph glyph-name="uni04EC" unicode="&#x4ec;" horiz-adv-x="816" 
d="M359 403h166q-8 39 -38 62t-73 23q-105 0 -125 -93h-266q13 140 112 232.5t263 92.5q184 0 291 -104t107 -266t-107.5 -266t-293.5 -104q-164 0 -262 92t-113 230h266q7 -39 39 -64.5t89 -25.5q89 0 109 76h-164v115zM271 727q-51 0 -86.5 35.5t-35.5 83.5
q0 50 35.5 85.5t86.5 35.5q53 0 88.5 -35t35.5 -86q0 -49 -35.5 -84t-88.5 -35zM413 846q0 51 35 86t87 35t87.5 -35.5t35.5 -85.5q0 -48 -36 -83.5t-87 -35.5q-52 0 -87 35t-35 84z" />
    <glyph glyph-name="uni04ED" unicode="&#x4ed;" horiz-adv-x="662" 
d="M20 287q12 110 94 175.5t217 65.5q151 0 231 -77t80 -195t-80 -194.5t-231 -76.5q-136 0 -217.5 64t-93.5 173h241q13 -72 77 -72q68 0 72 64h-111v80h111q-5 69 -71 69q-65 0 -79 -76h-240zM209 542q-51 0 -86.5 35.5t-35.5 83.5q0 50 35.5 85.5t86.5 35.5
q53 0 88.5 -35t35.5 -86q0 -49 -35.5 -84t-88.5 -35zM351 661q0 51 35 86t87 35t87.5 -35.5t35.5 -85.5q0 -48 -36 -83.5t-87 -35.5q-52 0 -87 35t-35 84z" />
    <glyph glyph-name="uni04EE" unicode="&#x4ee;" horiz-adv-x="718" 
d="M387 0h-287l111 230l-221 470h300l75 -223l84 223h285zM561 776h-388v150h388v-150z" />
    <glyph glyph-name="uni04EF" unicode="&#x4ef;" horiz-adv-x="689" 
d="M342 -202q-84 0 -135 11.5t-88 40.5q-73 58 -73 144h240q0 -22 15 -36.5t43 -14.5q31 0 43.5 17.5t12.5 57.5v82q-38 -88 -158 -88q-84 0 -137 47q-31 29 -42 68.5t-11 104.5v281h240v-258q0 -70 52 -70q28 0 42 19t14 65v244h240v-464q0 -66 -23 -117t-60 -79
q-40 -31 -87 -43t-128 -12zM550 586h-388v150h388v-150z" />
    <glyph glyph-name="uni04F0" unicode="&#x4f0;" horiz-adv-x="718" 
d="M387 0h-287l111 230l-221 470h300l75 -223l84 223h285zM372 846q0 51 35 86t87 35t87.5 -35.5t35.5 -85.5q0 -48 -36 -83.5t-87 -35.5q-52 0 -87 35t-35 84zM108 846q0 50 35.5 85.5t86.5 35.5q53 0 88.5 -35t35.5 -86q0 -49 -35.5 -84t-88.5 -35q-51 0 -86.5 35.5
t-35.5 83.5z" />
    <glyph glyph-name="uni04F1" unicode="&#x4f1;" horiz-adv-x="689" 
d="M342 -202q-84 0 -135 11.5t-88 40.5q-73 58 -73 144h240q0 -22 15 -36.5t43 -14.5q31 0 43.5 17.5t12.5 57.5v82q-38 -88 -158 -88q-84 0 -137 47q-31 29 -42 68.5t-11 104.5v281h240v-258q0 -70 52 -70q28 0 42 19t14 65v244h240v-464q0 -66 -23 -117t-60 -79
q-40 -31 -87 -43t-128 -12zM351 661q0 51 35 86t87 35t87.5 -35.5t35.5 -85.5q0 -48 -36 -83.5t-87 -35.5q-52 0 -87 35t-35 84zM87 661q0 50 35.5 85.5t86.5 35.5q53 0 88.5 -35t35.5 -86q0 -49 -35.5 -84t-88.5 -35q-51 0 -86.5 35.5t-35.5 83.5z" />
    <glyph glyph-name="uni04F2" unicode="&#x4f2;" horiz-adv-x="718" 
d="M387 0h-287l111 230l-221 470h300l75 -223l84 223h285zM502 997l126 -88l-169 -146l-82 28zM307 997l126 -88l-169 -146l-82 28z" />
    <glyph glyph-name="uni04F3" unicode="&#x4f3;" horiz-adv-x="689" 
d="M342 -202q-84 0 -135 11.5t-88 40.5q-73 58 -73 144h240q0 -22 15 -36.5t43 -14.5q31 0 43.5 17.5t12.5 57.5v82q-38 -88 -158 -88q-84 0 -137 47q-31 29 -42 68.5t-11 104.5v281h240v-258q0 -70 52 -70q28 0 42 19t14 65v244h240v-464q0 -66 -23 -117t-60 -79
q-40 -31 -87 -43t-128 -12zM255 560l-82 28l125 206l126 -88zM450 560l-82 28l125 206l126 -88z" />
    <glyph glyph-name="uni04F4" unicode="&#x4f4;" horiz-adv-x="716" 
d="M406 0v186h-151q-105 0 -172.5 63t-67.5 162v289h255v-236q0 -59 23 -81.5t68 -22.5h45v340h255v-700h-255zM353 846q0 51 35 86t87 35t87.5 -35.5t35.5 -85.5q0 -48 -36 -83.5t-87 -35.5q-52 0 -87 35t-35 84zM89 846q0 50 35.5 85.5t86.5 35.5q53 0 88.5 -35t35.5 -86
q0 -49 -35.5 -84t-88.5 -35q-51 0 -86.5 35.5t-35.5 83.5z" />
    <glyph glyph-name="uni04F5" unicode="&#x4f5;" horiz-adv-x="620" 
d="M346 0v129h-134q-92 0 -142 46t-50 136v202h224v-164q0 -68 70 -68h32v232h224v-513h-224zM307 661q0 51 35 86t87 35t87.5 -35.5t35.5 -85.5q0 -48 -36 -83.5t-87 -35.5q-52 0 -87 35t-35 84zM43 661q0 50 35.5 85.5t86.5 35.5q53 0 88.5 -35t35.5 -86q0 -49 -35.5 -84
t-88.5 -35q-51 0 -86.5 35.5t-35.5 83.5z" />
    <glyph glyph-name="uni04F8" unicode="&#x4f8;" horiz-adv-x="1024" 
d="M310 700v-251h169q91 0 148 -64t57 -160q0 -95 -57 -160t-148 -65h-424v700h255zM310 282v-115h42q35 0 53.5 16t18.5 43q0 56 -72 56h-42zM714 700h255v-700h-255v700zM522 845q0 51 35 86t87 35t87.5 -35.5t35.5 -85.5q0 -48 -36 -83.5t-87 -35.5q-52 0 -87 35t-35 84z
M258 845q0 50 35.5 85.5t86.5 35.5q53 0 88.5 -35t35.5 -86q0 -49 -35.5 -84t-88.5 -35q-51 0 -86.5 35.5t-35.5 83.5z" />
    <glyph glyph-name="uni04F9" unicode="&#x4f9;" horiz-adv-x="911" 
d="M621 513h240v-513h-240v513zM50 513h224v-153h115q207 0 207 -180q0 -30 -9 -58t-30 -57t-64.5 -47t-103.5 -18h-339v513zM274 226v-100h49q23 0 37.5 14.5t14.5 35.5t-14 35.5t-37 14.5h-50zM459 661q0 51 35 86t87 35t87.5 -35.5t35.5 -85.5q0 -48 -36 -83.5t-87 -35.5
q-52 0 -87 35t-35 84zM195 661q0 50 35.5 85.5t86.5 35.5q53 0 88.5 -35t35.5 -86q0 -49 -35.5 -84t-88.5 -35q-51 0 -86.5 35.5t-35.5 83.5z" />
    <glyph glyph-name="Wgrave" unicode="&#x1e80;" horiz-adv-x="1140" 
d="M570 322l-94 -322h-231l-257 700h270l106 -378l103 378h206l103 -378l106 378h270l-257 -700h-231zM384 832l41 147l330 -110l-41 -147z" />
    <glyph glyph-name="wgrave" unicode="&#x1e81;" horiz-adv-x="903" 
d="M451 226l-51 -226h-226l-177 513h239l67 -269l44 269h209l44 -269l67 269h239l-177 -513h-226zM266 647l41 147l330 -110l-41 -147z" />
    <glyph glyph-name="Wacute" unicode="&#x1e82;" horiz-adv-x="1140" 
d="M570 322l-94 -322h-231l-257 700h270l106 -378l103 378h206l103 -378l106 378h270l-257 -700h-231zM425 722l-41 147l330 110l41 -147z" />
    <glyph glyph-name="wacute" unicode="&#x1e83;" horiz-adv-x="903" 
d="M451 226l-51 -226h-226l-177 513h239l67 -269l44 269h209l44 -269l67 269h239l-177 -513h-226zM307 537l-41 147l330 110l41 -147z" />
    <glyph glyph-name="Wdieresis" unicode="&#x1e84;" horiz-adv-x="1140" 
d="M570 322l-94 -322h-231l-257 700h270l106 -378l103 378h206l103 -378l106 378h270l-257 -700h-231zM579 851q0 51 35 86t87 35t87.5 -35.5t35.5 -85.5q0 -48 -36 -83.5t-87 -35.5q-52 0 -87 35t-35 84zM315 851q0 50 35.5 85.5t86.5 35.5q53 0 88.5 -35t35.5 -86
q0 -49 -35.5 -84t-88.5 -35q-51 0 -86.5 35.5t-35.5 83.5z" />
    <glyph glyph-name="wdieresis" unicode="&#x1e85;" horiz-adv-x="903" 
d="M451 226l-51 -226h-226l-177 513h239l67 -269l44 269h209l44 -269l67 269h239l-177 -513h-226zM461 660q0 51 35 86t87 35t87.5 -35.5t35.5 -85.5q0 -48 -36 -83.5t-87 -35.5q-52 0 -87 35t-35 84zM197 660q0 50 35.5 85.5t86.5 35.5q53 0 88.5 -35t35.5 -86
q0 -49 -35.5 -84t-88.5 -35q-51 0 -86.5 35.5t-35.5 83.5z" />
    <glyph glyph-name="Ygrave" unicode="&#x1ef2;" horiz-adv-x="718" 
d="M387 0h-287l111 230l-221 470h300l75 -223l84 223h285zM173 832l41 147l330 -110l-41 -147z" />
    <glyph glyph-name="ygrave" unicode="&#x1ef3;" horiz-adv-x="689" 
d="M342 -202q-84 0 -135 11.5t-88 40.5q-73 58 -73 144h240q0 -22 15 -36.5t43 -14.5q31 0 43.5 17.5t12.5 57.5v82q-38 -88 -158 -88q-84 0 -137 47q-31 29 -42 68.5t-11 104.5v281h240v-258q0 -70 52 -70q28 0 42 19t14 65v244h240v-464q0 -66 -23 -117t-60 -79
q-40 -31 -87 -43t-128 -12zM159 647l41 147l330 -110l-41 -147z" />
    <glyph glyph-name="thinspace" unicode="&#x2009;" horiz-adv-x="200" 
 />
    <glyph glyph-name="endash" unicode="&#x2013;" horiz-adv-x="503" 
d="M20 236v173h463v-173h-463z" />
    <glyph glyph-name="emdash" unicode="&#x2014;" horiz-adv-x="1006" 
d="M35 236v173h936v-173h-936z" />
    <glyph glyph-name="quoteleft" unicode="&#x2018;" horiz-adv-x="329" 
d="M310 431q0 -56 -38 -95t-92 -39q-67 0 -108.5 47t-41.5 122q0 145 69.5 209.5t204.5 64.5v-81q-77 0 -119 -35q-35 -28 -40 -74q8 11 35 11q58 0 94 -38t36 -92z" />
    <glyph glyph-name="quoteright" unicode="&#x2019;" horiz-adv-x="329" 
d="M19 606q0 56 38 95t92 39q67 0 108.5 -47t41.5 -122q0 -145 -69.5 -209.5t-204.5 -64.5v81q77 0 119 35q35 28 40 74q-9 -11 -35 -11q-58 0 -94 38t-36 92z" />
    <glyph glyph-name="quotesinglbase" unicode="&#x201a;" horiz-adv-x="329" 
d="M19 100q0 56 38 95t92 39q67 0 108.5 -47t41.5 -122q0 -145 -69.5 -209.5t-204.5 -64.5v81q77 0 119 35q35 28 40 74q-8 -11 -35 -11q-58 0 -94 38t-36 92z" />
    <glyph glyph-name="quotedblleft" unicode="&#x201c;" horiz-adv-x="629" 
d="M610 431q0 -56 -38 -95t-92 -39q-67 0 -108.5 47t-41.5 122q0 145 69.5 209.5t204.5 64.5v-81q-77 0 -119 -35q-35 -28 -40 -74q8 11 35 11q58 0 94 -38t36 -92zM310 431q0 -56 -38 -95t-92 -39q-67 0 -108.5 47t-41.5 122q0 145 69.5 209.5t204.5 64.5v-81
q-77 0 -119 -35q-35 -28 -40 -74q8 11 35 11q58 0 94 -38t36 -92z" />
    <glyph glyph-name="quotedblright" unicode="&#x201d;" horiz-adv-x="629" 
d="M19 606q0 56 38 95t92 39q67 0 108.5 -47t41.5 -122q0 -145 -69.5 -209.5t-204.5 -64.5v81q77 0 119 35q35 28 40 74q-8 -11 -35 -11q-58 0 -94 38t-36 92zM319 606q0 56 38 95t92 39q67 0 108.5 -47t41.5 -122q0 -145 -69.5 -209.5t-204.5 -64.5v81q77 0 119 35
q35 28 40 74q-8 -11 -35 -11q-58 0 -94 38t-36 92z" />
    <glyph glyph-name="quotedblbase" unicode="&#x201e;" horiz-adv-x="629" 
d="M19 100q0 56 38 95t92 39q67 0 108.5 -47t41.5 -122q0 -145 -69.5 -209.5t-204.5 -64.5v81q77 0 119 35q35 28 40 74q-8 -11 -35 -11q-58 0 -94 38t-36 92zM319 100q0 56 38 95t92 39q67 0 108.5 -47t41.5 -122q0 -145 -69.5 -209.5t-204.5 -64.5v81q77 0 119 35
q35 28 40 74q-8 -11 -35 -11q-58 0 -94 38t-36 92z" />
    <glyph glyph-name="dagger" unicode="&#x2020;" horiz-adv-x="425" 
d="M135 -181v491h-115v140h115v267h155v-267h115v-140h-115v-491h-155z" />
    <glyph glyph-name="daggerdbl" unicode="&#x2021;" horiz-adv-x="425" 
d="M290 717v-204h115v-140h-115v-233h115v-140h-115v-181h-155v181h-115v140h115v233h-115v140h115v204h155z" />
    <glyph glyph-name="bullet" unicode="&#x2022;" horiz-adv-x="383" 
d="M20 312q0 69 49.5 118t121.5 49q74 0 123 -48.5t49 -118.5t-49.5 -119t-122.5 -49q-72 0 -121.5 49t-49.5 119z" />
    <glyph glyph-name="ellipsis" unicode="&#x2026;" horiz-adv-x="1029" 
d="M30 126q0 57 41 98t101 41q61 0 102 -40.5t41 -98.5t-41 -99t-102 -41q-60 0 -101 41t-41 99zM372 125q0 57 41 98t101 41q61 0 102 -40.5t41 -98.5t-41 -99t-102 -41q-60 0 -101 41t-41 99zM714 125q0 57 41 98t101 41q61 0 102 -40.5t41 -98.5t-41 -99t-102 -41
q-60 0 -101 41t-41 99z" />
    <glyph glyph-name="perthousand" unicode="&#x2030;" horiz-adv-x="1353" 
d="M1100 132q0 -12 7.5 -20.5t19.5 -8.5t19.5 8.5t7.5 20.5v121q0 12 -7.5 20.5t-19.5 8.5t-19.5 -8.5t-7.5 -20.5v-121zM1299 132q0 -60 -47.5 -101.5t-124.5 -41.5q-79 0 -125.5 41.5t-46.5 101.5v121q0 60 46.5 101.5t125.5 41.5q77 0 124.5 -41.5t47.5 -101.5v-121z
M738 396q77 0 124.5 -41.5t47.5 -101.5v-121q0 -60 -47.5 -101.5t-124.5 -41.5q-79 0 -125.5 41.5t-46.5 101.5v121q0 60 46.5 101.5t125.5 41.5zM738 282q-12 0 -19.5 -8.5t-7.5 -20.5v-121q0 -12 7.5 -20.5t19.5 -8.5t19.5 8.5t7.5 20.5v121q0 12 -7.5 20.5t-19.5 8.5z
M54 568q0 60 46.5 101.5t125.5 41.5q77 0 124.5 -41.5t47.5 -101.5v-121q0 -60 -47.5 -101.5t-124.5 -41.5q-79 0 -125.5 41.5t-46.5 101.5v121zM253 568q0 12 -7.5 20.5t-19.5 8.5t-19.5 -8.5t-7.5 -20.5v-121q0 -12 7.5 -20.5t19.5 -8.5t19.5 8.5t7.5 20.5v121zM571 759
l142 -61l-325 -756l-142 61z" />
    <glyph glyph-name="guilsinglleft" unicode="&#x2039;" horiz-adv-x="323" 
d="M278 43l-248 193v110l248 193v-190l-90 -58l90 -58v-190z" />
    <glyph glyph-name="guilsinglright" unicode="&#x203a;" horiz-adv-x="323" 
d="M45 233l90 58l-90 58v190l248 -193v-110l-248 -193v190z" />
    <glyph glyph-name="fraction" unicode="&#x2044;" horiz-adv-x="167" 
d="M175 759l142 -61l-325 -756l-142 61z" />
    <glyph glyph-name="zerosuperior" unicode="&#x2070;" horiz-adv-x="442" 
d="M49 568q0 60 46.5 101.5t125.5 41.5q77 0 124.5 -41.5t47.5 -101.5v-121q0 -60 -47.5 -101.5t-124.5 -41.5q-79 0 -125.5 41.5t-46.5 101.5v121zM248 568q0 12 -7.5 20.5t-19.5 8.5t-19.5 -8.5t-7.5 -20.5v-121q0 -12 7.5 -20.5t19.5 -8.5t19.5 8.5t7.5 20.5v121z" />
    <glyph glyph-name="foursuperior" unicode="&#x2074;" horiz-adv-x="457" 
d="M235 401h-183v299h145v-184h38v87h144v-87h33v-115h-33v-86h-144v86z" />
    <glyph glyph-name="fivesuperior" unicode="&#x2075;" horiz-adv-x="444" 
d="M60 700h318v-97h-182v-41q25 23 69 23q63 0 95.5 -40.5t32.5 -89.5q0 -66 -45.5 -108.5t-127.5 -42.5q-83 0 -128 42t-45 106h136q0 -16 10 -27t27 -11t27 11.5t10 29.5q0 15 -9.5 26.5t-25.5 11.5q-25 0 -37 -19h-125v226z" />
    <glyph glyph-name="sixsuperior" unicode="&#x2076;" horiz-adv-x="427" 
d="M213 305q-82 0 -127.5 43t-45.5 107q0 49 22 81l113 164h159l-68 -99q30 -7 55 -22q65 -41 65 -124q0 -64 -45.5 -107t-127.5 -43zM213 417q17 0 27 10.5t10 27.5t-10 27.5t-27 10.5t-27 -10.5t-10 -27.5t10 -27.5t27 -10.5z" />
    <glyph glyph-name="sevensuperior" unicode="&#x2077;" horiz-adv-x="414" 
d="M390 700l-164 -385h-156l116 270h-141v115h345z" />
    <glyph glyph-name="eightsuperior" unicode="&#x2078;" horiz-adv-x="432" 
d="M216 304q-82 0 -127.5 33t-45.5 85q0 36 24.5 61.5t50.5 28.5q-24 7 -44 31t-20 55q0 50 43 81.5t119 31.5q77 0 120 -31.5t43 -81.5q0 -31 -20.5 -55t-44.5 -31q29 -7 52 -31t23 -60q0 -51 -45.5 -84t-127.5 -33zM216 562q14 0 23 8.5t9 20.5q0 13 -9 22t-23 9
q-15 0 -23.5 -9t-8.5 -22q0 -12 9 -20.5t23 -8.5zM216 393q17 0 27 10t10 25t-10 25t-27 10t-27 -10t-10 -25t10 -25t27 -10z" />
    <glyph glyph-name="ninesuperior" unicode="&#x2079;" horiz-adv-x="427" 
d="M214 710q82 0 127.5 -43t45.5 -107q0 -49 -22 -81l-113 -164h-159l68 99q-57 12 -88.5 52t-31.5 94q0 64 45.5 107t127.5 43zM214 598q-17 0 -27 -10.5t-10 -27.5t10 -27.5t27 -10.5t27 10.5t10 27.5t-10 27.5t-27 10.5z" />
    <glyph glyph-name="plussuperior" unicode="&#x207a;" horiz-adv-x="437" 
d="M170 340v83h-83v97h83v83h97v-83h83v-97h-83v-83h-97z" />
    <glyph glyph-name="minussuperior" unicode="&#x207b;" horiz-adv-x="437" 
d="M87 423v97h263v-97h-263z" />
    <glyph glyph-name="equalsuperior" unicode="&#x207c;" horiz-adv-x="437" 
d="M87 487v98h263v-98h-263zM87 357v98h263v-98h-263z" />
    <glyph glyph-name="parenleftsuperior" unicode="&#x207d;" horiz-adv-x="290" 
d="M244 602q-34 0 -52.5 -20.5t-18.5 -52.5v-135q0 -31 18.5 -51.5t52.5 -20.5v-117q-95 0 -151 54t-56 135v135q0 81 56 135t151 54v-116z" />
    <glyph glyph-name="parenrightsuperior" unicode="&#x207e;" horiz-adv-x="290" 
d="M46 718q95 0 151 -54t56 -135v-135q0 -81 -56 -135t-151 -54v117q34 0 52.5 20.5t18.5 51.5v135q0 32 -18.5 52.5t-52.5 20.5v116z" />
    <glyph glyph-name="nsuperior" unicode="&#x207f;" horiz-adv-x="440" 
d="M57 599h136v-44q21 50 94 50q44 0 68 -21q30 -28 30 -102v-167h-136v142q0 37 -27 37q-29 0 -29 -45v-134h-136v284z" />
    <glyph glyph-name="zeroinferior" unicode="&#x2080;" horiz-adv-x="442" 
d="M49 53q0 60 46.5 101.5t125.5 41.5q77 0 124.5 -41.5t47.5 -101.5v-121q0 -60 -47.5 -101.5t-124.5 -41.5q-79 0 -125.5 41.5t-46.5 101.5v121zM248 53q0 12 -7.5 20.5t-19.5 8.5t-19.5 -8.5t-7.5 -20.5v-121q0 -12 7.5 -20.5t19.5 -8.5t19.5 8.5t7.5 20.5v121z" />
    <glyph glyph-name="oneinferior" unicode="&#x2081;" horiz-adv-x="329" 
d="M45 110q60 0 82.5 18.5t22.5 56.5h119v-385h-145v219h-79v91z" />
    <glyph glyph-name="twoinferior" unicode="&#x2082;" horiz-adv-x="438" 
d="M53 -200q0 92 24 136.5t75 73.5q55 31 73 45t18 29q0 23 -19 23q-13 0 -18.5 -8.5t-5.5 -30.5h-145q0 50 38 89t129 39q68 0 114.5 -28t46.5 -90q0 -40 -21.5 -69t-72.5 -55q-8 -4 -18.5 -9t-16 -7.5t-12.5 -6t-10 -6t-6.5 -5.5t-4.5 -6.5t-1 -7.5h160v-106h-327z" />
    <glyph glyph-name="threeinferior" unicode="&#x2083;" horiz-adv-x="429" 
d="M191 -69q0 -21 4.5 -30.5t18.5 -9.5q22 0 22 32q0 17 -7 23t-22 6h-54v98h53q20 0 27 6t7 21q0 30 -22 30q-14 0 -18 -9t-4 -30h-145q0 128 169 128q161 0 161 -112q0 -31 -21 -56.5t-45 -30.5q27 -7 46.5 -33.5t19.5 -62.5q0 -57 -46 -84.5t-111 -27.5q-102 0 -140 39
t-38 103h145z" />
    <glyph glyph-name="fourinferior" unicode="&#x2084;" horiz-adv-x="457" 
d="M235 -114h-183v299h145v-184h38v87h144v-87h33v-115h-33v-86h-144v86z" />
    <glyph glyph-name="fiveinferior" unicode="&#x2085;" horiz-adv-x="444" 
d="M60 185h318v-97h-182v-41q25 23 69 23q63 0 95.5 -40.5t32.5 -89.5q0 -66 -45.5 -108.5t-127.5 -42.5q-83 0 -128 42t-45 106h136q0 -16 10 -27t27 -11t27 11.5t10 29.5q0 15 -9.5 26.5t-25.5 11.5q-25 0 -37 -19h-125v226z" />
    <glyph glyph-name="sixinferior" unicode="&#x2086;" horiz-adv-x="427" 
d="M213 -210q-82 0 -127.5 43t-45.5 107q0 49 22 81l113 164h159l-68 -99q30 -7 55 -22q65 -41 65 -124q0 -64 -45.5 -107t-127.5 -43zM213 -98q17 0 27 10.5t10 27.5t-10 27.5t-27 10.5t-27 -10.5t-10 -27.5t10 -27.5t27 -10.5z" />
    <glyph glyph-name="seveninferior" unicode="&#x2087;" horiz-adv-x="414" 
d="M390 185l-164 -385h-156l116 270h-141v115h345z" />
    <glyph glyph-name="eightinferior" unicode="&#x2088;" horiz-adv-x="432" 
d="M216 -211q-82 0 -127.5 33t-45.5 85q0 36 24.5 61.5t50.5 28.5q-24 7 -44 31t-20 55q0 50 43 81.5t119 31.5q77 0 120 -31.5t43 -81.5q0 -31 -20.5 -55t-44.5 -31q29 -7 52 -31t23 -60q0 -51 -45.5 -84t-127.5 -33zM216 47q14 0 23 8.5t9 20.5q0 13 -9 22t-23 9
q-15 0 -23.5 -9t-8.5 -22q0 -12 9 -20.5t23 -8.5zM216 -122q17 0 27 10t10 25t-10 25t-27 10t-27 -10t-10 -25t10 -25t27 -10z" />
    <glyph glyph-name="nineinferior" unicode="&#x2089;" horiz-adv-x="427" 
d="M214 195q82 0 127.5 -43t45.5 -107q0 -49 -22 -81l-113 -164h-159l68 99q-57 12 -88.5 52t-31.5 94q0 64 45.5 107t127.5 43zM214 83q-17 0 -27 -10.5t-10 -27.5t10 -27.5t27 -10.5t27 10.5t10 27.5t-10 27.5t-27 10.5z" />
    <glyph glyph-name="parenleftinferior" unicode="&#x208d;" horiz-adv-x="290" 
d="M244 87q-34 0 -52.5 -20.5t-18.5 -52.5v-135q0 -31 18.5 -51.5t52.5 -20.5v-117q-95 0 -151 54t-56 135v135q0 81 56 135t151 54v-116z" />
    <glyph glyph-name="parenrightinferior" unicode="&#x208e;" horiz-adv-x="290" 
d="M46 203q95 0 151 -54t56 -135v-135q0 -81 -56 -135t-151 -54v117q34 0 52.5 20.5t18.5 51.5v135q0 32 -18.5 52.5t-52.5 20.5v116z" />
    <glyph glyph-name="Euro" unicode="&#x20ac;" horiz-adv-x="729" 
d="M704 240q0 -108 -85.5 -184t-223.5 -76q-141 0 -225 75.5t-84 184.5h-61l20 100h41v20h-61l20 100h41q0 109 84 184.5t225 75.5q138 0 223.5 -76t85.5 -184h-255q0 24 -15 40.5t-39 16.5q-25 0 -39.5 -16.5t-14.5 -40.5h98l-20 -100h-78v-20h98l-20 -100h-78
q0 -24 14.5 -40.5t39.5 -16.5q24 0 39 16.5t15 40.5h255z" />
    <glyph glyph-name="afii61289" unicode="&#x2113;" horiz-adv-x="586" 
d="M364 -19q-51 0 -81.5 3t-65.5 12.5t-56 32t-30 58.5l-61 -32l-75 161l127 71v220q0 96 70 153t170 57q57 0 99.5 -15t65 -36.5t36 -50.5t17 -50.5t3.5 -42.5q0 -51 -15.5 -91.5t-48.5 -75t-67 -60.5t-89 -64q-7 -5 -11 -7v-16q0 -58 86 -58q75 0 94 3v-160
q-57 -12 -168 -12zM382 554q-20 0 -26 -37q-4 -23 -4 -81q51 43 51 80q0 38 -21 38z" />
    <glyph glyph-name="afii61352" unicode="&#x2116;" horiz-adv-x="1310" 
d="M514 327v373h255v-700h-255l-204 353v-353h-255v700h255zM1051 279q-118 0 -183.5 61.5t-65.5 155.5q0 95 65.5 156t183.5 61t183.5 -61t65.5 -156q0 -94 -65.5 -155.5t-183.5 -61.5zM1051 437q26 0 41.5 16.5t15.5 42.5t-15.5 42t-41.5 16t-41.5 -16t-15.5 -42
t15.5 -42.5t41.5 -16.5zM802 130v133h498v-133h-498z" />
    <glyph glyph-name="trademark" unicode="&#x2122;" horiz-adv-x="877" 
d="M327 700h199l64 -244l64 244h194v-407h-143v253l-60 -253h-108l-67 253v-253h-143v407zM302 700v-125h-69v-282h-148v282h-69v125h286z" />
    <glyph glyph-name="Omega" unicode="&#x2126;" horiz-adv-x="738" 
d="M369 482q-40 0 -63 -26.5t-23 -69.5q0 -35 19.5 -59.5t51.5 -33.5v-293h-315v175h120v10q-131 81 -131 228q0 123 94 211t247 88t247 -88t94 -211q0 -71 -34.5 -130.5t-97.5 -97.5v-10h121v-175h-315v292q32 8 51.5 33.5t19.5 60.5q0 43 -23 69.5t-63 26.5z" />
    <glyph glyph-name="estimated" unicode="&#x212e;" horiz-adv-x="538" 
d="M199 263v-243q36 -12 80 -12q74 0 130.5 39.5t73.5 94.5h20q-16 -65 -77 -109.5t-147 -44.5q-123 0 -190.5 78.5t-67.5 191.5q0 119 67.5 194.5t186.5 75.5q99 0 168 -67t69 -165q0 -18 -1 -33h-312zM275 508q-41 0 -76 -12v-212h139v214q-29 10 -63 10z" />
    <glyph glyph-name="arrowleft" unicode="&#x2190;" horiz-adv-x="720" 
d="M10 350l312 288l92 -100l-124 -111h420v-154h-420l124 -111l-46 -50l-46 -50z" />
    <glyph glyph-name="arrowup" unicode="&#x2191;" horiz-adv-x="636" 
d="M318 700l288 -312l-100 -92l-111 123v-419h-154v419l-111 -123l-50 46l-50 46z" />
    <glyph glyph-name="arrowright" unicode="&#x2192;" horiz-adv-x="720" 
d="M710 350l-312 -288l-92 100l123 111h-419v154h419l-123 111l46 50l46 50z" />
    <glyph glyph-name="arrowdown" unicode="&#x2193;" horiz-adv-x="636" 
d="M318 0l-288 312l100 92l111 -124v420h154v-420l111 124l50 -46l50 -46z" />
    <glyph glyph-name="uni2196" unicode="&#x2196;" horiz-adv-x="609" 
d="M30 597l424 -16l-6 -136l-166 9l297 -297l-109 -109l-297 297l9 -166l-68 -3q-34 -2 -47 -2q-7 -1 -21 -1z" />
    <glyph glyph-name="uni2197" unicode="&#x2197;" horiz-adv-x="609" 
d="M579 597l-16 -424l-136 6l9 166l-297 -297l-109 109l297 297l-166 -9l-3 68q-3 35 -3 68z" />
    <glyph glyph-name="uni2198" unicode="&#x2198;" horiz-adv-x="609" 
d="M579 103l-424 16l6 136l166 -9l-297 297l109 109l297 -297l-9 166l68 3q10 0 20.5 0.5t18.5 1t14.5 1t10.5 0.5h4z" />
    <glyph glyph-name="uni2199" unicode="&#x2199;" horiz-adv-x="569" 
d="M10 103l16 424l136 -6l-9 -166l297 297l109 -109l-297 -297l166 9l3 -68q0 -21 2 -47q1 -7 1 -21z" />
    <glyph glyph-name="partialdiff" unicode="&#x2202;" 
d="M295 464q43 0 98 -11q-2 61 -13.5 84t-37.5 23q-53 0 -53 -67h-255q0 41 14.5 78t47.5 72t96.5 56t150.5 21q50 0 90.5 -7.5t82.5 -31t70 -61.5t46 -103t18 -152q0 -211 -78 -299.5t-233 -88.5q-157 0 -233 57t-76 196q0 95 72.5 164.5t192.5 69.5zM351 289
q-33 0 -48.5 -23.5t-15.5 -45.5q0 -61 44 -61q27 0 41 25.5t20 96.5q-18 8 -41 8z" />
    <glyph glyph-name="increment" unicode="&#x2206;" horiz-adv-x="837" 
d="M330 175h167l-83 306zM832 0h-827l266 700h286z" />
    <glyph glyph-name="product" unicode="&#x220f;" horiz-adv-x="769" 
d="M784 576h-70v-763h-255v763h-148v-763h-256v763h-70v218h799v-218z" />
    <glyph glyph-name="summation" unicode="&#x2211;" 
d="M-3 -187v210l357 286l-357 275v210h686v-215h-378l356 -255l-356 -296h378v-215h-686z" />
    <glyph glyph-name="minus" unicode="&#x2212;" 
d="M103 198v173h474v-173h-474z" />
    <glyph glyph-name="radical" unicode="&#x221a;" horiz-adv-x="952" 
d="M-16 308h347l88 -306l272 792h287l-416 -1028h-286l-134 327h-158v215z" />
    <glyph glyph-name="infinity" unicode="&#x221e;" horiz-adv-x="872" 
d="M619 528q115 0 180 -69t65 -170t-65 -170t-180 -69q-104 0 -183 104q-81 -104 -183 -104q-115 0 -180 69t-65 170t65 170t180 69q101 0 183 -105q80 105 183 105zM614 355q-24 0 -53 -17.5t-48 -48.5q19 -31 48 -48.5t53 -17.5q31 0 48.5 19t17.5 47t-17.5 47t-48.5 19z
M258 355q-31 0 -48.5 -19t-17.5 -47t17.5 -47t48.5 -19q24 0 53 17.5t48 48.5q-19 31 -48 48.5t-53 17.5z" />
    <glyph glyph-name="integral" unicode="&#x222b;" horiz-adv-x="392" 
d="M316 -48q0 -61 -13 -101t-40.5 -60t-59.5 -27.5t-79 -7.5q-90 0 -141 15v160q17 -4 42 -4q51 0 51 49v622q0 61 13 101t40.5 60t59.5 27.5t79 7.5q87 0 141 -15v-160q-17 4 -42 4q-51 0 -51 -49v-622z" />
    <glyph glyph-name="approxequal" unicode="&#x2248;" 
d="M103 196q46 58 118 58q46 0 126 -31q90 -36 114 -36q59 0 116 55v-173q-47 -59 -118 -59q-50 0 -114 33q-66 35 -130 35q-55 0 -112 -55v173zM103 427q47 59 118 59q43 0 126 -32q90 -36 114 -36q59 0 116 55v-173q-46 -58 -118 -58q-52 0 -114 32q-66 35 -130 35
q-55 0 -112 -55v173z" />
    <glyph glyph-name="notequal" unicode="&#x2260;" 
d="M339 81l-43 -101h-168l43 101h-68v173h143l25 59h-168v173h242l44 101h168l-44 -101h64v-173h-138l-25 -59h163v-173h-238z" />
    <glyph glyph-name="lessequal" unicode="&#x2264;" 
d="M577 238l-474 153v206l474 153v-205l-214 -51l214 -51v-205zM103 0v173h474v-173h-474z" />
    <glyph glyph-name="greaterequal" unicode="&#x2265;" 
d="M103 443l214 51l-214 51v205l474 -153v-206l-474 -153v205zM103 0v173h474v-173h-474z" />
    <glyph glyph-name="lozenge" unicode="&#x25ca;" horiz-adv-x="703" 
d="M0 396l191 398h320l192 -398l-190 -396h-322zM352 219l85 177l-86 177l-85 -177z" />
    <glyph glyph-name="commaaccent" unicode="&#xf6c3;" horiz-adv-x="228" 
d="M9 0q0 42 28.5 71.5t70.5 29.5q51 0 82 -35.5t31 -92.5q0 -110 -53 -158.5t-154 -48.5v62q59 0 90 26q25 19 30 56q-7 -9 -26 -9q-45 0 -72 28.5t-27 70.5z" />
    <glyph glyph-name="asuperior" unicode="&#xf6e9;" horiz-adv-x="448" 
d="M391 599v-284h-136v44q-6 -18 -30.5 -34.5t-55.5 -16.5q-55 0 -89.5 39.5t-34.5 109.5q0 69 34.5 108.5t89.5 39.5q31 0 55.5 -16.5t30.5 -34.5v45h136zM218 419q16 0 26.5 11t10.5 27q0 15 -10.5 26t-26.5 11t-26.5 -11t-10.5 -26q0 -16 10.5 -27t26.5 -11z" />
    <glyph glyph-name="bsuperior" unicode="&#xf6ea;" horiz-adv-x="448" 
d="M193 315h-136v385h136v-146q6 18 30.5 34.5t55.5 16.5q55 0 89.5 -39.5t34.5 -108.5q0 -70 -34.5 -109.5t-89.5 -39.5q-31 0 -55.5 16.5t-30.5 34.5v-44zM230 419q16 0 26.5 11t10.5 27q0 15 -10.5 26t-26.5 11t-26.5 -11t-10.5 -26q0 -16 10.5 -27t26.5 -11z" />
    <glyph glyph-name="dsuperior" unicode="&#xf6eb;" horiz-adv-x="448" 
d="M255 359q-6 -18 -30.5 -34.5t-55.5 -16.5q-55 0 -89.5 39.5t-34.5 109.5q0 69 34.5 108.5t89.5 39.5q31 0 55.5 -16.5t30.5 -34.5v146h136v-385h-136v44zM218 419q16 0 26.5 11t10.5 27q0 15 -10.5 26t-26.5 11t-26.5 -11t-10.5 -26q0 -16 10.5 -27t26.5 -11z" />
    <glyph glyph-name="esuperior" unicode="&#xf6ec;" horiz-adv-x="432" 
d="M177 431q0 -41 39 -41q32 0 37 23h130q-8 -49 -50.5 -77.5t-115.5 -28.5q-82 0 -129 39.5t-47 110.5q0 63 45 106.5t128 43.5t128.5 -40t45.5 -93q0 -27 -3 -43h-208zM215 527q-38 0 -38 -39h75q0 18 -10 28.5t-27 10.5z" />
    <glyph glyph-name="isuperior" unicode="&#xf6ed;" horiz-adv-x="260" 
d="M198 599v-284h-136v284h136zM55 675q0 30 21.5 51.5t53.5 21.5t53.5 -21.5t21.5 -51.5t-21.5 -51.5t-53.5 -21.5t-53.5 21.5t-21.5 51.5z" />
    <glyph glyph-name="lsuperior" unicode="&#xf6ee;" horiz-adv-x="250" 
d="M57 700h136v-385h-136v385z" />
    <glyph glyph-name="msuperior" unicode="&#xf6ef;" horiz-adv-x="593" 
d="M411 315v142q0 37 -24 37q-26 0 -26 -39v-140h-127v142q0 37 -24 37q-26 0 -26 -45v-134h-127v284h127v-44q24 50 87 50q62 0 80 -52q29 52 92 52q54 0 74.5 -31.5t20.5 -93.5v-165h-127z" />
    <glyph glyph-name="osuperior" unicode="&#xf6f0;" horiz-adv-x="426" 
d="M213 307q-82 0 -127.5 42.5t-45.5 107.5t45.5 107.5t127.5 42.5t127.5 -42.5t45.5 -107.5t-45.5 -107.5t-127.5 -42.5zM213 419q17 0 27 10.5t10 27.5q0 37 -37 37t-37 -37q0 -17 10 -27.5t27 -10.5z" />
    <glyph glyph-name="rsuperior" unicode="&#xf6f1;" horiz-adv-x="337" 
d="M307 477q-24 7 -44 7q-70 0 -70 -81v-88h-136v284h136v-46q25 52 84 52q18 0 30 -4v-124z" />
    <glyph glyph-name="ssuperior" unicode="&#xf6f2;" horiz-adv-x="407" 
d="M245 496q62 -12 90 -29.5t28 -59.5q0 -57 -41.5 -78.5t-116.5 -21.5q-86 0 -123.5 26t-37.5 76h136q0 -25 27 -25q19 0 19 14q0 8 -10 13t-42 11q-30 5 -47 9.5t-38.5 14.5t-31.5 26t-10 40q0 52 38 73.5t124 21.5t118 -25t32 -70h-136q0 24 -21 24q-19 0 -19 -14t62 -26
z" />
    <glyph glyph-name="tsuperior" unicode="&#xf6f3;" horiz-adv-x="309" 
d="M272 315q-44 -7 -80 -7q-28 0 -46 3t-36.5 12.5t-27.5 31t-9 54.5v99h-38v91h38v81h136v-81h64v-91h-64v-69q0 -36 34 -36q7 0 29 2v-90z" />
    <glyph glyph-name="apple" unicode="&#xf8ff;" horiz-adv-x="800" 
d="M400 717q162 0 262 -109t100 -258t-100 -258t-262 -109t-262 109t-100 258t100 258t262 109zM400 695q-74 0 -143 -29q-60 -27 -106 -76q-44 -48 -67 -110q-24 -63 -24 -130q0 -68 24 -129q23 -63 67 -110q48 -52 106 -76q69 -29 143 -29q75 0 142 29q58 24 106 76
q44 47 67 110q24 61 24 129q0 67 -24 130q-23 62 -67 110q-46 49 -106 76q-67 29 -142 29zM168 228q82 -49 116 -60q35 -11 72 -11q148 0 220 37q1 0 3 2q-26 -57 -107 -99q-56 -31 -106 -31q-102 0 -198 162zM219 259l179 268l-110 -243h178v-25h-247zM230 169
q27 -39 67.5 -58t68.5 -19q30 0 70 15.5t59 27t32 20.5q-119 -23 -169 -23q-91 0 -128 37zM498 500q0 18 12.5 30.5t29.5 12.5q18 0 30.5 -12.5t12.5 -30.5q0 -17 -12.5 -30t-30.5 -13q-17 0 -29.5 13t-12.5 30zM201 500q0 18 12.5 30.5t29.5 12.5q18 0 30.5 -12.5
t12.5 -30.5q0 -17 -12.5 -30t-30.5 -13q-17 0 -29.5 13t-12.5 30zM600 161q2 5 2 18q0 2 -4 13l-3 5q-1 0 -3 2q-2 0 -4 2l-14 5q-22 10 -33 19q-11 8 -18 20l-4 11q0 1 -1.5 6t-1.5 8q-4 15 -4 31q3 18 3 19l15 -5q0 -1 -0.5 -4.5t-0.5 -5.5v-13q3 -23 4 -27q1 -2 2 -6
t3 -6q3 -6 19 -20q4 -2 8.5 -4.5t9.5 -5t8 -3.5l15 -6q4 -2 7 -5q5 -4 7 -9q5 -9 6 -19q0 -19 -2 -24zM213 331q0 -6 2 -20t2 -20q0 -10 -7 -20q-8 -9 -14 -13h-2l-2 -1q-14 -6 -21 -10q-6 -2 -10 -5l-6 -5q-3 -5 -5 -13q-2 -14 -2 -17h-16q0 6 2 20q8 19 9 20l9 8l11 7
q5 3 24 10l1 1q5 2 9 8q4 5 4 10q0 4 -2 18l-3 20z" />
    <glyph glyph-name="uniFB00" unicode="&#xfb00;" horiz-adv-x="846" 
d="M411 559q-21 5 -45 5q-48 0 -48 -38v-13h93v-160h-92v-353h-240v353h-70v160h70v11q0 61 15 101t45.5 60t65 27.5t84.5 7.5q75 0 122 -15v-146zM834 559q-21 5 -45 5q-48 0 -48 -38v-13h93v-160h-92v-353h-240v353h-70v160h70v11q0 61 15 101t45.5 60t65 27.5t84.5 7.5
q75 0 122 -15v-146z" />
    <glyph glyph-name="uniFB03" unicode="&#xfb03;" horiz-adv-x="1206" 
d="M411 559q-21 5 -45 5q-48 0 -48 -38v-13h93v-160h-92v-353h-240v353h-70v160h70v11q0 61 15 101t45.5 60t65 27.5t84.5 7.5q75 0 122 -15v-146zM834 559q-21 5 -45 5q-48 0 -48 -38v-13h93v-160h-92v-353h-240v353h-70v160h70v11q0 61 15 101t45.5 60t65 27.5t84.5 7.5
q75 0 122 -15v-146zM906 513h240v-513h-240v513zM892 653q0 55 38 93t95 38t95.5 -38t38.5 -93q0 -54 -38.5 -92t-95.5 -38q-56 0 -94.5 38t-38.5 92z" />
    <glyph glyph-name="uniFB04" unicode="&#xfb04;" horiz-adv-x="1186" 
d="M411 559q-21 5 -45 5q-48 0 -48 -38v-13h93v-160h-92v-353h-240v353h-70v160h70v11q0 61 15 101t45.5 60t65 27.5t84.5 7.5q75 0 122 -15v-146zM834 559q-21 5 -45 5q-48 0 -48 -38v-13h93v-160h-92v-353h-240v353h-70v160h70v11q0 61 15 101t45.5 60t65 27.5t84.5 7.5
q75 0 122 -15v-146zM896 700h240v-700h-240v700z" />
    <glyph glyph-name="uni00B5" 
d="M46 513h240v-265q2 -63 52 -63q28 0 42 19t14 65v244h240v-513h-240v78q-30 -64 -108 -83v-181h-240v699z" />
    <glyph glyph-name="uni2126" horiz-adv-x="738" 
d="M369 482q-40 0 -63 -26.5t-23 -69.5q0 -35 19.5 -59.5t51.5 -33.5v-293h-315v175h120v10q-131 81 -131 228q0 123 94 211t247 88t247 -88t94 -211q0 -71 -34.5 -130.5t-97.5 -97.5v-10h121v-175h-315v292q32 8 51.5 33.5t19.5 60.5q0 43 -23 69.5t-63 26.5z" />
    <glyph glyph-name="uni2206" horiz-adv-x="837" 
d="M330 175h167l-83 306zM832 0h-827l266 700h286z" />
    <glyph glyph-name="commaturn" horiz-adv-x="228" 
d="M219 622q0 -42 -28.5 -71.5t-70.5 -29.5q-51 0 -82 35.5t-31 92.5q0 110 53 158.5t154 48.5v-62q-59 0 -90 -26q-25 -19 -30 -56q7 9 26 9q45 0 72 -28.5t27 -70.5z" />
    <glyph glyph-name="zero.slash" 
d="M340 -20q-141 0 -225 75.5t-84 184.5v220q0 109 84 184.5t225 75.5q138 0 223.5 -76t85.5 -184v-220q0 -108 -85.5 -184t-223.5 -76zM286 369l63 146q-2 1 -9 1q-40 0 -52 -39q-2 -6 -2 -47v-43v-18zM332 182h8q24 0 39 16.5t15 40.5v88z" />
    <glyph glyph-name="zero.tlfslash" 
d="M31 460q0 109 84 184.5t225 75.5q138 0 223.5 -76t85.5 -184v-220q0 -108 -85.5 -184t-223.5 -76q-141 0 -225 75.5t-84 184.5v220zM286 370l63 146q-2 1 -9 1q-40 0 -52 -39q-2 -5 -2 -18v-90zM394 327l-62 -144h8q24 0 39 16.5t15 40.5v87z" />
    <glyph glyph-name="zero.tlf" 
d="M31 460q0 109 84 184.5t225 75.5q138 0 223.5 -76t85.5 -184v-220q0 -108 -85.5 -184t-223.5 -76q-141 0 -225 75.5t-84 184.5v220zM394 460q0 24 -15 40.5t-39 16.5q-25 0 -39.5 -16.5t-14.5 -40.5v-220q0 -24 14.5 -40.5t39.5 -16.5q24 0 39 16.5t15 40.5v220z" />
    <glyph glyph-name="one.tlf" 
d="M85 564h47q90 0 131.5 34.5t50.5 101.5h210v-700h-255v404h-184v160z" />
    <glyph glyph-name="two.tlf" 
d="M40 0q0 114 23.5 190.5t59.5 115t97 74.5q104 60 134.5 84t30.5 53q0 22 -11 33t-27 11q-24 0 -36 -16.5t-12 -56.5h-255q0 41 13.5 78t44 73.5t93 58.5t148.5 22q57 0 106 -11t91 -34.5t66.5 -67t24.5 -102.5q0 -72 -41.5 -125.5t-130.5 -99.5q-14 -8 -33 -17.5
l-29 -14.5t-22 -12t-18.5 -12t-12.5 -11t-8 -12t-2 -13h292v-188h-586z" />
    <glyph glyph-name="three.tlf" 
d="M289 238q0 -39 10 -57.5t38 -18.5q44 0 44 60q0 30 -13.5 43.5t-43.5 13.5h-95v173h93q37 0 50.5 12.5t13.5 40.5q0 56 -42 56q-28 0 -36.5 -17.5t-8.5 -55.5h-255q0 232 303 232q60 0 108.5 -9.5t91 -31.5t66 -63t23.5 -99q0 -56 -38 -102.5t-82 -55.5
q49 -12 84.5 -61.5t35.5 -113.5q0 -69 -42.5 -116.5t-104 -67.5t-136.5 -20q-95 0 -161 21t-99 59t-46 80.5t-13 97.5h255z" />
    <glyph glyph-name="four.tlf" 
d="M358 160h-328v540h255v-337h73v160h255v-160h62v-203h-62v-160h-255v160z" />
    <glyph glyph-name="five.tlf" 
d="M53 700h570v-173h-330v-80q46 44 127 44q59 0 105.5 -22t73 -58t40 -76.5t13.5 -81.5q0 -119 -81.5 -196t-229.5 -77q-147 0 -229 76t-82 192h240q0 -31 19.5 -52t51.5 -21t51.5 22t19.5 56q0 30 -18.5 52t-49.5 22q-48 0 -69 -38h-222v411z" />
    <glyph glyph-name="six.tlf" 
d="M337 -17q-147 0 -229 77t-82 194q0 87 40 146l206 300h281l-126 -183q106 -23 163.5 -94t57.5 -169q0 -117 -82 -194t-229 -77zM337 181q32 0 51.5 20.5t19.5 52.5t-19.5 52.5t-51.5 20.5t-51.5 -20.5t-19.5 -52.5t19.5 -52.5t51.5 -20.5z" />
    <glyph glyph-name="seven.tlf" 
d="M665 700l-298 -700h-274l212 497h-257v203h617z" />
    <glyph glyph-name="eight.tlf" 
d="M341 -20q-145 0 -228 61t-83 154q0 64 43.5 110.5t91.5 53.5q-44 11 -80 55t-36 101q0 89 77.5 147t214.5 58t214.5 -58t77.5 -147q0 -57 -36 -101t-80 -55q50 -11 92 -56t42 -109q0 -93 -82 -153.5t-228 -60.5zM341 446q28 0 44 16.5t16 40.5t-16 40.5t-44 16.5
t-44.5 -16.5t-16.5 -40.5t16.5 -40.5t44.5 -16.5zM341 140q32 0 51 19.5t19 46.5t-19 46.5t-51 19.5q-33 0 -52 -19t-19 -47t19 -47t52 -19z" />
    <glyph glyph-name="nine.tlf" 
d="M337 717q147 0 229 -77t82 -194q0 -87 -40 -146l-206 -300h-281l125 183q-105 21 -162.5 93t-57.5 170q0 117 82 194t229 77zM337 519q-32 0 -51.5 -20.5t-19.5 -52.5t19.5 -52.5t51.5 -20.5t51.5 20.5t19.5 52.5t-19.5 52.5t-51.5 20.5z" />
    <glyph glyph-name="csuperior" horiz-adv-x="425" 
d="M248 473q-6 24 -34 24q-19 0 -28.5 -11.5t-9.5 -28.5t10 -28.5t29 -11.5q26 0 33 22h136q-6 -59 -50 -95.5t-121 -36.5q-82 0 -127.5 43t-45.5 107t45.5 107t127.5 43q75 0 120 -37.5t51 -96.5h-136z" />
    <glyph glyph-name="fsuperior" horiz-adv-x="295" 
d="M258 621q-9 3 -24 3q-26 0 -26 -20v-5h50v-91h-49v-193h-136v193h-38v91h38v4q0 64 29.5 86t87.5 22q42 0 68 -8v-82z" />
    <glyph glyph-name="gsuperior" horiz-adv-x="448" 
d="M219 494q-16 0 -26.5 -11t-10.5 -26q0 -16 10.5 -27t26.5 -11q17 0 27 11t10 27t-10 26.5t-27 10.5zM393 347q0 -81 -37 -111.5t-138 -30.5q-94 0 -133 24.5t-39 83.5h136q0 -10 10 -18.5t25 -8.5q39 0 39 46v30q-23 -41 -84 -41q-58 0 -92 34t-34 102q0 70 32.5 109
t89.5 39q68 0 88 -51v45h137v-252z" />
    <glyph glyph-name="ksuperior" horiz-adv-x="431" 
d="M308 457l94 -142h-155l-54 108v-108h-136v385h136v-210l55 109h155z" />
    <glyph glyph-name="psuperior" horiz-adv-x="448" 
d="M193 555q6 17 30.5 33.5t55.5 16.5q55 0 89.5 -39t34.5 -109q0 -69 -34.5 -109t-89.5 -40q-31 0 -56.5 17t-29.5 35v-146h-136v385h136v-44zM230 495q-16 0 -26.5 -11t-10.5 -27t10.5 -27t26.5 -11t26.5 11t10.5 27t-10.5 27t-26.5 11z" />
    <glyph glyph-name="qsuperior" horiz-adv-x="448" 
d="M255 599h136v-385h-136v146q-4 -18 -29.5 -35t-56.5 -17q-55 0 -89.5 40t-34.5 109q0 70 34.5 109t89.5 39q31 0 55.5 -16.5t30.5 -33.5v44zM218 495q-16 0 -26.5 -11t-10.5 -27t10.5 -27t26.5 -11t26.5 11t10.5 27t-10.5 27t-26.5 11z" />
    <glyph glyph-name="usuperior" horiz-adv-x="440" 
d="M383 315h-136v43q-21 -50 -94 -50q-44 0 -68 21q-30 28 -30 102v168h136v-143q0 -36 27 -36q29 0 29 44v135h136v-284z" />
    <glyph glyph-name="vsuperior" horiz-adv-x="431" 
d="M165 599l50 -159l51 159h140l-128 -284h-126l-127 284h140z" />
    <glyph glyph-name="zsuperior" horiz-adv-x="374" 
d="M337 599l-106 -174h95v-110h-291l107 173h-92v111h287z" />
    <glyph glyph-name="plusinferior" horiz-adv-x="437" 
d="M170 -175v83h-83v97h83v83h97v-83h83v-97h-83v-83h-97z" />
    <glyph glyph-name="minusinferior" horiz-adv-x="437" 
d="M87 -92v97h263v-97h-263z" />
    <glyph glyph-name="equalinferior" horiz-adv-x="437" 
d="M87 -28v98h263v-98h-263zM87 -158v98h263v-98h-263z" />
    <glyph glyph-name="multiply.case" 
d="M446 512l122 -122l-106 -106l106 -106l-122 -122l-106 106l-107 -107l-122 122l107 107l-107 107l122 122l107 -107z" />
    <glyph glyph-name="Iacute.smcp" horiz-adv-x="349" 
d="M61 560h227v-560h-227v560zM51 575l-31 129l278 83l31 -128z" />
    <glyph glyph-name="uni0442.002" horiz-adv-x="962" 
d="M690 0v258q0 70 -46 70q-49 0 -49 -75v-253h-225v258q0 70 -46 70q-49 0 -49 -84v-244h-225v513h225v-78q18 39 59 64.5t98 25.5q111 0 145 -94q52 94 166 94q99 0 135.5 -57.5t36.5 -167.5v-300h-225z" />
    <glyph glyph-name="parenleft.smcp" horiz-adv-x="377" 
d="M336 396q-49 0 -76 -29t-27 -75v-160q0 -45 27 -74.5t76 -29.5v-182q-146 0 -231.5 82t-85.5 204v160q0 123 85.5 205t231.5 82v-183z" />
    <glyph glyph-name="Ibreve.smcp" horiz-adv-x="349" 
d="M61 560h227v-560h-227v560zM95 759q23 -52 80 -52q54 0 80 52h142q-17 -86 -76.5 -129t-145.5 -43t-145.5 43t-76.5 129h142z" />
    <glyph glyph-name="uni0438.002" horiz-adv-x="684" 
d="M634 513v-513h-240v78q-18 -42 -62 -66t-108 -24q-81 0 -125 39q-53 49 -53 183v303h240v-258q0 -70 52 -70q28 0 42 19t14 65v244h240z" />
    <glyph glyph-name="Dcroat.smcp" horiz-adv-x="656" 
d="M329 560q134 0 214 -82t80 -198q0 -117 -79.5 -198.5t-214.5 -81.5h-268v214h-43v130h43v216h268zM334 214h-45v-25h17q37 0 61 26.5t24 64.5t-24 64.5t-61 26.5h-17v-27h45v-130z" />
    <glyph glyph-name="Scaron.smcp" horiz-adv-x="604" 
d="M270 193q0 -50 39 -50q25 0 25 19q0 9 -14 18t-68 32q-103 42 -135 66q-68 49 -68 129q0 47 22 81.5t60.5 53t82 27t94.5 8.5q62 0 109.5 -12.5t74 -32t43 -46t21.5 -49.5t5 -48h-228q0 28 -6.5 39t-25.5 11q-24 0 -24 -22q0 -12 15.5 -23t58.5 -26q105 -38 140 -62
q71 -48 71 -134q0 -89 -66 -139t-193 -50q-128 0 -194.5 54t-66.5 156h228zM114 736l89 94l105 -81l105 81l89 -94l-194 -152z" />
    <glyph glyph-name="Nacute.smcp" horiz-adv-x="727" 
d="M438 283v277h228v-560h-226l-151 257v-257h-228v560h226zM240 573l-31 128l278 84l31 -129z" />
    <glyph glyph-name="Q.smcp" horiz-adv-x="696" 
d="M663 280q0 -135 -95 -225l48 -59q2 2 -49.5 -24.5l-103 -53t-49.5 -24.5l-66 89q-145 0 -230 87t-85 210t85 210t230 87t230 -87t85 -210zM348 192q41 0 64.5 25.5t23.5 62.5t-23.5 62.5t-64.5 25.5t-64.5 -25.5t-23.5 -62.5t23.5 -62.5t64.5 -25.5z" />
    <glyph glyph-name="Eth.smcp" horiz-adv-x="656" 
d="M329 560q134 0 214 -82t80 -198q0 -117 -79.5 -198.5t-214.5 -81.5h-268v204h-68v151h68v205h268zM337 204h-48v-15h18q37 0 60.5 26.5t23.5 64.5t-23.5 64.5t-60.5 26.5h-18v-16h48v-151z" />
    <glyph glyph-name="Tbar.smcp" horiz-adv-x="505" 
d="M410 185h-43v-185h-228v185h-45v129h45v55h-96v191h419v-191h-95v-55h43v-129z" />
    <glyph glyph-name="Lcommaaccent.smcp" horiz-adv-x="453" 
d="M61 560h228v-369h124v-191h-352v560zM135 -99q0 37 24.5 62t60.5 25q44 0 71 -30.5t27 -79.5q0 -95 -46 -136.5t-133 -41.5v53q50 0 75 20.5t29 50.5q-6 -8 -23 -8q-38 0 -61.5 24.5t-23.5 60.5z" />
    <glyph glyph-name="Y.smcp" horiz-adv-x="634" 
d="M351 0h-257l84 175l-170 385h269l41 -165l55 165h256z" />
    <glyph glyph-name="Ncaron.smcp" horiz-adv-x="727" 
d="M438 283v277h228v-560h-226l-151 257v-257h-228v560h226zM169 711l90 94l105 -81l105 81l89 -94l-194 -152z" />
    <glyph glyph-name="Uogonek.smcp" horiz-adv-x="600" 
d="M402 -158q-34 -12 -84 -12q-63 0 -93 21.5t-30 56.5q0 41 46 80q-96 13 -149 69t-53 144v359h228v-356q0 -14 10 -22.5t23 -8.5t23 8.5t10 22.5v356h228v-359q0 -90 -54.5 -146t-153.5 -68q-27 -20 -27 -49q0 -18 10 -30.5t27 -12.5q24 0 45 10z" />
    <glyph glyph-name="Rcaron.smcp" horiz-adv-x="657" 
d="M61 560h325q99 0 160 -64t61 -155q0 -117 -90 -180l113 -161h-271l-70 122v-122h-228v560zM137 718l89 94l105 -81l105 81l89 -94l-194 -152zM289 392v-103h36q21 0 34.5 15t13.5 37q0 21 -13 36t-34 15h-37z" />
    <glyph glyph-name="three.denominator" horiz-adv-x="429" 
d="M191 131q0 -21 4.5 -30.5t18.5 -9.5q22 0 22 32q0 17 -7 23t-22 6h-54v98h53q20 0 27 6t7 21q0 30 -22 30q-14 0 -18 -9t-4 -30h-145q0 128 169 128q161 0 161 -112q0 -31 -21 -56.5t-45 -30.5q27 -7 46.5 -33.5t19.5 -62.5q0 -57 -46 -84.5t-111 -27.5q-102 0 -140 39
t-38 103h145z" />
    <glyph glyph-name="Obreve.smcp" horiz-adv-x="696" 
d="M348 -17q-145 0 -230 87t-85 210t85 210t230 87t230 -87t85 -210t-85 -210t-230 -87zM348 192q41 0 64.5 25.5t23.5 62.5t-23.5 62.5t-64.5 25.5t-64.5 -25.5t-23.5 -62.5t23.5 -62.5t64.5 -25.5zM268 759q23 -52 80 -52q54 0 80 52h142q-17 -86 -76.5 -128.5
t-145.5 -42.5t-145.5 42.5t-76.5 128.5h142z" />
    <glyph glyph-name="Lacute.smcp" horiz-adv-x="453" 
d="M413 191v-191h-352v560h228v-369h124zM49 573l-31 128l278 84l31 -129z" />
    <glyph glyph-name="two.plf.smcp" horiz-adv-x="583" 
d="M54 0q0 91 19 152t47.5 92.5t77.5 59.5q99 59 114 73q18 17 18 37q0 17 -8.5 26t-21.5 9q-39 0 -39 -59h-204q0 33 10.5 62.5t35 59t74.5 47t119 17.5q46 0 85 -9t73 -28t53.5 -53.5t19.5 -81.5q0 -58 -33 -100.5t-105 -79.5q-9 -5 -21 -11l-19 -9.5l-16 -8t-14 -7.5
t-10.5 -7t-8.5 -7t-6 -7t-4 -8t-1 -9h234v-150h-469z" />
    <glyph glyph-name="C.smcp" horiz-adv-x="698" 
d="M667 255q-10 -117 -92 -194.5t-225 -77.5q-146 0 -231.5 87t-85.5 210t85.5 210t230.5 87q139 0 222 -77t93 -193h-238q-12 62 -79 62q-40 0 -60.5 -25.5t-20.5 -63.5q0 -41 21.5 -65t57.5 -24q75 0 85 64h237z" />
    <glyph glyph-name="ampersand.smcp" horiz-adv-x="620" 
d="M313 332h266v-150h-23q-1 -43 -11.5 -74.5t-37.5 -62t-82 -46.5t-137 -16q-63 0 -116 15t-90.5 52.5t-37.5 92.5q0 53 29 93.5t68 49.5q-34 4 -67 43.5t-33 83.5q0 49 20 82.5t56 50.5t76 24t91 7q68 0 117.5 -13t75.5 -31.5t41 -46t19 -49t4 -47.5h-228q0 19 -1 27.5
t-6.5 15.5t-17.5 7q-24 0 -24 -39q0 -16 12 -25t30 -9v-150q-17 0 -25.5 -7.5t-8.5 -27.5q0 -40 32 -40q30 0 34 40h-25v150z" />
    <glyph glyph-name="J.smcp" horiz-adv-x="605" 
d="M556 221q0 -71 -18 -118.5t-55 -72.5t-81.5 -34.5t-108.5 -9.5q-134 0 -198.5 63.5t-64.5 172.5h228q0 -20 9.5 -34.5t25.5 -14.5q35 0 35 48v339h228v-339z" />
    <glyph glyph-name="Amacron.smcp" horiz-adv-x="755" 
d="M731 0h-258l-16 60h-169l-15 -60h-249l217 560h264zM328 212h89l-44 168zM532 616h-316v129h316v-129z" />
    <glyph glyph-name="Edieresis.smcp" horiz-adv-x="506" 
d="M289 400v-47h163v-150h-163v-43h163v-160h-392v560h392v-160h-163zM256 675q0 43 30 73.5t75 30.5t75.5 -30.5t30.5 -73.5q0 -41 -31 -71.5t-75 -30.5t-74.5 30.5t-30.5 71.5zM39 675q0 43 30 73.5t75 30.5t76 -30.5t31 -73.5q0 -41 -31 -71.5t-76 -30.5
q-44 0 -74.5 30.5t-30.5 71.5z" />
    <glyph glyph-name="nine.denominator" horiz-adv-x="427" 
d="M214 395q82 0 127.5 -43t45.5 -107q0 -49 -22 -81l-113 -164h-159l68 99q-57 12 -88.5 52t-31.5 94q0 64 45.5 107t127.5 43zM214 283q-17 0 -27 -10.5t-10 -27.5t10 -27.5t27 -10.5t27 10.5t10 27.5t-10 27.5t-27 10.5z" />
    <glyph glyph-name="Aring.smcp" horiz-adv-x="755" 
d="M731 0h-258l-16 60h-169l-15 -60h-249l217 560h264zM328 212h89l-44 168zM377 832q54 0 92.5 -38.5t38.5 -92.5t-38.5 -93t-92.5 -39t-93 39t-39 93t39 92.5t93 38.5zM377 739q-16 0 -26.5 -11.5t-10.5 -27.5q0 -14 11.5 -24.5t25.5 -10.5t25.5 11t11.5 26t-11 26t-26 11
z" />
    <glyph glyph-name="Utilde.smcp" horiz-adv-x="600" 
d="M39 560h228v-356q0 -14 10 -22.5t23 -8.5t23 8.5t10 22.5v356h228v-359q0 -100 -69 -159t-192 -59t-192 59t-69 159v359zM117 700q61 30 103 30q14 0 70.5 -10.5t69.5 -10.5q29 0 79 21l43 -115q-52 -36 -108 -36q-14 0 -71 10.5t-69 10.5q-21 0 -70 -17z" />
    <glyph glyph-name="Idotaccent.smcp" horiz-adv-x="350" 
d="M61 560h228v-560h-228v560zM69 680q0 43 30 73.5t74 30.5q47 0 77 -30t30 -74q0 -41 -31 -71.5t-76 -30.5q-43 0 -73.5 30.5t-30.5 71.5z" />
    <glyph glyph-name="Hcircumflex.smcp" horiz-adv-x="672" 
d="M383 185h-94v-185h-228v560h228v-189h94v189h228v-560h-228v185zM336 815l191 -152l-87 -94l-104 82l-103 -82l-87 94z" />
    <glyph glyph-name="three.numerator" horiz-adv-x="429" 
d="M191 446q0 -21 4.5 -30.5t18.5 -9.5q22 0 22 32q0 17 -7 23t-22 6h-54v98h53q20 0 27 6t7 21q0 30 -22 30q-14 0 -18 -9t-4 -30h-145q0 128 169 128q161 0 161 -112q0 -31 -21 -56.5t-45 -30.5q27 -7 46.5 -33.5t19.5 -62.5q0 -57 -46 -84.5t-111 -27.5q-102 0 -140 39
t-38 103h145z" />
    <glyph glyph-name="uni0437.002" horiz-adv-x="603" 
d="M254 30q0 -87 41 -87q35 0 35 71q0 44 -18 63.5t-57 19.5h-55v156h54q79 0 79 79q0 71 -36 71q-40 0 -40 -84h-239q0 38 11 70.5t39.5 66t89.5 53t149 19.5q75 0 131.5 -18t94.5 -67t38 -125q0 -73 -35.5 -107.5t-83.5 -39.5q53 -4 86 -41t33 -109q0 -103 -81.5 -162
t-187.5 -59q-87 0 -147 18t-90 52t-42.5 72t-12.5 88h244z" />
    <glyph glyph-name="Racute.smcp" horiz-adv-x="657" 
d="M61 560h325q99 0 160 -64t61 -155q0 -117 -90 -180l113 -161h-271l-70 122v-122h-228v560zM205 573l-31 128l278 84l31 -129zM289 392v-103h36q21 0 34.5 15t13.5 37q0 21 -13 36t-34 15h-37z" />
    <glyph glyph-name="Scommaaccent.smcp" horiz-adv-x="604" 
d="M270 193q0 -50 39 -50q25 0 25 19q0 9 -14 18t-68 32q-103 42 -135 66q-68 49 -68 129q0 47 22 81.5t61 53t82.5 27t94.5 8.5q62 0 109 -12.5t73.5 -32t43 -46t21.5 -49.5t5 -48h-228q0 28 -6.5 39t-25.5 11q-24 0 -24 -22q0 -12 15.5 -23t58.5 -26q105 -38 140 -62
q71 -48 71 -134q0 -89 -66 -139t-193 -50q-128 0 -194.5 54t-66.5 156h228zM218 -110q0 37 24.5 62t60.5 25q44 0 71 -30.5t27 -79.5q0 -95 -45 -136.5t-133 -41.5v53q50 0 74.5 20.5t28.5 50.5q-8 -8 -23 -8q-38 0 -61.5 24.5t-23.5 60.5z" />
    <glyph glyph-name="Icircumflex.smcp" horiz-adv-x="349" 
d="M61 560h227v-560h-227v560zM175 815l190 -152l-87 -94l-103 82l-104 -82l-87 94z" />
    <glyph glyph-name="A.smcp" horiz-adv-x="755" 
d="M731 0h-258l-16 60h-169l-15 -60h-249l217 560h264zM328 212h89l-44 168z" />
    <glyph glyph-name="E.smcp" horiz-adv-x="506" 
d="M289 400v-47h163v-150h-163v-43h163v-160h-391v560h391v-160h-163z" />
    <glyph glyph-name="AEacute.smcp" horiz-adv-x="851" 
d="M635 400v-47h163v-150h-163v-43h163v-160h-392v59h-115l-23 -59h-248l258 560h520v-160h-163zM406 212v154l-57 -154h57zM397 573l-31 128l278 84l31 -129z" />
    <glyph glyph-name="Adieresis.001.smcp" horiz-adv-x="755" 
d="M351 592h-106l70 104h105zM489 592h-106l70 104h105zM731 0h-258l-16 60h-169l-15 -60h-249l217 560h264zM328 212h89l-44 168z" />
    <glyph glyph-name="Abreve.smcp" horiz-adv-x="755" 
d="M731 0h-258l-16 60h-169l-15 -60h-249l217 560h264zM328 212h89l-44 168zM297 759q26 -52 80 -52t80 52h142q-17 -86 -76.5 -129t-145.5 -43t-145.5 43t-76.5 129h142z" />
    <glyph glyph-name="Udieresis.smcp" horiz-adv-x="600" 
d="M39 560h228v-356q0 -14 10 -22.5t23 -8.5t23 8.5t10 22.5v356h228v-359q0 -100 -69 -159t-192 -59t-192 59t-69 159v359zM298 674q0 43 30 73.5t75 30.5t75.5 -30.5t30.5 -73.5q0 -41 -31 -71.5t-75 -30.5t-74.5 30.5t-30.5 71.5zM81 674q0 43 30 73.5t75 30.5
t75.5 -30.5t30.5 -73.5q0 -41 -30.5 -71.5t-75.5 -30.5q-44 0 -74.5 30.5t-30.5 71.5z" />
    <glyph glyph-name="six.numerator" horiz-adv-x="427" 
d="M213 305q-82 0 -127.5 43t-45.5 107q0 49 22 81l113 164h159l-68 -99q30 -7 55 -22q65 -41 65 -124q0 -64 -45.5 -107t-127.5 -43zM213 417q17 0 27 10.5t10 27.5t-10 27.5t-27 10.5t-27 -10.5t-10 -27.5t10 -27.5t27 -10.5z" />
    <glyph glyph-name="Cacute.smcp" horiz-adv-x="698" 
d="M667 255q-10 -117 -92 -194.5t-225 -77.5q-146 0 -231.5 87t-85.5 210t85.5 210t230.5 87q139 0 222 -77t93 -193h-238q-12 62 -79 62q-40 0 -60.5 -25.5t-20.5 -63.5q0 -41 21.5 -65t57.5 -24q75 0 85 64h237zM225 572l-31 128l278 84l31 -129z" />
    <glyph glyph-name="minus.numerator" horiz-adv-x="437" 
d="M87 423v97h263v-97h-263z" />
    <glyph glyph-name="Uacute.smcp" horiz-adv-x="600" 
d="M39 560h228v-356q0 -14 10 -22.5t23 -8.5t23 8.5t10 22.5v356h228v-359q0 -100 -69 -159t-192 -59t-192 59t-69 159v359zM180 573l-31 128l278 84l31 -129z" />
    <glyph glyph-name="Aacute.smcp" horiz-adv-x="755" 
d="M731 0h-258l-16 60h-169l-15 -60h-249l217 560h264zM328 212h89l-44 168zM254 575l-31 129l278 83l31 -128z" />
    <glyph glyph-name="Imacron.smcp" horiz-adv-x="349" 
d="M61 560h227v-560h-227v560zM333 616h-316v129h316v-129z" />
    <glyph glyph-name="equal.denominator" horiz-adv-x="437" 
d="M87 172v98h263v-98h-263zM87 42v98h263v-98h-263z" />
    <glyph glyph-name="F.smcp" horiz-adv-x="504" 
d="M289 380v-80h163v-171h-163v-129h-228v560h391v-180h-163z" />
    <glyph glyph-name="one.numerator" horiz-adv-x="329" 
d="M45 625q60 0 82.5 18.5t22.5 56.5h119v-385h-145v219h-79v91z" />
    <glyph glyph-name="parenleft.denominator" horiz-adv-x="290" 
d="M244 287q-34 0 -52.5 -20.5t-18.5 -52.5v-135q0 -31 18.5 -51.5t52.5 -20.5v-117q-95 0 -151 54t-56 135v135q0 81 56 135t151 54v-116z" />
    <glyph glyph-name="exclamdown.smcp" horiz-adv-x="371" 
d="M72 313h227v-328h-227v328zM61 441q0 51 35.5 86.5t88.5 35.5q54 0 89.5 -35.5t35.5 -86.5t-35.5 -86t-89.5 -35q-53 0 -88.5 35t-35.5 86z" />
    <glyph glyph-name="brokenbar.smcp" horiz-adv-x="807" 
d="M61 385v194h215v-194h-215zM276 235v-214h-215v214h215z" />
    <glyph glyph-name="D.smcp" horiz-adv-x="656" 
d="M329 560q134 0 214 -82t80 -198q0 -117 -79.5 -198.5t-214.5 -81.5h-268v560h268zM289 371v-182h18q37 0 60.5 26.5t23.5 64.5t-23.5 64.5t-60.5 26.5h-18z" />
    <glyph glyph-name="Gdotaccent.smcp" horiz-adv-x="701" 
d="M324 335h355v-133h-47q-12 -100 -88 -159.5t-203 -59.5q-145 0 -226 83t-81 214q0 123 82.5 210t223.5 87q136 0 219 -67.5t93 -166.5h-259q-9 42 -51 42q-75 0 -75 -109q0 -111 80 -111q49 0 57 37h-80v133zM236 688q0 43 30 73.5t74 30.5q46 0 76.5 -30t30.5 -74
q0 -41 -31 -71.5t-76 -30.5q-43 0 -73.5 30.5t-30.5 71.5z" />
    <glyph glyph-name="three.plf.smcp" horiz-adv-x="573" 
d="M248 190q0 -31 8 -45.5t30 -14.5q36 0 36 48q0 45 -46 45h-76v139h74q29 0 40.5 10t11.5 32q0 45 -34 45q-22 0 -29 -14t-7 -45h-204q0 186 242 186q232 0 232 -162q0 -45 -30.5 -83t-65.5 -44q39 -10 67.5 -49.5t28.5 -90.5q0 -81 -66.5 -122t-160.5 -41
q-76 0 -128.5 17t-79 47.5t-37 64.5t-10.5 77h204z" />
    <glyph glyph-name="five.smcp" horiz-adv-x="584" 
d="M62 560h456v-138h-264v-64q37 35 102 35q91 0 138.5 -59t47.5 -132q0 -95 -65.5 -156.5t-183.5 -61.5t-183.5 61t-65.5 153h192q0 -25 15.5 -41.5t41.5 -16.5t41.5 17.5t15.5 44.5q0 25 -15 42.5t-40 17.5q-38 0 -55 -31h-178v329z" />
    <glyph glyph-name="Edieresis.001" horiz-adv-x="576" 
d="M267 740h-123l87 130h123zM431 740h-123l87 130h123zM310 517v-83h219v-173h-219v-78h219v-183h-474v700h474v-183h-219z" />
    <glyph glyph-name="Aringacute.smcp" horiz-adv-x="755" 
d="M473 0l-16 60h-169l-15 -60h-249l217 560h51q-14 23 -14 52q0 42 28 69.5t68 27.5q42 0 69.5 -27.5t27.5 -69.5q0 -29 -14 -52h48l226 -560h-258zM373 380l-45 -168h89zM306 697l-20 82l160 43l19 -81zM374 639q-11 0 -19 -8t-8 -20q0 -11 8 -19t19 -8q12 0 20 8t8 19
q0 12 -8 20t-20 8z" />
    <glyph glyph-name="OE.smcp" horiz-adv-x="881" 
d="M664 400v-47h163v-150h-163v-43h163v-160h-390q-47 -16 -89 -16q-146 0 -230.5 86t-84.5 210q0 123 85 210t230 87q52 0 89 -17h390v-160h-163zM348 193q41 0 64.5 25t23.5 62t-23.5 62.5t-64.5 25.5t-64.5 -25.5t-23.5 -62.5t23.5 -62t64.5 -25z" />
    <glyph glyph-name="Gcircumflex.smcp" horiz-adv-x="701" 
d="M324 335h355v-133h-47q-12 -100 -88 -159.5t-203 -59.5q-145 0 -226 83t-81 214q0 123 82.5 210t223.5 87q136 0 219 -67.5t93 -166.5h-259q-9 42 -51 42q-75 0 -75 -109q0 -111 80 -111q49 0 57 37h-80v133zM340 814l191 -152l-87 -94l-104 82l-103 -82l-87 94z" />
    <glyph glyph-name="equal.numerator" horiz-adv-x="437" 
d="M87 487v98h263v-98h-263zM87 357v98h263v-98h-263z" />
    <glyph glyph-name="Egrave.smcp" horiz-adv-x="506" 
d="M289 400v-47h163v-150h-163v-43h163v-160h-391v560h391v-160h-163zM99 659l30 129l278 -84l-30 -128z" />
    <glyph glyph-name="Edotaccent.smcp" horiz-adv-x="506" 
d="M289 400v-47h163v-150h-163v-43h163v-160h-391v560h391v-160h-163zM146 678q0 43 30.5 73.5t74.5 30.5q47 0 77 -30t30 -74q0 -41 -31 -71.5t-76 -30.5q-43 0 -74 31t-31 71z" />
    <glyph glyph-name="R.smcp" horiz-adv-x="657" 
d="M61 560h325q99 0 160 -64t61 -155q0 -117 -90 -180l113 -161h-271l-70 95v-95h-228v560zM325 289q21 0 34.5 15t13.5 37q0 21 -13 36t-34 15h-37v-103h36z" />
    <glyph glyph-name="P.smcp" horiz-adv-x="629" 
d="M61 560h324q99 0 160 -64t61 -155t-61 -155t-160 -64h-96v-122h-228v560zM325 289q21 0 34.5 15t13.5 37q0 21 -13 36t-34 15h-37v-103h36z" />
    <glyph glyph-name="Ecaron.smcp" horiz-adv-x="506" 
d="M289 400v-47h163v-150h-163v-43h163v-160h-391v560h391v-160h-163zM59 721l89 94l105 -81l105 81l89 -94l-194 -152z" />
    <glyph glyph-name="Uring.smcp" horiz-adv-x="600" 
d="M39 560h228v-356q0 -14 10 -22.5t23 -8.5t23 8.5t10 22.5v356h228v-359q0 -100 -69 -159t-192 -59t-192 59t-69 159v359zM300 832q54 0 92.5 -38.5t38.5 -92.5t-38.5 -93t-92.5 -39t-93 39t-39 93t39 92.5t93 38.5zM300 739q-16 0 -26.5 -11.5t-10.5 -27.5
q0 -14 11.5 -24.5t25.5 -10.5t25.5 11t11.5 26t-11 26t-26 11z" />
    <glyph glyph-name="Thorn.smcp" horiz-adv-x="551" 
d="M267 502q123 0 192 -64.5t69 -161.5q0 -98 -69 -161.5t-192 -63.5v-51h-216v560h216v-58zM267 228q20 0 32.5 13t12.5 35q0 23 -12 35.5t-33 12.5v-96z" />
    </font>
</defs>
</svg>
