<svg id="Слой_1" data-name="Слой 1" xmlns="http://www.w3.org/2000/svg" viewBox="0 0 308 618"><defs><style>.cls-1,.cls-4{font-size:123.5px;font-family:DINCondensed, DIN Condensed;}.cls-1,.cls-2{fill:#1b267b;}.cls-1,.cls-2,.cls-3{stroke:#1b267b;}.cls-2,.cls-3,.cls-5,.cls-6{stroke-miterlimit:10;stroke-width:8px;}.cls-3,.cls-6{fill:none;}.cls-4,.cls-5{fill:#616161;}.cls-4,.cls-5,.cls-6{stroke:#616161;}</style></defs><title>Иконка 6</title><text class="cls-1" transform="translate(107.26 195.79) scale(1.75 1)">S</text><line class="cls-2" x1="154" y1="114.92" x2="154" y2="88.51"/><line class="cls-2" x1="154" y1="218.44" x2="154" y2="192.03"/><circle class="cls-3" cx="154" cy="154" r="94.01"/><path class="cls-3" d="M310,160a150,150,0,0,1-300,0H66a94,94,0,1,0,94-94V10A150,150,0,0,1,310,160Z" transform="translate(-6 -6)"/><path class="cls-3" d="M254,160a94,94,0,0,1-188,0H10A150,150,0,0,1,160,10V66A94,94,0,0,1,254,160Z" transform="translate(-6 -6)"/><line class="cls-3" x1="222.66" y1="222.66" x2="259.63" y2="260.69"/><line class="cls-3" x1="85.34" y1="223.72" x2="48.37" y2="260.69"/><text class="cls-4" transform="translate(107.26 505.79) scale(1.75 1)">S</text><line class="cls-5" x1="154" y1="424.92" x2="154" y2="398.51"/><line class="cls-5" x1="154" y1="528.44" x2="154" y2="502.03"/><circle class="cls-6" cx="154" cy="464" r="94.01"/><path class="cls-6" d="M310,470a150,150,0,0,1-300,0H66a94,94,0,1,0,94-94V320A150,150,0,0,1,310,470Z" transform="translate(-6 -6)"/><path class="cls-6" d="M254,470a94,94,0,0,1-188,0H10A150,150,0,0,1,160,320v56A94,94,0,0,1,254,470Z" transform="translate(-6 -6)"/><line class="cls-6" x1="222.66" y1="532.66" x2="259.63" y2="570.69"/><line class="cls-6" x1="85.34" y1="533.72" x2="48.37" y2="570.69"/></svg>