<svg id="Слой_1" data-name="Слой 1" xmlns="http://www.w3.org/2000/svg" viewBox="0 0 280 624.99"><defs><style>.cls-1,.cls-5{font-size:116.92px;font-family:DINCondensed, DIN Condensed;}.cls-1,.cls-2{fill:#1b267b;}.cls-1,.cls-2,.cls-3,.cls-4{stroke:#1b267b;}.cls-2,.cls-3,.cls-4,.cls-6,.cls-7,.cls-8{stroke-miterlimit:10;stroke-width:8px;}.cls-3,.cls-7{fill:none;}.cls-4,.cls-8{fill:#fff;}.cls-5,.cls-6{fill:#616161;}.cls-5,.cls-6,.cls-7,.cls-8{stroke:#616161;}</style></defs><title>Иконка 1</title><text class="cls-1" transform="translate(95.76 280.56) scale(1.75 1)">S</text><line class="cls-2" x1="140" y1="204" x2="140" y2="179"/><line class="cls-2" x1="140" y1="302" x2="140" y2="277"/><rect class="cls-3" x="184" y="140" width="86" height="163"/><rect class="cls-3" x="98" y="177" width="86" height="126"/><rect class="cls-3" x="12" y="126" width="86" height="177"/><line class="cls-3" y1="304" x2="280" y2="304"/><line class="cls-3" x1="55" y1="111" x2="55" y2="4"/><line class="cls-3" x1="140" y1="162" x2="140" y2="4"/><line class="cls-3" x1="227" y1="125" x2="227"/><circle class="cls-4" cx="140" cy="84" r="15"/><circle class="cls-4" cx="227" cy="34" r="15"/><circle class="cls-4" cx="55" cy="63" r="15"/><text class="cls-5" transform="translate(95.76 594.56) scale(1.75 1)">S</text><line class="cls-6" x1="140" y1="518" x2="140" y2="493"/><line class="cls-6" x1="140" y1="616" x2="140" y2="591"/><rect class="cls-7" x="184" y="454" width="86" height="163"/><rect class="cls-7" x="98" y="491" width="86" height="126"/><rect class="cls-7" x="12" y="440" width="86" height="177"/><line class="cls-7" y1="618" x2="280" y2="618"/><line class="cls-7" x1="55" y1="425" x2="55" y2="318"/><line class="cls-7" x1="140" y1="476" x2="140" y2="318"/><line class="cls-7" x1="227" y1="439" x2="227" y2="314"/><circle class="cls-8" cx="140" cy="398" r="15"/><circle class="cls-8" cx="227" cy="348" r="15"/><circle class="cls-8" cx="55" cy="377" r="15"/></svg>