<svg id="Слой_1" data-name="Слой 1" xmlns="http://www.w3.org/2000/svg" viewBox="0 0 296.5 558"><defs><style>.cls-1,.cls-2,.cls-3,.cls-6,.cls-7,.cls-8{fill:none;}.cls-1,.cls-2,.cls-3,.cls-4,.cls-5{stroke:#1b267b;}.cls-1,.cls-10,.cls-2,.cls-5,.cls-6,.cls-7{stroke-miterlimit:10;}.cls-1,.cls-10,.cls-3,.cls-5,.cls-6,.cls-8{stroke-width:8px;}.cls-3,.cls-8{stroke-linejoin:round;}.cls-4,.cls-9{font-size:116.92px;font-family:DINCondensed, DIN Condensed;}.cls-4,.cls-5{fill:#1b267b;}.cls-10,.cls-6,.cls-7,.cls-8,.cls-9{stroke:#616161;}.cls-10,.cls-9{fill:#616161;}</style></defs><title>Иконка 5</title><path class="cls-1" d="M110,67c0-.32,0-.64,0-1V48.24C110,39.86,115.4,33,122,33h72c6.6,0,12,6.86,12,15.24V66" transform="translate(-13 -6)"/><path class="cls-1" d="M87.38,66.15V23.75C87.38,16.19,92.81,10,99.44,10H217C223.58,10,229,16.19,229,23.75v42.4" transform="translate(-13 -6)"/><path class="cls-1" d="M30,177.09V268a12,12,0,0,0,12,12H278a12,12,0,0,0,12-12V176.05" transform="translate(-13 -6)"/><path class="cls-1" d="M10,124" transform="translate(-13 -6)"/><path class="cls-2" d="M152,194" transform="translate(-13 -6)"/><polyline class="cls-3" points="231.06 176.35 231.72 176.26 232.5 176.15 235.32 175.76 292 168 292 61 4 61 4 168 59.55 175.82 65.13 176.61"/><polyline class="cls-3" points="89.59 180.06 92.41 180.45 146 188 202.44 180.27 204.63 179.97 205.66 179.83"/><text class="cls-4" transform="translate(100.76 165.56) scale(1.75 1)">S</text><line class="cls-5" x1="145" y1="89" x2="145" y2="64"/><line class="cls-5" x1="145" y1="187" x2="145" y2="162"/><path class="cls-1" d="M90,162h0a10,10,0,0,1,10,10v26a10,10,0,0,1-10,10h0a10,10,0,0,1-10-10V172A10,10,0,0,1,90,162Z" transform="translate(-13 -6)"/><rect class="cls-1" x="206" y="156" width="22" height="46" rx="11"/><path class="cls-6" d="M110.52,347c0-.32,0-.64,0-1V328.24c0-8.38,5.4-15.24,12-15.24h72c6.6,0,12,6.86,12,15.24V346" transform="translate(-13 -6)"/><path class="cls-6" d="M87.88,346.15v-42.4c0-7.56,5.43-13.75,12.06-13.75H217.45c6.63,0,12.05,6.19,12.05,13.75v42.4" transform="translate(-13 -6)"/><path class="cls-6" d="M30.5,457.09V548a12,12,0,0,0,12,12h236a12,12,0,0,0,12-12V456.05" transform="translate(-13 -6)"/><path class="cls-6" d="M10.5,404" transform="translate(-13 -6)"/><path class="cls-7" d="M152.5,474" transform="translate(-13 -6)"/><polyline class="cls-8" points="231.56 456.35 232.22 456.26 233 456.15 235.82 455.76 292.5 448 292.5 341 4.5 341 4.5 448 60.05 455.82 65.63 456.61"/><polyline class="cls-8" points="90.09 460.06 92.91 460.45 146.5 468 202.94 460.27 205.13 459.97 206.16 459.83"/><text class="cls-9" transform="translate(101.26 445.56) scale(1.75 1)">S</text><line class="cls-10" x1="145.5" y1="369" x2="145.5" y2="344"/><line class="cls-10" x1="145.5" y1="467" x2="145.5" y2="442"/><path class="cls-6" d="M90.5,442h0a10,10,0,0,1,10,10v26a10,10,0,0,1-10,10h0a10,10,0,0,1-10-10V452A10,10,0,0,1,90.5,442Z" transform="translate(-13 -6)"/><rect class="cls-6" x="206.5" y="436" width="22" height="46" rx="11"/></svg>