<svg id="Слой_1" data-name="Слой 1" xmlns="http://www.w3.org/2000/svg" viewBox="0 0 303 580"><defs><style>.cls-1,.cls-4,.cls-6,.cls-9{fill:none;stroke-linecap:round;}.cls-1,.cls-2,.cls-3,.cls-4,.cls-5{stroke:#1b267b;}.cls-1,.cls-10,.cls-3,.cls-5,.cls-6,.cls-8{stroke-miterlimit:10;}.cls-1,.cls-3,.cls-4,.cls-6,.cls-8,.cls-9{stroke-width:8px;}.cls-2,.cls-7{font-size:116.92px;font-family:DINCondensed, DIN Condensed;}.cls-2,.cls-3{fill:#1b267b;}.cls-4,.cls-9{stroke-linejoin:round;}.cls-10,.cls-5{fill:#fff;stroke-width:4px;}.cls-10,.cls-6,.cls-7,.cls-8,.cls-9{stroke:#616161;}.cls-7,.cls-8{fill:#616161;}</style></defs><title>Иконка 2</title><path class="cls-1" d="M37.94,187.73v0A131.22,131.22,0,0,1,114.24,39.62" transform="translate(-6 -6)"/><path class="cls-1" d="M234.68,271.58l-.12.07a131.12,131.12,0,0,1-139.19-1.3l-.11-.07" transform="translate(-6 -6)"/><path class="cls-1" d="M218.54,40l.06,0a131.22,131.22,0,0,1,75.31,148.43l0,.13" transform="translate(-6 -6)"/><text class="cls-2" transform="translate(115.76 198.56) scale(1.75 1)">S</text><line class="cls-3" x1="160" y1="122" x2="160" y2="97"/><line class="cls-3" x1="160" y1="220" x2="160" y2="195"/><circle class="cls-1" cx="46" cy="234.79" r="42"/><circle class="cls-1" cx="46" cy="234.79" r="23.33"/><line class="cls-1" x1="29.33" y1="218.12" x2="16.33" y2="205.12"/><line class="cls-1" x1="45.33" y1="258.12" x2="45.33" y2="276.79"/><line class="cls-1" x1="69.33" y1="235.46" x2="88" y2="234.79"/><rect class="cls-4" x="173.1" y="4" width="25.62" height="48.56"/><rect class="cls-4" x="147.48" y="15.02" width="25.62" height="37.53"/><rect class="cls-4" x="121.64" y="27.53" width="25.62" height="25.02"/><line class="cls-4" x1="118.59" y1="52.56" x2="202" y2="52.56"/><line class="cls-1" x1="243.1" y1="266.86" x2="243.1" y2="194.82"/><line class="cls-1" x1="268.17" y1="266.86" x2="268.17" y2="194.82"/><line class="cls-1" x1="294.16" y1="266.86" x2="294.16" y2="193"/><circle class="cls-5" cx="268.17" cy="254.09" r="6.84"/><circle class="cls-5" cx="294.16" cy="208.5" r="6.84"/><circle class="cls-5" cx="243.1" cy="230.84" r="6.84"/><path class="cls-6" d="M37.94,478.73v-.05a131.22,131.22,0,0,1,76.31-148.06" transform="translate(-6 -6)"/><path class="cls-6" d="M234.68,562.58l-.12.07a131.12,131.12,0,0,1-139.19-1.3l-.11-.07" transform="translate(-6 -6)"/><path class="cls-6" d="M218.54,331l.06,0a131.22,131.22,0,0,1,75.31,148.43l0,.13" transform="translate(-6 -6)"/><text class="cls-7" transform="translate(115.76 489.56) scale(1.75 1)">S</text><line class="cls-8" x1="160" y1="413" x2="160" y2="388"/><line class="cls-8" x1="160" y1="511" x2="160" y2="486"/><circle class="cls-6" cx="46" cy="525.79" r="42"/><circle class="cls-6" cx="46" cy="525.79" r="23.33"/><line class="cls-6" x1="29.33" y1="509.12" x2="16.33" y2="496.12"/><line class="cls-6" x1="45.33" y1="549.12" x2="45.33" y2="567.79"/><line class="cls-6" x1="69.33" y1="526.46" x2="88" y2="525.79"/><rect class="cls-9" x="173.1" y="295" width="25.62" height="48.56"/><rect class="cls-9" x="147.48" y="306.02" width="25.62" height="37.53"/><rect class="cls-9" x="121.64" y="318.53" width="25.62" height="25.02"/><line class="cls-9" x1="118.59" y1="343.56" x2="202" y2="343.56"/><line class="cls-6" x1="243.1" y1="557.86" x2="243.1" y2="485.82"/><line class="cls-6" x1="268.17" y1="557.86" x2="268.17" y2="485.82"/><line class="cls-6" x1="294.16" y1="557.86" x2="294.16" y2="484"/><circle class="cls-10" cx="268.17" cy="545.09" r="6.84"/><circle class="cls-10" cx="294.16" cy="499.5" r="6.84"/><circle class="cls-10" cx="243.1" cy="521.84" r="6.84"/></svg>