<svg id="Слой_1" data-name="Слой 1" xmlns="http://www.w3.org/2000/svg" viewBox="0 0 290 610"><defs><style>.cls-1,.cls-4{font-size:116.92px;font-family:DINCondensed, DIN Condensed;}.cls-1,.cls-2{fill:#1b267b;}.cls-1,.cls-2,.cls-3{stroke:#1b267b;}.cls-2,.cls-3,.cls-5,.cls-6{stroke-miterlimit:10;stroke-width:8px;}.cls-3,.cls-6{fill:none;}.cls-4,.cls-5{fill:#616161;}.cls-4,.cls-5,.cls-6{stroke:#616161;}</style></defs><title>Иконка 3</title><text class="cls-1" transform="translate(181.76 105.56) scale(1.75 1)">S</text><line class="cls-2" x1="226" y1="29" x2="226" y2="4"/><line class="cls-2" x1="226" y1="127" x2="226" y2="102"/><circle class="cls-3" cx="226" cy="64" r="60"/><rect class="cls-3" x="183" y="137" width="86" height="163"/><rect class="cls-3" x="97" y="174" width="86" height="126"/><rect class="cls-3" x="10.25" y="216" width="86" height="84"/><line class="cls-3" y1="300" x2="280" y2="300"/><circle class="cls-3" cx="53.25" cy="187.5" r="10.5"/><circle class="cls-3" cx="140" cy="131" r="15"/><line class="cls-3" x1="53" y1="177" x2="53" y2="131"/><line class="cls-3" x1="125" y1="131" x2="49" y2="131"/><line class="cls-3" x1="140" y1="116" x2="140" y2="64"/><line class="cls-3" x1="166" y1="64" x2="136" y2="64"/><text class="cls-4" transform="translate(181.76 411.56) scale(1.75 1)">S</text><line class="cls-5" x1="226" y1="335" x2="226" y2="310"/><line class="cls-5" x1="226" y1="433" x2="226" y2="408"/><circle class="cls-6" cx="226" cy="370" r="60"/><rect class="cls-6" x="183" y="443" width="86" height="163"/><rect class="cls-6" x="97" y="480" width="86" height="126"/><rect class="cls-6" x="10.25" y="522" width="86" height="84"/><line class="cls-6" y1="606" x2="280" y2="606"/><circle class="cls-6" cx="53.25" cy="493.5" r="10.5"/><circle class="cls-6" cx="140" cy="437" r="15"/><line class="cls-6" x1="53" y1="483" x2="53" y2="437"/><line class="cls-6" x1="125" y1="437" x2="49" y2="437"/><line class="cls-6" x1="140" y1="422" x2="140" y2="370"/><line class="cls-6" x1="166" y1="370" x2="136" y2="370"/></svg>