<svg id="Слой_1" data-name="Слой 1" xmlns="http://www.w3.org/2000/svg" viewBox="0 0 314.56 634.99"><defs><style>.cls-1,.cls-8{font-size:116.92px;font-family:DINCondensed, DIN Condensed;}.cls-1,.cls-2{fill:#1b267b;}.cls-1,.cls-2,.cls-3,.cls-4,.cls-6{stroke:#1b267b;}.cls-10,.cls-11,.cls-2,.cls-3,.cls-4,.cls-5,.cls-6,.cls-7,.cls-9{stroke-miterlimit:10;}.cls-10,.cls-11,.cls-2,.cls-3,.cls-6,.cls-9{stroke-width:8px;}.cls-10,.cls-11,.cls-3,.cls-4,.cls-5,.cls-6,.cls-7{fill:none;}.cls-4,.cls-7{stroke-width:6px;}.cls-5{stroke:#fff;stroke-width:16px;}.cls-11,.cls-5,.cls-6{stroke-linecap:round;}.cls-10,.cls-11,.cls-7,.cls-8,.cls-9{stroke:#616161;}.cls-8,.cls-9{fill:#616161;}</style></defs><title>Иконка 4</title><text class="cls-1" transform="translate(108.88 196.19) scale(1.75 1)">S</text><line class="cls-2" x1="153.12" y1="119.63" x2="153.12" y2="94.63"/><line class="cls-2" x1="153.12" y1="217.63" x2="153.12" y2="192.63"/><circle class="cls-3" cx="154" cy="160.37" r="150"/><circle class="cls-3" cx="153.56" cy="160" r="113"/><circle class="cls-3" cx="153.56" cy="161" r="76"/><line class="cls-4" x1="300.56" y1="14" x2="300.56"/><line class="cls-4" x1="291.56" y1="21" x2="291.56" y2="7"/><line class="cls-4" x1="282.56" y1="30" x2="282.56" y2="16"/><line class="cls-4" x1="300.56" y1="14" x2="314.56" y2="14"/><line class="cls-4" x1="293.56" y1="23" x2="307.56" y2="23"/><line class="cls-4" x1="284.56" y1="32" x2="298.56" y2="32"/><circle class="cls-3" cx="153.56" cy="161" r="16"/><line class="cls-5" x1="154.56" y1="160" x2="264.56" y2="50"/><line class="cls-6" x1="153.56" y1="161" x2="304.06" y2="10.5"/><line class="cls-7" x1="300.56" y1="334.62" x2="300.56" y2="320.62"/><line class="cls-7" x1="291.56" y1="341.62" x2="291.56" y2="327.62"/><line class="cls-7" x1="282.56" y1="350.62" x2="282.56" y2="336.62"/><line class="cls-7" x1="300.56" y1="334.62" x2="314.56" y2="334.62"/><line class="cls-7" x1="293.56" y1="343.62" x2="307.56" y2="343.62"/><line class="cls-7" x1="284.56" y1="352.62" x2="298.56" y2="352.62"/><text class="cls-8" transform="translate(108.88 516.81) scale(1.75 1)">S</text><line class="cls-9" x1="153.12" y1="440.24" x2="153.12" y2="415.24"/><line class="cls-9" x1="153.12" y1="538.24" x2="153.12" y2="513.24"/><circle class="cls-10" cx="154" cy="480.99" r="150"/><circle class="cls-10" cx="153.56" cy="480.62" r="113"/><circle class="cls-10" cx="153.56" cy="481.62" r="76"/><circle class="cls-10" cx="153.56" cy="481.62" r="16"/><line class="cls-5" x1="154.56" y1="480.62" x2="264.56" y2="370.62"/><line class="cls-11" x1="153.56" y1="481.62" x2="304.06" y2="331.12"/></svg>